<mxfile host="Electron" modified="2023-05-09T19:19:56.278Z" agent="Mozilla/5.0 (Windows NT 10.0; Win64; x64) AppleWebKit/537.36 (KHTML, like Gecko) draw.io/21.2.8 Chrome/112.0.5615.165 Electron/24.2.0 Safari/537.36" etag="7aKhNgs1JElYv2NAI-zm" version="21.2.8" type="device">
  <diagram name="第 1 页" id="OVPgVpdWV3avBQHD8tKE">
    <mxGraphModel dx="2257" dy="831" grid="1" gridSize="10" guides="1" tooltips="1" connect="1" arrows="1" fold="1" page="1" pageScale="1" pageWidth="827" pageHeight="1169" math="0" shadow="0">
      <root>
        <mxCell id="0" />
        <mxCell id="1" parent="0" />
        <mxCell id="e-5Xq3-YnTkipl-v7S59-2" value="" style="shape=image;verticalLabelPosition=bottom;labelBackgroundColor=default;verticalAlign=top;aspect=fixed;imageAspect=0;image=data:image/png,iVBORw0KGgoAAAANSUhEUgAACTgAAASfCAYAAAAjnQDeAAAAAXNSR0IArs4c6QAAAARnQU1BAACxjwv8YQUAAAAJcEhZcwAAFiUAABYlAUlSJPAAAP+lSURBVHhe7P0/jyXHlSBuy+QMBlCDy4FEfSp9BH6CMSk6C633c+SJHoFpeqIlYylPC7QMYmmu0RZBQDRl0dIH6Pc9PRPMqGRk3pt5T0ZFZj0JPOi6GXXjnPsnT0dmnbr1i//3//7fOwAAAAAAAAAAgBFpcAIAAAAAAAAAAIalwQkAAAAAAAAAABiWBicAAAAAAAAAAGBYGpwAAAAAAAAAAIBhaXACAAAAAAAAAACGpcEJAAAAAAAAAAAYlgYnAAAAAAAAAABgWBqcAAAAAAAAAACAYWlwAgAAAAAAAAAAhqXBCQAAAAAAAAAAGJYGJwAAAAAAAAAAYFganAAAAAAAAAAAgGFpcAIAAAAAAAAAAIalwQkAAAAAAAAAABiWBicAAAAAAAAAAGBYGpwAAAAAAAAAAIBhaXACAAAAAAAAAACGpcEJAAAAAAAAAAAYlgYnAAAAAAAAAABgWBqcAAAAAAAAAACAYWlwAgAAAAAAAAAAhqXBCQAAAAAAAAAAGJYGJwAAAAAAAAAAYFganAAAAAAAAAAAgGFpcAIAAAAAAAAAAIalwQkAAAAAAAAAABiWBicAAAAAAAAAAGBYGpwAAAAAAAAAAIBhaXACAAAAAAAAAACGpcEJAAAAAAAAAAAYlgYnAAAAAAAAAABgWBqcAAAAAAAAAACAYWlwAgAAAAAAAAAAhqXBCQAAAAAAAAAAGJYGJwAAAAAAAAAAYFganAAAAAAAAAAAgGFpcAIAAAAAAAAAAIalwQkAAAAAAAAAABiWBicAAAAAAAAAAGBYGpwAAAAAAAAAAIBhaXACAAAAAAAAAACGpcEJAAAAAAAAAAAYlgYnAAAAAAAAAABgWBqcAAAAAAAAAACAYWlwAgAAAAAAAAAAhqXBCQAAAAAAAAAAGJYGJwAAAAAAAAAAYFganAAAAAAAAAAAgGFpcAIAAAAAAAAAAIalwQkAAAAAAAAAABiWBicAAAAAAAAAAGBYGpwAAAAAAAAAAIBhaXACAAAAAAAAAACGpcEJAAAAAAAAAAAYlgYnAAAAAAAAAABgWBqcAAAAAAAAAACAYWlwAgAAAAAAAAAAhqXBCQAAAAAAAAAAGJYGJwAAAAAAAAAAYFganAAAAAAAAAAAgGFpcAIAAAAAAAAAAIalwQkAAAAAAAAAABiWBicAAAAAAAAAAGBYGpwAAAAAAAAAAIBhaXACAAAAAAAAAACGpcEJAAAAAAAAAAAYlgYnAAAAAAAAAABgWBqcAAAAAAAAAACAYWlwAgAAAAAAAAAAhqXBCQAAAAAAAAAAGJYGJwAAAAAAAAAAYFganAAAAAAAAAAAgGFpcAIAAAAAAAAAAIalwQkAAAAAAAAAABiWBicAAAAAAAAAAGBYGpwAAAAAAAAAAIBhaXACAAAAAAAAAACGpcEJAAAAAAAAAAAYlgYnAAAAAAAAAABgWBqcAAAAAAAAAACAYWlwAgAAAAAAAAAAhqXBCQAAAAAAAAAAGJYGJwAAAAAAAAAAYFganAAAAAAAAAAAgGFpcAIAAAAAAAAAAIalwQkAAAAAAAAAABiWBicAAAAAAAAAAGBYGpwAAAAAAAAAAIBhaXACAAAAAAAAAACGpcEJAAAAAAAAAAAYlgYnAAAAAAAAAABgWBqcAAAAAAAAAACAYWlwAgAAAAAAAAAAhqXBCQAAAAAAAAAAGJYGJwAAAAAAAAAAYFganAAAAAAAAAAAgGFpcAIAAAAAAAAAAIalwQkAAAAAAAAAABiWBicAAAAAAAAAAGBYGpwAAAAAAAAAAIBhaXACAAAAAAAAAACGpcEJAAAAAAAAAAAYlgYnAAAAAAAAAABgWBqcAAAAAAAAAACAYWlwAgAAAAAAAAAAhqXBCQAAAAAAAAAAGJYGJwAAAAAAAAAAYFganAAAAAAAAAAAgGFpcAIAAAAAAAAAAIalwQkAAAAAAAAAABiWBicAAAAAAAAAAGBYGpwAAAAAAAAAAIBhaXACAAAAAAAAAACGpcEJAAAAAAAAAAAYlgYnAAAAAAAAAABgWBqcAAAAAAAAAACAYWlwAgAAAAAAAAAAhqXBCQAAAAAAAAAAGJYGJwAAAAAAAAAAYFganAAAAAAAAAAAgGFpcAIAAAAAAAAAAIalwQkAAAAAAAAAABiWBicAAAAAAAAAAGBYGpwAAAAAAAAAAIBhaXACAAAAAAAAAACGpcEJAAAAAAAAAAAYlgYnAAAAAAAAAABgWBqcAAAAAAAAAACAYWlwAgAAAAAAAAAAhqXBCQAAAAAAAAAAGJYGJwAAAAAAAAAAYFganAAAAAAAAAAAgGFpcAIAAAAAAAAAAIalwQkAAAAAAAAAABiWBicAAAAAAAAAAGBYGpwAAAAAAAAAAIBhaXACAAAAAAAAAACGpcEJAAAAAAAAAAAYlgYnAAAAAAAAAABgWBqcAAAAAAAAAACAYWlwAgAAAAAAAAAAhqXBCQAAAAAAAAAAGJYGJwAAAAAAAAAAYFganAAAAAAAAAAAgGFpcAIAAAAAAAAAAIalwQkAAAAAAAAAABiWBicAAAAAAAAAAGBYGpwAAAAAAAAAAIBhaXACAAAAAAAAAACGpcEJAAAAAAAAAAAYlgYnAAAAAAAAAABgWBqcAAAAAAAAAACAYWlwAgAAAAAAAAAAhqXBCQAAAAAAAAAAGJYGJwAAAAAAAAAAYFganAAAAAAAAAAAgGFpcAIAAAAAAAAAAIalwQkAAAAAAAAAABiWBicAAAAAAAAAAGBYGpwAAAAAAAAAAIBhaXACAAAAAAAAAACGpcEJAAAAAAAAAAAYlgYnAAAAAAAAAABgWBqcAAAAAAAAAACAYWlwAgAAAAAAAAAAhqXBCQAAAAAAAAAAGJYGJwAAAAAAAAAAYFganAAAAAAAAAAAgGFpcAIAAAAAAAAAAIalwQkAAAAAAAAAABiWBicAAAAAAAAAAGBYGpwAAAAAAAAAAIBhaXACAAAAAAAAAACGpcEJAAAAAAAAAAAYlgYnAAAAAAAAAABgWBqcAAAAAAAAAACAYWlwAgAAAAAAAAAAhqXBCQAAAAAAAAAAGJYGJwAAAAAAAAAAYFganAAAAAAAAAAAgGFpcAIAAAAAAAAAAIalwQkAAAAAAAAAABiWBicAAAAAAAAAAGBYGpwAAAAAAAAAAIBhaXACAAAAAAAAAACGpcEJAAAAAAAAAAAYlgYnAAAAAAAAAABgWBqcAAAAAAAAAACAYWlwAgAAAAAAAAAAhqXBCQAAAAAAAAAAGJYGJwAAAAAAAAAAYFganAAAAAAAAAAAgGFpcAIAAAAAAAAAAIalwQkAAAAAAAAAABiWBicAAAAAAAAAAGBYGpwAgFP761//CgAAAAAAHKh1fR6gJw1OAMBpxUnV//pf/2toX375JQAAAAAAHKZ1bTpb6xo9QE8anACA0zpDgxMAAAAAAJxd6xo9QE8anACA09LgBAAAAAAAx2tdowfoSYMTAHBaGpwAAAAAAOB4rWv0AD1pcAIATkuDEwAAAAAAHK91jR6gJw1OAMBpaXACAAAAAIDjta7RA/SkwQkAOC0NTgAAAAAAcLzWNXqAnjQ4AQCnpcEJAAAAAACO17pGD9CTBicA4LTO0OD05ZdfAgAAAADAYVrXprO1rtED9KTBCQA4LZ/gBAAAAAAAx2tdowfoSYMTAHBaGpwAAAAAAOB4rWv0AD1pcAIATkuDEwAAAAAAHK91jR6gJw1OAMBpaXACAAAAAIDjta7RA/SkwQkAOC0NTgAAAAAAcLzWNXqAnjQ4AQCnpcEJAAAAAACO17pGD9CTBicA4LTO0OD05ZdfAgAAAADAYVrXprO1rtED9KTBCQA4LZ/gBAAAAAAAx2tdowfoSYMTAHBaGpwAAAAAAOB4rWv0AD1pcAIATkuDEwAAAAAAHK91jR6gJw1OAMBpaXACAAAAAIDjta7RA/SkwQkAOC0NTgAAAAAAcLzWNXqAnjQ4AQCnpcEJAAAAAACO17pGD9CTBicA4LQ0OAEAAAAAwPFa1+gBetLgBACc1ugNTl9++eXPvH79urm/OGK83ndrvMV4/ni979Z4i/Ht4/W+W+MtxvPH6323xluMbx+v9z063mJ8+3i979Z4i/H88XrfrfEW49vH632PjrcY3z5e77s13mJ8+3i979HxFuPbx+t9j463GP/5eL3v0fEW49vH632PjrcY3z5e73t0vMX4z8frfY+Ot2SOt65PZ2tdowfoSYMTAHBaPsEJAAAAAACO17pGD9CTBicA4LQ0OAEAAAAAwPFa1+gBetLgBACclgYnAAAAAAA4XusaPUBPGpwAgNPS4AQAAAAAAMdrXaMH6EmDEwBwWhqcAAAAAADgeK1r9AA9aXACAE5LgxMAAAAAAByvdY0eoCcNTgDAaWlwAgAAAACA47Wu0QP0pMEJADitMzQ4ffnllwAAAAAAcJjWtelsrWv0AD1pcAIATssnOAEAAAAAwPFa1+gBetLgBACclgYnAAAAAAA4XusaPUBPGpwAgNPS4AQAAAAAAMdrXaMH6EmDEwBwWhqcAAAAAADgeK1r9AA9aXACAE5LgxMAAAAAAByvdY0eoCcNTgDAaWlwAgAAAACA47Wu0QP0pMEJADgtDU4AAAAAAHC81jV6gJ40OAEAp3WGBqcvv/wSAAAAAAAO07o2na11jR6gJw1OAMBp+QQnAAAAAAA4XusaPUBPGpwAgNPS4AQAAAAAAMdrXaMH6EmDEwBwWhqcAAAAAADgeK1r9AA9aXACAE5LgxMAAAAAAByvdY0eoCcNTgDAaWlwAgAAAACA47Wu0QP0pMEJADgtDU4AAAAAAHC81jV6gJ40OAEApzV6g9OXX375M69fv27uL44Yr/fdGm8xnj9e77s13mJ8+3i979Z4i/H88XrfrfEW49vH632PjrcY3z5e77s13mI8f7zed2u8xfj28Xrfo+MtxreP1/tujbcY3z5e73t0vMX49vF636PjLcZ/Pl7ve3S8xfj28Xrfo+MtxreP1/seHW8x/vPxet+j4y2Z463r09la1+gBetLgBACclk9wAgAAAACA47Wu0QP0pMEJADgtDU4AAAAAAHC81jV6gJ40OAEAp6XBCQAAAAAAjte6Rg/QkwYnAOC0NDgBAAAAAMDxWtfoAXrS4AQAnJYGJwAAAAAAOF7rGj1ATxqcAIDT0uAEAAAAAADHa12jB+hJgxMAcFoanAAAAAAA4Hita/QAPWlwAgBO6wwNTl9++SUAAAAAABymdW06W+saPUBPGpwAgNPyCU4AAAAAAHC81jV6gJ40OAEAp6XBCQAAAAAAjte6Rg/QkwYnAOC0NDgBAAAAAMDxWtfoAXrS4AQAnJYGJwAAAAAAOF7rGj1ATxqcAIDT0uAEAAAAAADHa12jB+hJgxMAcFoanAAAAAAA4Hita/QAPWlwAgBOS4MTAAAAAAAcr3WNHqAnDU4AwGmdocHpyy+/BAAAAACAw7SuTWdrXaMH6EmDEwBwWj7BCQAAAAAAjte6Rg/QkwYnAOC0NDgBAAAAAMDxWtfoAXrS4AQAnFY0OH3++eeHaZ3EPaoVBzhO6zh8bq08AVpaNWQErVwB5lr14zm1cgQIrZrx3Fp5Aqxp1ZJ7tOZa0rpGD9CTBicAgAV/+tOfmid9e0VDVisOcJy4+NI6Hp9L1JVWngAtX331VbOWPKdWngAtI63DnIsBa7Kv/zzKeSOwR6ue3KLeAGejwQkAYEH2Ba5WDOBYI/0pSxeNgD1G+oGbBgFgq1Yt6U3tAu4xSmO5T0gB9mrVlFtcqwLORoMTAMCCzB8oukAFz2eE5gAXjIBHjFDHrGWAPZ672dwaDNhihDWXpkxgrz2fnqnmAGejwQkAYEHmxXgni/C8nvNPpPjBGpDhuX/g1soJ4B7P1eRkDQbs8ZxrLnULeMSe+uWaNXA2GpwAABZkXohvzQ/04wdrwBU81w/cXPQGHtV7LWYNBjziOX5B5o9//GMzF4B7aXACXgINTgAAK1onflv5ky4wht6NAY594AhqGXBWveqX5iYgQ+8mJ00GwKM0OAEvgQYnAIAVrRO/rZwowjh6/WBNQwBwpJ5NTq34AHsdXb80NwGZejU5OX8EMuz5xMzWPAAj0+AEALCideK3VWte4Pm0jtNMLk4DPfT4gZsmbeAIX331VbPmPEpzE3CEHmuuVlyArTQ4AS+BBicAgBWPXsjS6ADjOeqHakUrJsARjvyBmzUMcKTsT3JSs4AjtepOFg3lQKZWnVnTmgNgZBqcAABWPPqDQxeqYExH/XkUxzzQ21FNTq1YAJmy1mOam4Cj7flUlHuoX0C2Vq1Z05oDYGQanAAAVjx60b01JzCG1jH7CM1NwHPJbnJSz4BeHj3f0hwA9HJEk5M1F5Bty7mhdRRwRhqcAABWfP31109O/L788ssnt9+8efN+X1Hfjq9bcwJjuHV817dfv37907Fdju/6dszVigHQw7fffvukfs2trVfmt61fgJ6+//77J/Uq6tD89pqof615AY6w9RpRbT7mHBI4wrzBKepN/XXNuR9wRhqcAABWbGmAmN+Or1tzAmPY2uC0NBZcnAae060Gp7X6Nr8dX7diABzhngantdsanICetl4jqs3PKZ1DAke41eA0H2vNATAyDU4AACs0OMF1aXACrkKDE3BWGpyAM9HgBIxOgxNwdRqcAABWaHCC69LgBFyFBifgrDQ4AWeiwQkYnQYn4Oo0OAEArNDgBNelwQm4Cg1OwFlpcALORIMTMDoNTsDVaXACAFihwQmuS4MTcBUanICz0uAEnIkGJ2B0GpyAq9PgBACwQoMTXJcGJ+AqNDgBZ6XBCTgTDU7A6DQ4AVenwQkAYIUGJ7guDU7AVWhwAs5KgxNwJhqcgNFpcAKuToMTAMAKDU5wXRqcgKvQ4ASclQYn4Ew0OAGj0+AEXJ0GJwCAFRqc4Lo0OAFXocEJOCsNTsCZaHACRqfBCbg6DU4AACs0OMF1aXACrkKDE3BWGpyAM9HgBIxOgxNwdRqcAABWaHCC69LgBFyFBifgrDQ4AWeiwQkYnQYn4Oo0OAEArNDgBNelwQm4Cg1OwFlpcALORIMTMDoNTsDVaXACAFihwQmuS4MTcBUanICz0uAEnIkGJ2B0GpyAq9PgBACwQoMTXJcGJ+AqNDgBZ6XBCTgTDU7A6DQ4AVenwQkAYIUGJ7guDU7AVWhwAs5KgxNwJhqcgNFpcAKuToMTAMAKDU5wXRqcgKvQ4ASclQYn4Ew0OAGj0+AEXJ0GJwCAFRqc4Lo0OAFXocEJOCsNTsCZaHACRqfBCbg6DU4AACs0OMF1aXACrkKDE3BWGpyAM9HgBIxOgxNwdRqcAABWaHCC69LgBFyFBifgrDQ4AWeiwQkYnQYn4Oo0OAEArNDgBNelwQm4Cg1OwFlpcALORIMTMDoNTsDVaXACAFihwQmuS4MTcBUanICz0uAEnIkGJ2B0GpyAq9PgBACwQoMTXJcGJ+AqNDgBZ6XBCTgTDU7A6DQ4AVenwQkAYIUGJ7guDU7AVWhwAs5KgxNwJhqcgNFpcAKuToMTAMAKDU5wXRqcgKvQ4ASclQYn4Ew0OAGj0+AEXJ0GJwCAFRqc4Lo0OAFXocEJOCsNTsCZaHACRqfBCbg6DU4AACs0OMF1aXACrkKDE3BWGpyAM9HgBIxOgxNwdRqcAABWaHCC69LgBFyFBifgrDQ4AWeiwQkYnQYn4Oo0OAEArNDgBNelwQm4Cg1OwFlpcALORIMTMDoNTsDVaXACAFihwQmuS4MTcBUanICz0uAEnIkGJ2B0GpyAq9PgBACwQoMTXJcGJ+AqNDgBZ6XBCTgTDU7A6DQ4AVenwQkAYIUGJ7guDU7AVWhwAs5KgxNwJhqcgNFpcAKuToMTAMAKDU5wXRqcgKvQ4ASclQYn4Ew0OAGj0+AEXJ0GJwCAFRqc4Lo0OAFXocEJOCsNTsCZaHACRqfBCbg6DU4AACs0OMF1aXACrkKDE3BWGpyAM9HgBIxOgxNwdRqcAABWaHCC69LgBFyFBifgrDQ4AWeiwQkYnQYn4Oo0OAEArNDgBNelwQm4Cg1OwFlpcALORIMTMDoNTsDVaXACAFihwQmuS4MTcBUanICz0uAEnIkGJ2B0GpyAq9PgBACwQoMTXJcGJ+AqNDgBZ6XBCTgTDU7A6DQ4AVenwQkAYIUGJ7guDU7AVWhwAs5KgxNwJhqcgNFpcAKuToMTAMAKDU5wXRqcgKvQ4ASclQYn4Ew0OAGj0+AEXJ0GJwCAFRqc4Lo0OAFXocEJOCsNTsCZaHACRqfBCbg6DU4AACs0OMF1aXACrkKDE3BWGpyAM9HgBIxOgxNwdRqcAABWaHCC69LgBFyFBifgrDQ4AWeiwQkYnQYn4Oo0OAEArNDgBNelwQm4Cg1OwFlpcALORIMTMDoNTsDVaXACAFihwQmuS4MTcBUanICz0uAEnIkGJ2B0GpyAq9PgBACwQoMTXJcGJ+AqNDgBZ6XBCTgTDU7A6DQ4AVenwQkAYIUGJ7guDU7AVWhwAs5KgxNwJhqcgNFpcAKuToMTAMAKDU5wXRqcgKvQ4ASclQYn4Ew0OAGj0+AEXJ0GJwCAFRqc4Lo0OAFXocEJOCsNTsCZaHACRqfBCbg6DU4AACs0OMF1aXACrkKDE3BWGpyAM9HgBIxOgxNwdRqcAABWaHCC69LgBFyFBifgrDQ4AWeiwQkYnQYn4Oo0OAEArNDgBNelwQm4Cg1OwFlpcALORIMTMDoNTsDVaXACAFihwQmuS4MTcBUanICz0uAEnIkGJ2B0GpyAq9PgBACwQoMTXJcGJ+AqNDgBZ6XBCTgTDU7A6DQ4AVenwQkAYIUGJ7guDU7AVWhwAs5KgxNwJhqcgNFpcAKuToMTAMAKDU5wXRqcgKvQ4ASclQYn4Ew0OAGj0+AEXJ0GJwCAFRqc4Lo0OAFXocEJOCsNTsCZaHACRqfBCbg6DU4AACs0OMF1aXACrkKDE3BWGpyAM9HgBIxOgxNwdRqcAABWaHCC69LgBFyFBifgrDQ4AWeiwQkYnQYn4Oo0OAEArNDgBNelwQm4Cg1OwFlpcALORIMTMDoNTsDVaXACAFihwQmuS4MTcBUanICz0uAEnIkGJ2B0GpyAq9PgBACwQoMTXJcGJ+AqNDgBZ6XBCTgTDU7A6DQ4AVenwQkAYEVccIqTvTXzE0MniXAO8+P7zZs3i7fj66VjPbg4DTyn+AF/qVdL6pq1dju+bsUAOEI0OJU6FVrrsaV6FTQ4AT1tvUZU0+AE9DCvU3/7299++rq1rmrNATAyDU4AACvmv/WyVdz/r3/9a3Nu4Pn86U9/ah6zj3C8A8/hiHoWc7ZiAWSKWpNRw6y/gB6OWHOpX0CmqCmtWrOmNQ/AyDQ4AQCseLTBqYh5WvMDfR1xUXpOoxPQw9H1zNoFOEpWY1PN+gs40pHrrlY8gD32XMeO+taaC2BUGpwAAFbsOTFc46QRnsf/+T//59CL0i1+0AYcoWctU8eATFG/jq5hzreATLEOyr4uNBfzt2IDbPFIrWrNBzAqDU4AACtaJ30Z/LAQ+und2DSnQQB4VI+mgDUaBoBH9K5h1l5Ahp51y1oLeMSj9UoNAs5EgxMAwIrWSV8WF97hWD0vSN/DMQ9sFXVslFrmojew1XPXsFh7tfICuOU5ape1FrBHfGJ5q6ZspQYBZ6HBCQBgQTQitE74sml6gFzP8efotnDMA7eMWsM0CwD3iBo2Uh3zAzvgXs9du9QrYKtWLdlD/QHOQoMTAMCCXg1OhaYHeNxIP0y7xTEPzJ2hhqldwJKoYaPWMbULuGWU+tXKDaAl1jetOrJX1MFWHICRaHACAFjQu8GpiJPTVj7AsjM0BSzxAzfgjDVM3QJqZ6ljfnAHtGQ3CTzCNSHgHkesvZ57nfT999/DYVrvOc5JgxMAwILnvkjv4jvcFsfJSBejH6HRCV6e515rPMpaBThrHbPmAsKoNcwaC1hzZO06qv7E2ivmLuIa2FWu53EOR7236U+DEwDAghFOsr788st3X3/9NbCgddycXdSe1mMFrqV1/J+RmgUvV6smnIn6BbRqwyha+QKEVs3IEuuj1nXyNZqXOAMNTtehwQkAYMEIJ2LR4NTaD1yX4x4A4HjWXMDI1CjgubSaqmqalzijPc17jEmDEwDAAg1OwHNw3AMAHM+aCxiZGgU8F/WHq2r9DIjz0eAEALCgtQjuzQklvDyOewCA41lzASNTo4Dnov5wVfHnFFs/B+JcNDgBACxoLYJ7ixNKYFnruDm71uMErqd1/J9R67EBL0OrJpxJ6zEBL0urNozizZs3zZwBWjUjU48Y8Bz+9Kc/NX8OxLlocAIAaIhu/tYiuDcnlPDyOO4BAI5nzQWMTI0CnkvUnyXRfNm6T5ZWTMiiwekaNDgBADRocAKei+MeAOB41lzAyNQoYERqE2fX+lkQ56LBCQCgIbr5Wwvg3pw0wsvjuAcAOJ41FzAyNQoYkdrE2bV+FsS5aHACAGgYpcEJWOaiCnBW6hdwduoYcHbqGHBWR9evmH/J0X+iDo4Wf7mj9fMgzkODEwBAw+eff95cAAPjiAsrrf0Ao1O/gLNTx4CzU8eAszq6fsUv/raulxeum3Nmt97fjE+DEwBAgxM1GJ8L0sBZqV/A2aljwNmpY8BZPXeDU3wCTut+cAYanM5PgxMAQMNIDU5x0gr83JU/Frv1eIHruFr9aj1G4NquUsdajw14GUavY62cAYpW3chyTwNIfE/rvjCKteOk9Z7mPDQ4AQA0tBa+wFiOvqADcBT1Czg7dQw4O3UMOKuj61f84m/revlc6757RcPU999/D5t8++2374+Hlmhkrm+X91p83Xo/cx4anAAAGuoTLGBM9ckpwJmoX8DZqWPA2aljwFn1qF+t6+VzWZ/i5E+GsVc0OLXeU2HpOIn9rbk4Dw1OAAAz/o44nIML0sBZqV/A2aljwNmpY8BZ9ahfcX28dd187quvvmre/173xoEWDU4vkwYnAICZ0RqcYtFdvH79+sntudZ4ve/WeIvx/PF6363xFuPTeOuYObv6sRYjPecte8brfbfGW4xvH6/3PTreYnzbeOv4P6P6Mc2N9pzPtcbrfbfGW4xvH6/3PTreYnz7eL1vbbxVE85k/riKPc9Zbc94ve/R8Rbj28frfY+Otxj/+Xi979HxltZ4qzaMYp7rnsdX2zNe73t0vMX49vF636PjLcZ/Pl7ve3S8Ze94q25k2vKpSq373+JTm8igwell0uAEADCT9fG6wLF6XNABOIL6BZydOgacnToGnFWP+rWlAenrr79uzhEi17n4/tY8sJUGp5dJgxMAwIwGJziHpRNVgNGpX8DZqWPA2aljwFn1qF+ff/5587p5y1KDU51n/fWWuWGNBqeXSYMTAMBMnGS1Fr/AWHpc0AE4gvoFnJ06BpydOgacVa/61bpu3qLBieeiwell0uAEADAzSoNT5BGfJhUnicDPxUlsHCdXakqMx9J6rMC1XKV+qVnwcp29jqlfQBi5hrXyBShadSNb67p5y1I+Gpw4mganl0mDEwDATGvh20M0M4W//vWvzbyAdXHshDiORv+BW+TmmAeKs9QvdQtYUurYqDWsrL3UL2Curl+t+tGTOgXcq0fNurceaXDiuWhwepk0OAEAzLQWvtn8gBD6KRes45iLiyg9L1xHrHK8h1Z+AEtGqV+t3ABuec4aVupXxG/lBrAk6kbPmqVWAXtF/WjVlSwxfyvunAYnnosGp5dJgxMAQOX777//2YK3vj335s2b999T/O1vf3tyez4e87fiAv3NLwTFMVrfnquP5/mxPb8dF3daMQEybF2v1PUp3Kph1ivAkaLO1PVpXq/q22XfEvULONKtc8b57XlNqjlnBI7wl7/85Ukdmot6U39dW6tZYaQGp1jjwdzbt29/el/N1e+5+f7We4zz0OAEAFCJhfF8wZt5O+Zfigv0E8fd/Ld85sfrXD0+/97Xr18/ud26WN3KA2CrUk/qmnNr/TF36/tLHPULyBY1pa45t+rR1tslxtw8D4Alde24dc5463btnnPGopUX8LK1akXY2uC0NNa6fW8j5tENTvH4Y/vnP//Z9MMPP2zaH9bG/v73vzf3751vz9ie/MKe+bLH9uQXlsbW7hNbeV/Nzd/P9f7W+4zz0OAEAFCJE6b5gjfzduuE9B//+EdzgR6yF/09TzBGmC/0OinNzi8s3W/01zH0irV3vjjuejY4rV2MGeU5WRsb/TjaM/YSj6Ner2NYGtuTX9gzX/ZY9nsm7HlNon5tXa/M3fr+er2yVr+OeE6WxkaZb4T3aXZ+YU+sPWOjHEd7xrLzC9mx9oz1fM+EqCt1zblVj7bebp1vLdWwMMJzFryPb49l5xf2xBphvnDF98wor2OstUr9eI4Gp73njiMcp6FXrOz5QnasXsdpWBo7c6zs+cKe12SUY6uuTbUrNDh98cUX737zm9+8+8UvfnGX+N64T9w3PmVq6ZOmfv/73zf3x58F/eMf/9gcW5sv7rP0J0WzY8l9spZ7bOV9NTd/P9f7W3NxHhqcAAAqW39geOv2Z5999u7Vq1fNk7GW+gQtLJ0Q7F30j3ByJPeJ3J/aE2vPfHGcx8WhzAan3/3ud7uP9T2Pwes5kftTcp+MnvtarKX5Sv3aul6Zq8c/+eSTdx999FGzVrU8Wr9Gef7lPpH75Kq5r8XqmXts8e/ammrr7UfOt7w+T8l9IvdJz9yXYvXMvay1yu0jGpxi7dXz3HHt+cueL/v1kPtklNzXYsl9kp17NDdducEp6lyr/q3593//9/fPfzxnobwetXiuW/vD0tjafD1jyf2+sdjK+2pu/n6u99fvP85HgxMAQCW7wWnLDwyLDz/88KeFeyz6y9e1pf0he2z0+UKvWNnzhV6xsucLZ431v//3/05vcHrkWO/1uMNLi5U9X+gVK3u+0CtW9nyhV6zs+UJmrLhwnN3gtOUHbMUj9StkPidhhFjZ84VesbLnC71iZc8XesXKni/0irV3vtjinGttTbX1tvOt+/eH0WNlzxd6xcqeL/SKlT1f6BUre76y1irXiI5ocLry2it7vtArVvZ8oVes7PlCr1jZ84VesbLnC0tjb968uXSDU6vu3SMaXMpzNG98CfF8tvav3WfPfKFXrOz5wplzj628r+bm7+d6f/3+43w0OAEAVLIbnFonX/eI39oJsYAvX9diAR+L/tZYORloje2Zr2csud83JvfJnvniInV2g1PrOL5H5DPCc7I2X89Ycr9vTO6TM+e+NrY0X6lfmQ1Ordp0j8in53OSHUvu943JfXLm3NfGeuYeW5xzra2ptt5u1ad7RD5HPMYzvz5yn8h90jP3pVjZ84Wl3Mtaq1wjOqLBqVWT7hH57XlM2c/R2nw9Y8n9vrGeseQ+yX6Nr/4JTq2ad4+4bzxvoZ6viOe6tT+e03iuW2Nr85XXpzWWHUvuk7XcYyvvq7n5+7ne35qL89DgBABQGaXBqeSzdEKwd9E/wsmR3Cdyf2pPrD3zxXE+SoNT5LPnMXg9J3J/Su6T0XNfi7U0X6lfIzQ4RT5nfv7lPpH75Kq5r8XqmXts8e/ammrr7VZ9ukfk4fV5Su4TuU965r4Uq2fuZa1Vbo/U4BT5ZL8e2fNlvx5yn4yS+1osuU+yc38pDU5//vOf368XY4uvy/5PP/30/b4ff/zxp30hnktettjK+2pu/n6u99fvP85HgxMAQOWoBqff/va37xfc33zzzZMTMSdo0N9//ud/HtLgVF+Iia0+ph3rQIb4wdgRDU7ffffd+xoVW3xd1yn1C8gSW5xzra2ptt6u61JZi8UPzco+NQzYoqy1yjWioxqc5ueO6haw5iX8ibpSF+Mael37QlxPj5oYW9TIsj/ue+bGNblP9uYeW3lfzc3fz/X+1lychwYnAIDKEQ1O9YWreYPT2glaWDoh2LvoH+HkSO4TuT+1J9ae+cpv5R7R4BT/lobGcjusHet7HoPXcyL3p+Q+GT33tVhL85X6ld3gVMSF5nmdyq5fozz/cp/IfXLV3Ndi9cw9tvh3bU219XapSaFsdaPAWg3z+jwl94ncJz1zX4rVM/ey1iq3j2xwmjeVFz3XXtnzZb8ecp+MkvtaLLlPsnN/CZ/gFHUv6l+pebXY4j7z7ynPWbwO8fVcPNet/fH95TWaW5uvZyy53zcWW3lfzc3fz/X++v3H+WhwAgCoHNHgVJ+MzU/UYls6QQtLJwR7F/0jnBzJfRLfH/eb7w/Zr3H2fD1z3xtrab7/+3//7yENTkWrwSm2zIsxozzHPWPJ/b4xuU+umHvUrR4NTvVvzcbmYvJ/kftTcp/I/b6x2OKca21NtfV2qUlRn6JOxRY1q+wvt1s17IjH6L01kft9Y3K/PZY9X1jKvay1yjWioxqcoh4tNTit1a09j2nv83fm95Lc7xuT+2T03N++fXv5BqfYyloutnJNLb43tjhHjZoYW6mL8XyFeE7L17Wl/WHPWPZ8oVes7PlCr1hr94mtvK/m5u/nen/9/uN8NDgBAFR6Njg9coIW9iz6s8dGny/0ipU9X+gVK3u+0CvWnvvEhZcjG5zKVm7fOtZHeE7CCLGy5wu9YmXPF3rFyp4v9IqVPV8YOVapX9kNTvHpAGWrm5t616+w9TkJI8wXesXKni/0ipU9X+gVK3u+cMVYa/eJLc651tZUW2/XNaz8G7XrnhoWsh9j9tjo84VesbLnC71iZc8XesXKni/0irXnPmWtVa4RHdngVG+lNjl3vH8se77QK1b2fOGKsbLnC71iZc/3Uhqcou7F13X9q/+cetnKWi/uG41hoZ6viOeztT+axuJ5bY2tzRf3ifu2xrJjyX2ylnts5X01N38/1/tbc3EeGpwAACo9G5xunaCFpROCvYv+EU6O5D6R+1N7Yu2ZL47zIxqc4iJ0bPPfxL11rO95DF7Pidyfkvtk9NzXYi3NV+pXdoNTMW8OOKJ+jfL8y30i98lVc1+L1TP32OLftTXV1ttRj2KL2rS1hnl9npL7RO6TnrkvxeqZe1lrldtHNTjVYivXinqvvbLny3495D4ZJfe1WHKfZOf+Ev5EXdS/EF9HTYxPcyrX2eafkF6+L57/eM5CeT1q8Vy39oelsbX5esaS+31jsZX31dz8/Vzvr99/nI8GJwCASq8Gp3tO0MLoJyx7YmXPF+Q+uWLuYU+spfsc9Sfq6osxxVEXY9bus2e+MHosud83JvfJFXOPunVkg1Nds1xM/vn+IPeJ3Cdyv28stjjnWltTbb0dPyBrbf/f//f/vf/37OdbPV8fuU/kft/YCLGy5ytrrXKN6OgGp5HXXtnz9Ywl98naa5L9GmfP1zPW6Lm/hE9wKjWvbFETyyc5RRN7+Z6yL8bjudnzXK/dZ898oVes7PnCmXOPrbyv5ubv53p//f7jfDQ4AQBUejU43XOCFvacEIxwwhLkfntsbb6esV5a7nHh5YgGp/kWx/Q9x/oIz8nafD1jyf2+MblPzpz7nlilfmU3ONVb+SHac9SvPc9J2BNL7veNyX1y5tz3xMqeL8QW51xra6qtt0t9CvUnON1Tw454jGd+feQ+kfvkpeVe1lrlGtFRDU7xySRle861V/Z8PWPJ/b6xEWJlzxdeWu4vpcFpq7hveY7q+Yp4rlv7R/lkLrlP9uYeW3lfzc3fz/X+1lychwYnAIDKkQ1OW5R8lk4I9i76Rzg5kvtE7k/tibVnvjjOj2hw2iPy2fMYvJ4TuT8l98noua/FWpqv1K/sBqc9Ip8zP/9yn8h9ctXc12L1zD22+HdtTbX1dqs+3SPy8Po8JfeJ3Cc9c1+K1TP3stYqt4/+BKctIp/s1yN7vuzXQ+6TUXJfiyX3SXbuV/8Tdf/2b//WrHtrPvzww/fPVzyf8W/LnrHs+UKvWNnzhV6x9s4XW3lfzc3fz/X++v3H+WhwAgCoxMWsWOQWb968eXL7b3/725PbYb5Arm//67/+a/MkbM0vf/nL9wt34Bj/+Z//+VOD0/x4vmXpWP+Xf/mX5vG8xrEObBU/GCsNTnVtmq9X5rdDXbPq2x988EGzRq1Rv4A9Yotzrvqc6lb9ittL9Ss43wIylbVWuUb0yDnjXGlwsvYCtor10FqDU6sWFfN1V12XYt/a7XsbnJZqZT3XXH3/L7744t3HH3/crH8tv/rVr9794Q9/eN8UFk1m0egSX8/Fc9fav3aftbHYH+OtsexYcp+s5R5b6713S/3+43w0OAEAzLROuvb65JNP3r169ap5MtYSJ3NxUldyiROCOrciFvWhNVZOBlpjS/PF98f9WmPZseQ+kftTe2Ltma/8Vm78xljruN3jkWN9z2Pwek7k/pTcJ6PnvhZrab76UwVatWiP3vVrlOdf7hO5T66a+1qsnrnHFv+2atFej9Qwr89Tcp/IfdIz96VYPXOff4JTzN2qPY8Yae2VPV/26yH3ySi5r8WS+yQ797VPcPrqq6+atSbD0uObi+9r3X9Na54lpTbHv3PRhBUNVq2xaCxt7Y/vj/u1xtbm6xlL7veNxdZ6f93Sep9xHhqcAABmWoveLK0TwzhBi5PU1iJ96YRg76J/hJMjuU/k/lR2rKX54njLbnBaUo7zcjGqlc+exzDKc9wzltzvG5P75Iq5l/oVdaVVc7LU65Xs+rX3OekZS+73jcl9Ivf7xmI7un4VdR2LrZXPEY/Re2si9/vG5H57LHu+sJR7vdYKe35ov0XrGtEoa68zv5fkft+Y3Cej516uHc/rRThrg9O9cxelPkPt7du3zffXLa33GOehwQkAYKa16M2ydPGqtUAHjhPHXesYzRZNVHGclwtSAI8qF7ZbNSdLqV3qF5Ap6ld8OkGr7hyh1DLnW8AWZa0V9vzQfovWNSJrL6BlXiuKszY4tf5sGPTSeh9zHhqcAABmWiddWeK3dOJCO/D8WsfoEeI38FrxAR7RqjeZ1C7gKK2acyT1DNirVVOyRRx1CtirVVeyHN3g1NoPPbTex5yHBicAgJnWojdLNDi19gPX5aINcEZqF3AV6hkwOnUKGJEGJ66q9T7mPDQ4AQDMtBa9WTQ4wcvjog1wRmoXcBXqGTA6dQoYUUaDU9S3lm+//RYe9vbt2+b7K7x582Zxf+t9zHlocAIAmGmdjGVqLayB/lrH5xFasQEe0ao12VpxAR7RqjU9tHIBuEerphyhFRvgHq2akuXeBqf4M5ut+9f51V/Hn9ZrzQNbRZNTeV/NLR0fsb81F+ehwQkAYKa18AUAAAAAgJdAgxOj0+D0MmlwAgCYaS18AQAAAADgJdDgxOg0OL1MGpwAAGZaC98sr1+/bu4HrmvphBpgZGoXcBXqGTA6dQoYkQYnRqfB6WXS4AQAMNNa+GbR4AQvj4vVwBmpXcBVqGfA6NQpYEQanBidBqeXSYMTAMBMa+GbRYMTvDwuVgNnpHYBV6GeAaNTp4ARaXBidBqcXiYNTgAAM62Fb6ZYRAPPr3V8HqEVG+ARrVqTrRUX4BGtWtNDKxeAe7RqyhFasQHu0aopWTQ4MToNTi+TBicAgJnWwhcAAAAAAF6CkRqcvv/+e/iZt2/f/vS+mtPgdF0anAAAZloL30yxiAaeX+v4PEIrNsAjWrUmWysuwKNa9eZorTwA7tWqK9lacQHu0aopWUZpcIpGltj++c9//szf//735v7www8/NPeHtbGlOffOtzSWnV/IjrVnLPs1WbtPbOV9Nbd0fMT+1vuM89DgBAAw01r4Znn9+nVzP3BdR19wAjiC2gVchXoGjE6dAkbUq8Hpiy++ePeb3/zm3S9+8Yu7xPfGfeK+f/zjH9/99a9/fTJf8fvf/765P74/7tcai8e89LizY50597VYPXPX4PQyaXACAJhpLXyzaHCCl8fFauCM1C7gKtQzYHTqFDCipYaTuUcbnLY0NxX//u///j6/aH4JpUGmFo02rf1haWxtvp6x5H7fmAanl0mDEwDATGvhmyUanGIRDTy/1jF6hDdv3jTjA+zVqjXZWnEBHtWqN0dr5QFwr1ZdyeacEdirVVOyRANJ69r53KMNTq0GpntEfj2babJjnTn3PbGy5wsanF4mDU4AADOthW+WWKiXOPH3w8vfirbZbP22OPaOPtaLctEmYtpsNlvG9o9//OPwGlZfcFa/bDZb1hbnPvHnJVp15wjxQ4+oY865bDbblq2stULUkVZ9yTJfc6lXNpttyxZ146uvvmrWlwxlLXXLczU4xX3jWnuvP72WHevMua/F6pl7bOV9NafB6bo0OAEAzLQWvlnqxXi5eFXHLvYu6nudQGTPF+Q+kfskO/e4WF0uWMcFldZxmqW+YFPHndvzGHs+Zz1jyX0i98lVc1+LtTRfvXZo1Z0s9ePMrl+jPP9yn8h9ctXc12L1zD22+LdVd7LV+ZW4c16fp+Q+kfukZ+5LsXrmPr9OE3O3akyWOr9RrhFlzyf3yVVzX4sl90l27uU87WoNTvUWt//85z//961pK98bz008d/Fvy56x7PlCr1jZ84VesfbOF1t5X81pcLouDU4AADOthe+aWBS3fPbZZ+8++uijn066bvn1r3/97g9/+MNPJ69xEhlfz62NxYK/tT++P+7XGtsTK3u+IPfbY9nzhZeW+9u3b3/6QX18X+uYXtI6zoujjvelx9jzORslltzvG5P75Iq5f/vtt7sbnFq1K/SuX3ufk56x5H7fmNwncr9vLLbM+hUeqWFHPEbvrYnc7xuT++2x7PnCUu71Wuss54x7Hmd8/57n9MzvL7nfNyb3yei5l+tbWxucWvVpSdTEUg/XZDU4xfbNN988qYWlwem3v/3te7HFvhiL5yH7eV0by4515tzXxnrmHlt5X83V77n5/vr9x/locAIAqMRvzM0XvHtvv3r16skJ2T0+/PDD94v2ECcD5eva0v6QPTb6fKFXrOz5Qq9Y2fOFXrGy56sbnOJCzdLx21KPz793y4Xqohzv2Y8xe77QK1b2fKFXrOz5Qq9Y2fOFXrGy5wsjx4oLx/FDt63rlbl6/JH1ygjPSRhhvtArVvZ8oVes7PlCr1jZ84Urxlq7T2yxBltbU229/cgaLGQ/xuyx0ecLvWJlzxd6xcqeL/SKlT1f6BVrz33KWqtcI7p1znjrdu2oerXncYZe84VesbLnC71iZc8Xrhgre77QK1b2fOX61l/+8pdmzSnqurS1hkVNLPVwTUaDU+yLLZqY6jpYNzh9+umn77+Of2Ms7hvPRTS61PMV8dy19sf3x/1aY9FIE1pj2bHOnPtarJ65x1beV3Pz93O9vzUX56HBCQCgktngVJ+MbRF57F3U9zqBOOKERO4TuU+yc4+LP0c0OLWO5XtEHnseY8/nrGcsuU/kPrlq7muxluYrf7oks8GpVZvuEfmc+fmX+0Tuk6vmvharZ+6xxb9ra6qtt1v16R6Rh9fnKblP5D7pmftSrJ65l7VWuZ3Z4NSqRfeIPLIf59pzmj2f3CdXzX0tltwn2bmX61tXaXAqjUw//vjj+39jq/eX7bvvvvupPsbzxssWW3lfzc3fz/X++v3H+WhwAgCojNDgFCeusUCPf1uyx0afL/SKlT1f6BUre77QK1b2fGFp7M2bN0M1OEVOex5H9vMSrhgre77QK1b2fKFXrOz5Qq9Y2fOFzFjlUwVGaHCKfEZ4TsIIsbLnC71iZc8XesXKni/0ipU9X+gVa+98scUabG1NtfV2qz7do+SU/Rj3jI0+X+gVK3u+0CtW9nyhV6zs+UKvWNnzlbVWuUY0QoNT5JX9OMPS2OjzhV6xsucLvWJlzxd6xcqeL/SKlT1fWBor17eu1uA0/1N09f74vmiAKn/GLu4bz0WvprfsWGfOfS1Wz9xjK++rufn7ud7fmovz0OAEAFA5qsEpTrxiKydj898+ia18byzYY0FfFu9zsT/GW2NxAtHavzbfnljZ8wW5T5ZiZc8XXlru5Tfc4ng/osGp3uI4v+d4z36M2fP1jCX3+8bkPjlz7mtjS/NF3Tqiwal81H/Zykf+965fa2PZseR+35jcJ9mv4yixeuYeW6zB1tZUW2+XmlTEFj/4iq8fOefa+xjP/PrIfSL3Sc/cl2JlzxeWci9rrXKN6IgGp3rLqFd7HmfP+eQ+uWrua2Nyn2TnXq5vXaXBqf7zc6XBKb6v1MdyTT228ilO5fkpz+1cPK+t/WFpbG2+nrHkft9YbOV9NTd/P9f76/cf56PBCQCgckSDU73NG5zidjlpi30xFnmURfo8vxAL+jiRbY3FSUJrf3x/3K81tidW9nxB7hO5T7JzP7LBKS7ClKaA0tR4z/G+5zH2fM56xpL7RO6Tq+a+FmtpvlinHP0JTvGDtnLB+Ij6NcrzL/eJ3CdXzX0tVs/cY4t/19ZUW2/X9avUrHnDwFIN8/o8JfeJ3Cc9c1+K1TP3stYqt49qcCrnjcWtepX9ONee0+z55D65au5rseQ+yc79ag1OdS2MrXxKU72vbOX747mO564873NLY/Gchq1j2bHOnPueWNnzhdjK+2pu/n6u99fvP85HgxMAQOWIBqf6ZCwuVM1v17+hEmOxaAeO0etP1C01ODnegUe8fv26S4PT/GKy+gVkiC3WYGtrqq23S+0qDQFRw1oNTmoYcI+y1irXiLIbnEqtKrWoUK+Ara72J+r2iPtGU0yvprfsWGfOfS1Wz9xjK++rufn7ud7fmovz0OAEAFDp3eBUtvJJCSHy2Luo73UCccQJidwncp9k515+wy2+PqrBqRzf8W99u2zz433PY+z5nPWMJfeJ3CdXzX0t1tJ85VMFjmhwitoUW2luCkfUr1Gef7lP5D65au5rsXrmHlv8u7am2nq71KSoT1Gz4t95g1PZ5jXM6/OU3Cdyn/TMfSlWz9zLWqvcPqrBqWz3njNmP8615zR7PrlPrpr7Wiy5T7JzL9e3rtDg9G//9m8/1bx7ffjhh++fm3ju4t+WPWPZ84VesbLnC71i7Z0vtvK+mpu/n+v99fuP89HgBABQ6d3gVG7Xn5ZQTl7jhDi+nlsbiwV/a398f9yvNbYnVvZ8Qe63x7LnCy8t97dv3x7a4FQ+uan+jdxHjvelx9jzORslltzvG5P75Iq5R906+hOcWs0BmfVr73PSM5bc7xuT+0Tu943FFmuwtTXV1tulVpW6taWGHfEYvbcmcr9vTO63x7LnC0u5l7VWuUaU3eBUq2vUI2uuPY9z73N65veX3O8bk/tk9NzL9a0RGpwiz7jvXHzK1NLc9f2/+OKLdx9//PGTGrnmV7/61bs//OEP75+H7Od1bSw71plzXxvrmXts9fuqNn/P1fvr9x/no8EJAKDyXA1OsZXf0ItFe4iTgfJ1bWl/yB4bfb7QK1b2fKFXrOz5Qq9Y2fMd2eA0/1MCxa3jPfsxZs8XesXKni/0ipU9X+gVK3u+0CtW9nxh5FhxgfnoBqfSqBlf965fYetzEkaYL/SKlT1f6BUre77QK1b2fOGKsdbuE1uswdbWVFtvRz2KRoD5FrXskXOusOcxZo+NPl/oFSt7vtArVvZ8oVes7PlCr1h77lPWWuUa0ZENTlvWXCHzcYZe84VesbLnC71iZc8Xrhgre77QK1b2fCM1OIVoQKnve0t8itO9Io8ffvihOVaen6Wx1v74/qWxW/P1jNXaL/enYov37Vat9zDnocEJAKDSu8Gp3sr3Rh5xUhjm+YVY0MdvKLTGYsHf2h/fH/drje2JlT1fkPtE7pPs3OPiz1ENTq3jOo75W8f7nsfY8znrGUvuE7lPrpr7Wqyl+WKdckSD07xOlUbNI+rXKM+/3Cdyn1w197VYPXOPLf5dW1NtvV1qUhENAfNPcKq38n2Rh9fnKblP5D7pmftSrJ65l7VWuZ3d4FR+GFu2e9dc2Y9z7TnNnk/uk6vmvhZL7pPs3Mv1rVEanELUuPr+mWy21haNb633y5p4n7bev5yHBicAgMpRDU5bxIlrnNjGvy3ZY6PPF3rFyp4v9IqVPV/oFSt7vrA0Fh+PfVSD0x6R057Hkf28hCvGyp4v9IqVPV/oFSt7vtArVvZ8ITNWj09wulfkM8JzEkaIlT1f6BUre77QK1b2fKFXrOz5Qq9Ye+eLLdZga2uqrbdb9ekeJafsx7hnbPT5Qq9Y2fOFXrGy5wu9YmXPF3rFyp6v5yc43Svyyn6cYWls9PlCr1jZ84VesbLnC71iZc8XesXKni8sjZXrWyM1OIX6/rdEPOhNg9P5aXACAKhkNjh98MEHzYtTa+JviMdv58Rv+8TJanw9F/tjvDUWJ72t/Wvz7YmVPV+Q+2QpVvZ84aXlXn7DLY73zAanf/mXf2ke02vK8Z79GLPn6xlL7veNyX1y5tzXxpbmi7qV3eD0yHql53OSHUvu943JfXLm3NfGeuZ+RIPTv/7rvzbr1Jp7zrn2PsYzvz5yn8h90jP3pVjZ84Wl3Mtaq1wjymxweuScMftx9pxP7pOr5r42JvdJdu7l+tZoDU6RWz0HjEaD0/lpcAIAqGQ2OH3yySfvPvroo+ZFqpaPP/743RdffPE+jziBDfP8QjmxbY3FCXFrf3x/3K81tidW9nxB7hO5T7JzP6rB6Xe/+927V69eNY/tlvp43/MYez5nPWPJfSL3yVVzX4u1NF+sU7IbnB5Zr5z5+Zf7RO6Tq+a+Fqtn7kc0OH322We712Ben6fkPpH7pGfuS7F65l7WWuV2ZoPTI+eM2Y9z7TnNnk/uk6vmvhZL7pPs3EdtcArxHNTzwEiWjlHOQ4MTAEAls8GpdTvmr+PZbLb+WzkOMxucXr9+/eT2/CJQxLTZbLaMLS5ib12vzN36/nq9on7ZbLasrTQN1DXnVj3aeruuX0XEtdlstnu38gsxIbPB6dY5Y7DZbLYtW6x7RmxwCvc0OUU86G2p0ZDz0OAEAFDZ+gPDrbdbF9yB59GzwQkg09b1ytyt77deAY5U15xb9WjrbfULyNS7wQlgq1EbnIJPcmJEGpzOT4MTAEBFgxO8HBqcgLPS4AScWV1zbtWjrbfVLyCTBidgdCM3OIWvvvrqyZzw3DQ4nZ8GJwCAigYneDk0OAFnpcEJOLO65tyqR1tvq19AJg1OwOhGb3AKn3/++ZN54Tm13qOciwYnAICKBid4OTQ4AWelwQk4s7rm3KpHW2+rX0AmDU7A6M7Q4BSfmFPPC8+p9R7lXDQ4AQBUNDjBy6HBCTgrDU7AmdU151Y92npb/QIyaXACRneGBqegyYkRxKeJtd6fnIsGJwCAigYneDk0OAFnpcEJOLO65tyqR1tvq19AJg1OwOjO0uAU/vSnPz2ZP+JBT/7vvQYNTgAAld4NTv/4xz/e/fOf/wQ6Ksdh7wanVi4AW8XaYet6Ze7W98/XK608ALaK+hU1pa45t+rR1tvz+hWccwFblFoVejc4qVfAFrHuOVODU5g3Od3rzZs38DNr/++2+ASna9DgBABQ2foDw6236wvu8XU5GZ2Li2hxEtkai/0x3hqLC2at/Wvz7YmVPV+Q+2QpVvZ84aXlHheMywXr+L76+Jwfr3P1+Px7I5f6dsQvx3ooF6pbOWU/xuz5esaS+31jcp+cOfe1saX56lpS15xb64+5W98f8z9H/Voby44l9/vG5D45c+5rYz1zjy3qSl1zbtWjrbcjTqlfRWzzXMIRj/HMr4/cJ3Kf9Mx9KVb2fGEp97LuKfUj7l/XmK01qRYx69uRX12rIv4I14iy55P75Kq5r43JfZKde9SrcLYGp7C1ySny+uGHH5oNLrxssbXeM0vivdd6T3IuGpwAACpxglgveree+NW3P/nkk3cfffTRu1/84hd3+c1vfvPuiy++eJ9HLLaXFtx//OMf3//d8tbY73//++b++P64X2tsT6zs+YLcJ3KfZOdeLgDF13GhaOn4banH59/7u9/97t2rV6+ax3ZLfbzveYw9n7OeseQ+kfvkqrmvxVqaL9Yp2Q1Oj6xXzvz8y30i98lVc1+L1TP32OLftTXV1tufffbZ7jWY1+cpuU/kPumZ+1KsnrmXtVa5feuc8dbt2iPnjNmPc+05zZ5P7pOr5r4WS+6T7NzP3OAU4pN0Il6I9dyWc9L43rhPuX80iJWva0v7w977bL3frfvsma+1P9yab+ucPecLW+cLsbX2L4n/11vvR85FgxMAQCWzwWnLhasi7hMntcAx4rd7jmhw2nIhpnC8A1vFhb3sBifrFaCX2GINtram2nrbGgzIVNZa5RpRZoOTegVkKte3ztrgVIuGzlYNXPPhhx++b/6K5yL+bdkzlj1f6BUre77QK9be+cr5BS+LBicAgEpmg1Pr5OsekUfP3/jZEyt7viD3idwn2bmX33CLrzMbnFrH8j0ijz2Psedz1jOW3Cee98lVc1+LtTRf+VSBzAanVm26R+Rz5udf7hO5T66a+1qsnrmXH0Csram23m7Vp3tEHl6fp+Q+kfukZ+5LsXrmXtZa5XZmg1OrFt0j8sh+nGvPafZ8cp9cNfe1WHKfZOderm9docGpVfvuUZ6feM7j67l4Xlv74/vL67FlLDvWmXNfG+uZezm/4GXR4AQAUBmhwSkW52sL97Wx7JOppbHs+YLcb49lzxdeWu5v374dqsEpctrzGHs+Z6PEkvt9Y3KfXDH3qFujNDhFPj2fk56x5H7fmNwncr9vrPwAYm1NtfV2qz7dI/I54jF6b03kft+Y3G+PZc8XlnIva61yjWiEBqfIK/tx7n1Oz/z+kvt9Y3KfjJ57ub71khuc4r7l+ZnPGeJ5be2P74/7tcbiOQ+tsexYZ859LVbP3Mv5BS+LBicAgMpRDU7ffPPN+wX3b3/725/2xdf1Ft8T+2PRHuJkoHxdW9ofssdGny/0ipU9X+gVK3u+0CtW9nxHNzjV25///Oe7jvfsx5g9X+gVK3u+0CtW9nyhV6zs+UKvWNnzhZFjxQXmIxqcPv300/+uTv+1xe3nqF9h63MSRpgv9IqVPV/oFSt7vtArVvZ84Yqx1u4TW6zB1tZUW2+XWlXE9uOPP/50e+85V9jzGLPHRp8v9IqVPV/oFSt7vtArVvZ8oVesPfcpa61yjeiIBqd6y6hXex5n6DVf6BUre77QK1b2fOGKsbLnC71iZc931Qaneiv7lupjPDe8bLG13lNcmwYnAIDKEQ1O9RYnZLGv/CCxboAoIo+9v7UQC/vW/uzfkDjiNy7kPpH7JDv3uPhzVINTHNelKSAutsRW9se2dLzveYw9n7OeseQ+kfvkqrmvxVqaL9YpR3+CU/yg7bvvvnv/9RH1a5TnX+4TuU+umvtarJ65xxb/rq2ptt6u61LUqthKw8CtGub1eUruE7lPeua+FKtn7mWtVW4f1eBUzhuLW/Uq+3GuPafZ88l9ctXc12LJfZL9GpfrW1dqcIqtNC8VzkmfGiX3tVg9c4+ttZ9r0+AEAFA5osEplIvtpcEpfnBY/6ZeLRbzsXAPZXFfWxuLE4jW/rA0lh0re74g94ncJ3ty7/Un6uoGp0eO9xGes1Fiyf2+MblPrph71K0eDU7lovIR9Suc9fkPcp/IfSL3+8ZiizXY2ppq6+1Sk8pv9kfNKnXrVg0LXp+J3Cdyv29shFjZ85W1VrlGlN3gVGrVvMHpLNeIsufrGUvu943JfTJ67lf7BKfPP//8fX0s186LtfpYGmbi+Yiv5+K5a+2P74/7tcbW5usZS+73jcXWek9xbRqcAAAqvRqc4sQsTtDq7ynKYr8s3ufiJKG1PyyNrc23J1b2fEHuE7lPsnPv0eBUjvfy22W3jvfsx5g9X89Ycr9vTO6TM+e+J9ZRf6IuRJ2Krf6N2d71a89zEvbEkvt9Y3KfnDn3PbGy5wuxxRpsbU219XapSVGrYu0V/5Yfgj1yzrX3MZ759ZH7RO6Tl5b70X+irjQ4le3ec8bsx9lzvp6x5H7f2AixsucLLy33qzU4lWtpUQ/LFvvX6mM8N/HcledpLnts9PnCFWOt3Se21nuKa9PgBABQGeETnCKPcrI6zy/E4j1+Q6E1Fgv+1v74/rhfa2xPrOz5gtwncp9k5x4Xf45scCqf3FT/Ru6t433PY+z5nPWMJfeJ3CdXzX0t1tJ8sU45+hOc6pp1RP0a5fmX+0Tuk6vmvharZ+6xxb9ra6qtt6MexblWq27dqmFen6fkPpH7pGfuS7F65l7WWuV2doNTrb5OdKteZT/Otec0ez65T66a+1osuU+ycy/Xt67W4BQ1sTSDxj7npE+NkvtarJ65x9baz7VpcAIAqPRqcCofuxv76+8LcRIAHOPNmzeHNThFU1Ns8z834HgHsrx+/frwBqf6T2yqX0Cm2GINtram2no76lH80Gu+RS1Tw4CtylqrXCM6ssHJmgt4RLm+dZUGp/qaWmlwitq4Vh+j8SWei/i3Zc9Y9nyhV6zs+UKvWHvni631nuLaNDgBAFR6NTiFcoJWtvInYSKPvb+1EAv+1v7s35A44jcu5D6R+yQ79/IbbvF1doNTOc7rbd7UWLb6eN/zGHs+Zz1jyX0i98lVc1+LtTRf+VSB7Aanef2qGzWz69coz7/cJ3KfXDX3tVg9c48t/l1bU229XWpVMf8t/7Ua5vV5Su4TuU965r4Uq2fuZa1Vbmc3OM1r0r1rruzHufacZs8n98lVc1+LJfdJdu7l+tZVGpxCfV5aauBafSzPTzzn8fVcPK+t/fH95fXYMpYd68y5r431zD221nuKa9PgBABQOarBaYtYnK8t3NfGsk+mlsay5wtyvz2WPV94abm/ffv2sAanPSKnPY+x53M2Siy53zcm98kVc4+6dfQnON0r8un5nPSMJff7xuQ+kft9Y+UHEGtrqq23W/XpHpHPEY/Re2si9/vG5H57LHu+sJR7WWuVa0TZDU57RF7Zj3Pvc3rm95fc7xuT+2T03Mv1rSs1OG0V9y3Pz3zOEM9ra398f9yvNRbPeWiNZcc6c+5rsXrmXs4veFk0OAEAVOIHhnEyV8TH/da3//a3vz25HeoTv9oHH3zQPPla8+GHH75ftIc4GShf15b2h+yx0ecLvWJlzxd6xcqeL/SKlT3fvMFpfjzfUo7v+uvwL//yL81jek053rMfY/Z8oVes7PlCr1jZ84VesbLnC71iZc8XRo4VF5hLg1Ndm+brlfntUNes2iPrlRGekzDCfKFXrOz5Qq9Y2fOFXrGy5wtXjLV2n/IDiPqc6lb9itt1zYp99e2jzrnCnseYPTb6fKFXrOz5Qq9Y2fOFXrGy5wu9Yu25T1lrlWtEj5wzzj1yzhgyH2foNd/anHKfZL+OwfP02Njo85XrW1999VWzFhXzdVddl2Lf2u1eDU7/9m//1qyBa375y1++f2542cr5BS+LBicAgJn6RO4Rn3zyybtXr141T8JaPv7443dffPHF+xz2/tZCLOxb+7N/Q+KI37iQ+0Tuk+zc4+JPaXCKj7huHbt7PHK873mMPZ+znrHkPpH75Kq5r8Vamq/+symtWrRH7/o1yvMv94ncJ1fNfS1Wz9zLDyBatWivR2qY1+cpuU/kPumZ+1KsnrnXa60Qc7dqzx5nuUaUPZ/cJ1fNfS2W3CfZuZfrW9Hg1Ko5GZYeS7aodVHzWrWwxTnp8+e+Fqtn7uX8gpdFgxMAwEzrhC5LvVCPC2exlRPSWvwWTvlNnC1j8Zs4rf1haSw7VvZ8Qe4TuU/25B4Xq+PfOAYzG5yWlBPwOvbcnse4dp8984XRY8n9vjG5T66ae3aDU0u9Xikx53mEns9Jz1hyv29M7hO53zcW29H1q6jrWGytfILXZyL3idzvGxshVvZ84agGp5azXSPKnq9nLLnfNyb3yei5l3O0KzQ43VKaT+PfufiUqfi0vdbY69evm/vj++N+rbG1+XrGkvt9Y7G13jNcmwYnAICZ1gldljgxrBfh5YQU6Kccf61j9AglXisXgK1i7XD0eiUaQEvtUr+ALFG/ovm7VXeOELUs4jnnAraImlHWQPFD1VZ9yVKaB0o89QrYIurGS2hwCuojLfG+aL1fuDYNTgAAM60TuizxGwyt/cB1ffnll839ACNTu4CrUM+A0alTwIhGanACKDQ4AQDMtE7osmhwgpfHxWrgjNQu4CrUM2B06hQwIg1OwIg0OAEAzLRO6LJEg1NcuAKeX+sYPcKbN2+a8QH2atWabK24AI9q1ZujtfIAuFerrmRzzgjs1aopWTQ4ASPS4AQAMNM6oQMAAAAAgJdAgxMwIg1OAAAzrRM6AAAAAAB4CTQ4ASPS4AQAMNM6ocvU+jhhoL/W8XmEVmyAR7RqTbZWXIBHterN0Vp5ANyrVVeyteIC3KNVU7JocAJGpMEJAGCmdUKX5fXr1839wHUdfcEJ4AhqF3AV6hkwOnUKGJEGJ2BEGpwAAGZaJ3RZNDjBy+NiNXBGahdwFeoZMDp1ChiRBidgRBqcAABmWid0WaLBKS5cAc+vdYwe4c2bN834AHu1ak22VlyAR7XqzdFaeQDcq1VXsjlnBPZq1ZQsGpyAEWlwAgCYaZ3QAQAAAADAS6DBCRiRBicAgJnWCR0AAAAAALwEGpyAEWlwAgCYaZ3QZbn1J+qOGK/33RpvMZ4/Xu+7Nd5ifPt4vS++bh2fR5nHb3mJ4/W+W+MtxreP1/seHW8xvn283ndrvNaqNdniT6XseUy1M47X+26NtxjfPl7ve3S8xfj28XrfrfGWpfFWrelh/qef9uZfHDFe73t0vMX49vF636PjLcZ/Pl7ve3S8Zc94q6YcYSl+7TnG632PjrcY3z5e73t0vMX4z8frfY+Otzw63qopWTQ4ASPS4AQAMNM6ocsSJ6Wt/cB1HX3BCeAIahdwFeoZMDp1ChjRvMHpH//4B5zO999//+R9zPlpcAIAmGmd0GXR4AQvj4vVwBmpXcBVqGfA6NQpYER1g1M0ivzzn//8WfNIiOvd3377bXPs97//fXP/27dv3/3xj39sjn399dfvtcb2xMqer2fua7HkPlnLPTZNTteiwQkAYKZ1QpclFu9x4Qp4fq1j9AjzP4sC8KjPP/+8WW8yteICPKpH/Zpr5QFwr1ZdyRR10TkjsNeRa6t5g1Oor6EX0XTy17/+tTkWzSqt/fH9cb/WWMRd+vN4e2Jlz9cz97VYcp+s5R6NeRqcrkWDEwDATOuELku9CI+FdWyxyG754YcfNu0Pf//735v7w9r99sQaYb6w9JizY2XnF5buN/rrGHrFyp4vlAsyrWM0Wzm5Xjvesx9j9nxh9ONsz9hLPM56vY5haWxPfmHPfNlj2e+ZsOc16VHD4iL5PeuVI56TpbFR5hvhfZqdX9gTa8/YKMfRnrHs/EJ2rD1jPd8zIX4w0ao7RyjrsKUaFkZ4zoL38e2x7PzCnlgjzBeu+J4Z5XWsf4AfdaRVX7Lcu+YKXvPbY3tzHyFW9nxhz3tm9NckO7+wNDbKfGuPOerVV1991awvGeqGkYhVPkFnLhpSWvvDnrHR5wtXjJU9X+gVa+0+cXxpcLoWDU4AADOtE7qtPvnkk3evXr1694tf/GKT3/zmN++++OKL9yeQ9UlkLRbmvX7DYSlW9nxB7hO5T7Jzjwsy5YJ11m+5PXq873mMPZ+znrHkPpH75Kq5r8Vami8uysWF7Pi6VY+2eo76NcrzL/eJ3CdXzX0tVs/cY4t/W/Voj0drmNfnKblP5D7pmftSrJ6512utEHO36s9WZ7pGlD2f3CdXzX0tltwn2bmX61u9G5wip7nIMb63NRaPrbU/vr88J1vGsmPJ/b6xM+ce/69rcLoWDU4AADOtE7ol848RL7c/+uij5sWpe3z44YfvF/KxKG/JHht9vtArVvZ8oVes7PlCr1jZ84WlsThGS4NTnPzWx3Mcu/XtufpYrz3H8Z79vIQrxsqeL/SKlT1f6BUre77QK1b2fCEz1tdff72rwWlet0Zdr2TPF3rFyp4v9IqVPV/oFSt7vtArVvZ8oVesvfPtaXCa169Q/uz3ozUscsp+jHvGRp8v9IqVPV/oFSt7vtArVvZ8oVes7PnqtdY954yt2y2uEf18fxg9VvZ8oVes7PlCr1jZ84VesbLnC0tj5frWX/7ylyd16JZ5fSrrqpaogaUeloaqVgNJ5BPf2xqL/Fv71xpS1ubbEyt7vp65740l94kGp+vR4AQAUInF7vykb8/t1kWpLXqeAOyJlT1fkPtkKVb2fOGl5V4uyMTx/u233zaP3yX1eP116xjeIvsxZs/XM5bc7xuT++TMua+NLc0XdatcnCs1aF6TWrfnynirJm3R8znJjiX3+8bkPjlz7mtjPXMvDU5La6qtt1t1aYsjHuOZXx+5T+Q+6Zn7Uqzs+cJS7mWtVa4R3TpnvHW7aNWgLbIfZ8/55D65au5rY3KfZOderm/danCq69LWGhZNn6UeRqxoqop85iL/1v6QPTb6fKFXrOz5Qq9Y2fOFpTF/ou56NDgBAFRGanAKrRxjYR4nsq2xWMi39sf3x/1aY3tiZc8X5D6R+yQ791EbnLY+xp7PWc9Ycp/IfXLV3NdiLc0X65TRGpzO+vzLfSL3yVVzX4vVM/fRGpy8Pk/JfSL3Sc/cl2L1zL2stcrtkRqcMh/n2nOaPZ/cJ1fNfS2W3CfZuT9Hg1O5njbX83XZE6vn69Izltwna7n7BKfr0eAEAFA5osHpt7/97fuL+d98881P++bbd9999+Q+sZAH8tV/oi67wenPf/7zfx/R/7WV/fPN8Q7sFX8+4IgGp6hLZatr1HxTv4BHxBZrsKU11dbbdT0KZS32+eefv78939Qw4Jay1irXiLIbnObnjOoVsNe9f6Kurktba9i8went27c/NZLUoukktMYi19b+sDS2Nt+eWNnzhdFjyX2iwel6NDgBAFSyG5zqi1fzBqdyuzRA1RewygK8lWMs1nv9hsNSrOz5gtwncp9k517/xtkRDU71MV1ux7Z2vO95jD2fs56x5D6R++Squa/FWpov1ilHNDgV8UO22D799NP3t2PLrl+jPP9yn8h9ctXc12L1zD22+HdpTbX1dqlFRdnqhoG1Gub1eUruE7lPeua+FKtn7mWtVW4f0eA0b14KsY1yjSh7PrlPrpr7Wiy5T7JzL9e3Rmhwivxb+8PSWDyusHUsO5bc7xs7c+7+RN31aHACAKhkNzgVsZWLVa3bpREqLmTF7bIgjxPZubWxOAFo7Y/vj/u1xvbEyp4vyP32WPZ84aXlHhdjjmpwKsoF6VaDU9hyvC89xp7P2Six5H7fmNwnV8w96laPBqdSn2LLrl97n5OeseR+35jcJ3K/byy2WIMtram23i61KUSt+vHHH9/HaDU4hXkNO+Ixem9N5H7fmNxvj2XPF5ZyL2utco0ou8EpatKtBqcw6jWiM7+/5H7fmNwno+derm/5E3WTpVjZ8/XMfS2W3CdrufsEp+vR4AQAUHmuBqf5DxRjsR6L+fh3bml/yB4bfb7QK1b2fKFXrOz5Qq9Y2fP1aHAqW3177XjPfozZ84VesbLnC71iZc8XesXKni/0ipU9Xxg5VlxgPqLBKT6xqWylNoXYetavsPU5CSPMF3rFyp4v9IqVPV/oFSt7vnDFWGv3iS3WYEtrqq23S20qNaz8u9TgtOWcK+x5jNljo88XesXKni/0ipU9X+gVK3u+0CvWnvuUtVa5RnREg1O9lf2xjXKNKHu+0CtW9nyhV6zs+cIVY2XPF3rFyp4vs8Hpk08+effq1aufatC9Pvzww3f/8R//kf7YRp8vXDFW9nyhV6y1+/gEp+vR4AQAUHmuBqfy23nlds/fmNgTK3u+IPeJ3CfZude/cZbd4BQXn2Ob/0ZubGvH+57H2PM56xlL7hO5T66a+1qspflinXLkJzjdag7IqF+jPP9yn8h9svYaZ8/X8z2zFqtn7rHFv0trqq23Sy2KLerW1hrm9XlK7hO5T3rmvhSrZ+5lrVVuZzc41WIrNar+OjznNaLs+eQ+uWrua7HkPsnOvVzfymhw2tPcVPz6179+n2M87sh3Lh5ba398f3lOtoxlx5L7fWNnzt0nOF2PBicAgMpzNDiVpoh6PBbysShvyR4bfb7QK1b2fKFXrOz5Qq9Y2fOFpbE3b94c1uAUjU23/txA1vGe/byEK8bKni/0ipU9X+gVK3u+0CtW9nwhM9ZRn+BUlBoVP1SL27H1XK9kzxd6xcqeL/SKlT1f6BUre77QK1b2fKFXrL3zxRZrsKU11dbbUYfKp5zMt3nNatWwyCn7Me4ZG32+0CtW9nyhV6zs+UKvWNnzhV6xsuc7+hOciudec4WlsdHnC71iZc8XesXKni/0ipU9X+gVK3u+sDRWrm9lNDiVWrNX5BONJKV21iL/1v74/rhfayyaVUJrbE+s7Pl65r4WS+6Ttdw1OF2PBicAgErPBqd6Kxe1iliQl4X+XOyP8dZYnAC09q/NtydW9nxB7pOlWNnzhZeWe/kNtzjesxuc5ls55ufb/HjPfozZ8/WMJff7xuQ+OXPua2NL80XdOqLBqd7qRs35dnT9WhvLjiX3+8bkPjlz7mtjPXOPLdZgS2uqrbfrehRan+BUb1vOufY+xjO/PnKfyH3SM/elWNnzhaXcy1qrXCPKbnD68ccf/7sibVtzZT/OnvPJfXLV3NfG5D7Jzr1c3xqhwSnyh1H5E3XXo8EJAKByVIPTVnECG1o5lhPb1lgs2lv74/vjfq2xPbGy5wtyn8h9kp37kQ1Oe+15jD2fs56x5D6R++Squa/FWpov1ilHfoLTVmd+/uU+kfvkqrmvxeqZe2zx79KaauvtVl3awuvzlNwncp/0zH0pVs/cy1qr3M5ucNor+3GuPafZ88l9ctXc12LJfZKd+1ENTtFgWbbSbDnf5p9e3vN12ROr5+vSM5bcJ2u5+wSn69HgBABQyWpw+uCDD56c6G3xy1/+8v1CHsh3xJ+oc7wDvbx+/Tq1wUn9AnqKLdZgS2uqrbfVMCBbWWuVa0RZDU7qFZDtiD9RV5qb4k9l1nUotvmf0aybnKLpJJQmk1rk2toflsbW5tsTK3u+MHosuU80OF2PBicAgEpWg9Mnn3zy7tWrVz+d6N3r448/fvfFF1/8tABv5RiL9V6/4bAUK3u+IPeJ3CfZuZffcIuvsxqc4nj/H//jfzSP6TXleN/zGHs+Zz1jyX0i98lVc1+LtTRfrFMyG5weXa+c+fmX+0Tuk6vmvharZ+6xxb9La6qtt6OGffTRR806tabUMK/PU3KfyH3SM/elWD1zL2utcjurwenRc8bsx7n2nGbPJ/fJVXNfiyX3SXbu5fpWZoNT/BnN0shUi63eP2+EivzLY59bGovHFbaOZceS+31jZ87dn6i7Hg1OAACVrAanpdv1YrpcOIt/577++uv3F9K2jsVvG7b2x/fH/Vpje2Jlzxfkfnsse77w0nKPYy67wSlELvXtiF+O9VAuPLVy2vMYez5no8SS+31jcp9cMfeoI5kNTku3Y/6j6tfe56RnLLnfNyb3idzvG4st6kpdc27Vo623I06pX0Vs81zCEY/Re2si9/vG5H57LHu+sJR7WWuV+hH3r2vM1ppUi5j17civrlURf/RrRGd+f8n9vjG5T0bPvVzfymxwii2anMpW/4m6usHp888/f7+vNDhFY0mvxrM9sbLn65n7Wiy5T9ZyL/+3tsY4Jw1OAACVWOy2TvSybs8X0+XiGdBPOf7iQlF9fM6P17l6fP69cTGqvh0XoOpjvVx8AnhUaTaqa86t9cfcre+v1yvqF5Al6lfUlbrm3KpHW2/Pz7eCcy5gi1Krwq1zxlu3a7fOGYN6BWwRdSO7wak0MsW/sc33h/IJTuV2NKRE40nLnrHR5wtXjJU9X+gVa+0+PsHpejQ4AQBUtv7AcOtti2kYR88GJ4BMW9crc7e+33oFOFJdc27Vo6231S8gU+8GJ4CtMhucvvvuu/fi62hoik9ziq9jKw1O8alN9e0QTSTx6TnxCTtz0XjS2h/fH/fbOpYdS+73jZ0592gGdI5wLRqcAAAqW39guPW2xTSMQ4MTcFZb1ytzt77fegU4Ul1zbtWjrbfVLyCTBidgdJkNTqHeyp+gm2/lT9cVpbGklV80q7T2x/fH/Vpj0awSWmN7YmXP1zP3tVhyn6zlrsHpejQ4AQBUtv7AcOtti2kYhwYn4Ky2rlfmbn2/9QpwpLrm3KpHW2+rX0AmDU7A6LIbnPaIhhQYlT9Rdz0anAAAKlt/YLj1tsU0jEODE3BWW9crc7e+33oFOFJdc27Vo6231S8gkwYnYHQZDU4ffPBBs3HpHh9//HHXT+PZEyt7vp65r8WS+2Qtd5/gdD0anAAAKlt/YLj1tsU0jEODE3BWW9crc7e+33oFOFJdc27Vo6231S8gkwYnYHQZDU6ffPLJu1evXjUbmNb86le/eveHP/zhfdNJNJdEA8pcNKu09sf3lyaXubX59sTKnq9n7ntjyX2iwel6NDgBAFS2/sBw622LaRiHBifgrLauV+Zufb/1CnCkuubcqkdbb6tfQCYNTsDoMhqclm7Xdeof//jHuzdv3rxvJJmLhpTW/pA9Nvp8oVes7PlCr1jZ84WlMX+i7no0OAEAVLb+wHDr7XoxHV/HbxDYbLa+WzkOezY4RUybzWbL2OLC8tb1ytyt75+vV2w2my1ji3OfqCt1zblVj7berutX4ZzLZrNt2WKtVepHzwanqF/qlc1m27JF3ejZ4FTXx1o0kcQn5bTGoumktT++P+7XGotP4gmtsT2xsufrmftaLLlP1nL3CU7Xo8EJAKASi936RG7rid+t2/Viuly8quMXPU8o9sTKni/IfSL3SXbu9QWZng1O2ReCej5nPWPJfSL3yVVzX4u1NF9ZO2xdr8zd+v56vZJdv0Z5/uU+kfvkqrmvxeqZe2zxb11zbtWjrbfr+jWPO+f1eUruE7lPeua+FKtn7vPrNM/R4FTvK7If59pzmj2f3CdXzX0tltwn2bmX87SeDU5v3759n89c5N/aH/aMjT5fuGKs7PlCr1hr9/EJTtejwQkAoBKL3fpEbuuJX307/n75Rx991Pwb5S2//vWv3//d8nLyGifE8fXc2lgs5lv74/vjfq2xPbGy5wtyvz2WPV94abnHxZjyg/rMBqff/e537169etU8tlvuPd6XHmPP52yUWHK/b0zukyvmHnUru8HpqPWK9859Y3KfyP2+sTPnXhqN1tZUW29/9tlnu9dgRzxG762J3O8bk/vtsez5wlLuZa1VrhFlNjgddc6453HufU7P/P6S+31jcp+Mnnu5vtW7wamVS/ZjWxvLjiX3+8bOnHu5hlLey5yfBicAgEpmg9OWC1fFhx9++H4xHmIxX76uLe0P2WOjzxd6xcqeL/SKlT1f6BUre76jGpy2NAcU5XjPfozZ84VesbLnC71iZc8XesXKni/0ipU9Xxg5Vlxgzm5wemS9MsJzEkaYL/SKlT1f6BUre77QK1b2fOGKsdbuc0SD0yNrsJD9GLPHRp8v9IqVPV/oFSt7vtArVvZ8oVesPfcpa61yjSizwemoerXncYZe84VesbLnC71iZc8Xrhgre77QK1b2fM/R4FSup81FPtFI0hqL/Fv74/vjfq2xaFYJrbE9sbLn65n7Wiy5T9aedw1O16PBCQCgktng1Lo4dY/Io+fJ0J5Yo5wMyX0i98larPqCTGaDU+tYvkfksecx9nzOesaS+0Tuk6vmvhZrab5Yp2Q3OLVq0z0inzM//3KfyH1y1dzXYvXM/YgGp1Z9ukfk4fV5Su4TuU965r4Uq2fuZa1Vbmc2OLVq0T0ij+zHufacZs8n98lVc1+LJfdJdu7l+lbPBqc3b968zxXOxJ+oux4NTgAAlREanOJEOE5eQzkxrq2NxaK9tT8sjWXHyp4vyH0i98me3I/6BKfWsXyPyGnPY1y7z575wuix5H7fmNwnV8w96tYoDU6RT8/npGcsud83JveJ3O8bG6nBqeTk9ZnIfSL3+8ZGiJU9X1lrlWtEIzQ4RV7ZjzPseU6z5+sZS+73jcl9MnruPsHp52NLsbLn65n7Wiy5T9Zy9wlO16PBCQCgclSD029/+9v3F/S/+eabn/bNt/ie2B+L8Vish7I4r8Uiv7U/LI2tzbcnVvZ8Qe4TuU+ycz+6wenPf/7zfx/R/7Xdc7xnP8bs+XrGkvt9Y3KfnDn3PbGO+BN1pU599913/12h3r3/+jnq157nJOyJJff7xuQ+OXPue2JlzxdiizXY2ppq6+1Sq4qyFvv888/f355v955z7X2MZ3595D6R++Sl5X7kn6ib16myPVqvsl+j7Pl6xpL7fWMjxMqeL7y03J+rwSmaTOZKjq2xeGyt/fH9cb/W2Np8e2Jlz9cz972x5D7R4HQ9GpwAACpHNDjVF6/mDU717SLyiAV5mOcXykK+NRYnAK398f1xv9bYnljZ8wW5T+Q+yc69XJCJr49qcIp/42J0bOV2bEvH+57H2PM56xlL7hPP++Squa/FWpov1ilHNTgV8UO22D799NP3t2PLrF+jPP9yn8h9ctXc12L1zD22+HdtTbX19rw2la1uGFiqYV6fp+Q+kfukZ+5LsXrmXtZa5fZRDU51M3mxVq+yH+fac5o9n9wnV819LZbcJ9m5l+tbvf9EXeQzF/m39ofssdHnC71iZc8XesXKni8sjfkTddejwQkAoHJEg1Mxv1g1v13EwrvnIn/0+UKvWNnzhV6xsucLvWJlzxeWxuJizJENTsW9DU6R057Hkf28hCvGyp4v9IqVPV/oFSt7vtArVvZ8ITPWkZ/gVJQGp/KpAbH1Wq9kzxd6xcqeL/SKlT1f6BUre77QK1b2fKFXrL3zxRZrsLU11dbbdV2KWvXjjz++j3OrwanklP0Y94yNPl/oFSt7vtArVvZ8oVes7PlCr1jZ8/X4BKeoSVsanCKv7McZlsZGny/0ipU9X+gVK3u+0CtW9nyhV6zs+cLSWLm+5U/UTZZi9Ww86xlL7pO13H2C0/VocAIAqPRucKq3sj8W67EgLwv9udgf462xOAFo7V+bb0+s7PmC3CdLsbLnCy8t9/qCzJENTmWb3y5b2R85ZT/G7Pl6xpL7fWNyn5w597Wxpfmibh3V4BSf2FS20twU5lvZH/n0fE6yY8n9vjG5T86c+9pYz9xjizXY2ppq6+1Sk0oNK/8u/cmnuoYd8RjP/PrIfSL3Sc/cl2JlzxeWci9rrXKN6KgGp3or++db2R95ZT/OnvPJfXLV3NfG5D7Jzr1c3+rZ4BT1scStRY7lT+bNxWNr7Y/6+vr16+ZYxA2tsT2xsue7lfv//t//uzmWHWvvfP/5n//ZHOv5PB3xvC/lrsHpejQ4AQBUejc4tX47L05SY5G/dNK7NhYnAK39e0+wl8ay5wtyvz2WPV94abmXk+c43uPEeOn4banH599bjt/yyU3z38iNbc/xvvQYez5no8SS+31jcp9cMfeoW0c1OBWt5oDM+rX3OekZS+73jcl9Ivf7xmKLNdjammrr7VKTYou6taWGHfEYvbcmcr9vTO63x7LnC0u5l7VWuUZ065zx1u3avA6FukbVX9cir+zHufc5PfP7S+73jcl9Mnru5fpWrwanUDeNwJnU72POT4MTAEBlhAanOHENcXJbvq4t7Q/ZY6PPF3rFyp4v9IqVPV/oFSt7vqMbnKKx6bn/3ED2fKFXrOz5Qq9Y2fOFXrGy5wu9YmXPF0aOFReYj25wOvpPbIbM5ySMMF/oFSt7vtArVvZ8oVes7PnCFWOt3Se2WIOtram23o56FM1Mra3Usz3nXGHPY8weG32+0CtW9nyhV6zs+UKvWNnzhV6x9tynrLXKNaIjG5y2rLlC5uMMveYLvWJlzxd6xcqeL1wxVvZ8oVes7Pmeo8EJYAQanAAAKr0bnOotfts49kce8Rs6YZ5fiJPY+E2d1lic9Lb2x/fH/Vpje2JlzxfkPpH7JDv3+jd3jmhwmm/lmJ9v9fG+5zH2fM56xpL7RO6Tq+a+FmtpvlinHNXgVG91o+Z8e7R+jfL8y30i98lVc1+L1TP32OLftTXV1tulVhWtT3Cqt7qGeX2ekvtE7pOeuS/F6pl7WWuV20c0OP3444//XZHuX3NlP8615zR7PrlPrpr7Wiy5T7JzL9e3jmxwitvlMcFZtY4fzk2DEwBA5cgGp3vFwjtOXsN8QX5rLE6IW/vD0lh2rOz5gtwncp/syf3oT3DaKnLa8xjX7rNnvjB6LLnfNyb3yRVzj7p19Cc43Svy6fmc9Iwl9/vG5D6R+31jscUabG1NtfV2qz7do+Tk9ZnIfSL3+8ZGiJU9X1lrlWtERzQ4bRV5ZT/OsOc5zZ6vZyy53zcm98nouff4BKe4/fr16yf74GzieCn/r3MNGpwAAGbi5G3JmzdvntxuLZqLDz74oHlxas1HH330ftGdfdK7Nt+eWNnzBblP5D7Jft7rBqf4txzLccGmPrbnynjrWA+PHO/ZjzF7vp6x5H7fmNwnZ859T6z6z6bUtWmurFdu1a4wUv3a85yEPbHkft+Y3Cdnzn1PrOz5Qmlwmp9Tzc1rW12z5rePOufa+xjP/PrIfSL3yUvLff4n6kY5Z8x+nD3n6xlL7veNjRAre77w0nIv17eiEXNej2pbrmXPx+N21LZ6H5xRHDPl/3bOT4MTAMBMaxG8xyeffPLu1atXzYtULR9//PG7L7744n0O5WR1nluIE9teH8e8FCt7viD3idwn2bnHxZ/S4BR/uqR17O7xyPG+5zH2fM56xpL7RO6Tq+a+FmtpvvrPprRq0R6969coz7/cJ3KfXDX3tVg9cy8NTq1atNcjNczr85TcJ3Kf9Mx9KVbP3Od/oi7mbtWePc5yjSh7PrlPrpr7Wiy5T7JzL9e3vvrqq2bNyRDXzW41d8Loyvt56djkfDQ4AQDM1Cdy2eqFdFw4iy0uns398MMPzf0he2z0+UKvWNnzhV6xsucLvWJlzxeWxmKLY+/oY70ox3xcdGrlE/Y8juznJVwxVvZ8oVes7PlCr1jZ84VesbLnC9mxSpNmq+Zkqdcr2fUrZD8nI8TKni/0ipU9X+gVK3u+0CtW9nyhV6y988UWP6hr1Z0jlFrWyqXIfox7xkafL/SKlT1f6BUre77QK1b2fKFXrOz5QllrhagjrfqSxTWisWNlzxd6xcqeL/SKlT1f6BUre76wNBZb1I0eDU6tMTijpSZDzkWDEwDATGvxmyVOCuMjz4v4mGCgrzj2Mj+96RbHO5CpVw2LP3mgfgGZonb1XIOFiBc/GGzlA9BS1j+hVVeyRZ2y5gL26FGnNDhxNa2fB3EuGpwAAGZaC98sTgrh5ak/DhngLNQu4CrUM2B06hQwKn+ijrObv6ejsbj1MyHOQ4MTAMDMfNGbSYMTvDytk2mA0aldwFWoZ8Do1ClgRNEIEn/SC86s9d6u/0Qs56PBCQBgprXozXLrt16OGK/33RpvMZ4/Xu+7Nd5ifPt4vS++bh2fR4mPDT/iMdXOOF7vuzXeYnz7eL3v0fEW49vH6323xmutWpMt4ux5TLUzjtf7bo23GN8+Xu97dLzF+Pbxet+t8Zal8Vat6WGex978iyPG632PjrcY3z5e73t0vMX4z8frfY+Ot+wZb9WUI4x6zljve3S8xfj28Xrfo+Mtxn8+Xu97dLzl0fFWTcnik264Ak1O16PBCQBgprXgBQAAAACAl2De4PT999/DKX311VfN97gmp3PS4AQAMNNa7AIAAAAAwEtQNzhFk0hs//znP3/mhx9+aO4Pf//735v7w9r9lsb23Cf0mi8sPebsWNn5haX7jf46hqWx2OL9G81Mrfd5fMJT/bMhxqfBCQBgprXQzXL0xxK3xut9t8ZbjOeP1/tujbcY3z5e74uvW8fnUebxW17ieL3v1niL8e3j9b5Hx1uMbx+v990ar7VqTbaX+uc16323xluMbx+v9z063mJ8+3i979Z4y9J4q9b0EPWszmNv/sUR4/W+R8dbjG8fr/c9Ot5i/Ofj9b5Hx1v2jLdqyhGW4teeY7ze9+h4i/Ht4/W+R8dbjP98vN736HjLo+OtmpKlbnD6xz/+8V59Db344x//uNgk8vvf/765P74/7tcai0aUpU/W2RMre76eua/FkvtkLfdocooGp/i69T4P8/swNg1OAAAzrUVuljgpbe0HruvoC04AR1C7gKtQz4DRqVPAiOYNTm/fvn3fYDIXDSmt/WHP2OjzhSvGyp4v9Iq1dp/4ZKfS4BRNULfe64xPgxMAwExrkZtFgxO8PC5WA2ekdgFXoZ4Bo1OngBG1GpziU3TmookkGkdaY9F40tof3x/32zqWHUvu942dOff6E5zCt99++/7/3Vr8zCbmKN/D2DQ4AQDMtE7osjz6scN7xut9t8ZbjOeP1/tujbcY3z5e74uvW8fnUV7qn3mqtcbrfbfGW4xvH6/3PTreYnz7eL3v1nitVWuyRZw9j6l2xvF6363xFuPbx+t9j463GN8+Xu+7Nd6yNN6qNT3M89ibf3HEeL3v0fEW49vH632PjrcY//l4ve/R8ZY9462acoRRzxnrfY+OtxjfPl7ve3S8xfjPx+t9j463PDreqilZ/Ik6f+atOHPu8wan+L7yHq+Poa+//vrJ/RiXBicAgJmyqAUAAAAAgJembhiJ5qZoxozmEziT+k/UBQ1O56fBCQBgpixqj1L/lg3wfFrH5xFasQEe0ao12VpxAR7VqjdHa+UBcK9WXcnWigtwj1ZNyTJvcPIJTv+lZ+5rseQ+WcvdJzhdjwYnAICZsqg9QnyscGs/cF1HX3ACOILaBVyFegaMTp0CRlQ3jJQGp2gymYumk/je1lg0q7T2x/eXJpe5tfn2xMqer2fue2PJfaLB6Xo0OAEAzJRF7RE0OMHL42I1cEZqF3AV6hkwOnUKGFE0gpTr5eVP1EUjyVw0pLT2h+yx0ecLvWJlzxd6xcqeLyyN+RN116PBCQBgpixqjxANTrFwBp5f6xg9QlwAasUH2KtVa7K14gI8qlVvjtbKA+BerbqSzTkjsFerpmSZNzj5E3X/pWfua7HkPlnL3Sc4XY8GJwCAmbKoPcJ8EV5ODoF+ehzrxeeff+54B1L1qGF17VK/gCzxg4X4wUSr7hyh1LKI28oHoKVeA9U/BD2CNRfwiKgbX331VbO+ZKgbRiLe27dvf2okqcX17tAai2aV1v6wNLY2355Y2fOF0WPJfaLB6Xo0OAEAzJRF7RHq30yIhXUssOcnp+WEMbTG4jf7WvvD0tjafHtiZc8X5D6R+yQ793LMxTEYF5Nbx2mmcszXseeyH2P2fD1jyf2+MblPzpz7nlhRR8LR65W44FfWKyXuPJdw5udf7veNyX1y5tz3xMqeL8R2dP0q6joWWyufIx7jmV8fuU/kPnlpuddrrVD/EPQII14jyp6vZyy53zc2Qqzs+cJLy73Ui6wGp08++eTdq1ev3v3iF7+4y7//+7+/+5//83++r5PZDSlrY9mx5H7f2Jlz9yfqrkeDEwDATFnUZrj35PA3v/nNuy+++OKnHMoCvM6riMV6fRGsFicArf3x/XG/1tieWNnzBblP5D7Jzr1cCIqvI2bruN1r7/G+5zH2fM56xpL7RO6Tq+a+FmtpvvKDr/i6VYf26lm/Rnn+5T6R++Squa/F6pl7bPFvqw49Ym8N8/o8JfeJ3Cc9c1+K1TP3eq0VYu5W3dnrDNeIsueT++Squa/FkvskO/dyfSurweme2jQXtSpy6fm67InV83XpGUvuk7Xc4/91DU7XosEJAKASi92yqJ0vcltivPa3v/3tye2PPvqoeQLY8uGHH75fpIdYyJev57LHRp8v9IqVPV/oFSt7vtArVvZ8YWms/FZcHO/1CW05nuvbc/WxHfPMb/c83rOfl3DFWNnzhV6xsucLvWJlzxd6xcqeL2TGigtu5eLcvD7Vt1vmNau+Pcp6JXu+0CtW9nyhV6zs+UKvWNnzhV6xsucLvWLtna80OEXdqWvTvFbVt8u+JY+swUL2Y9wzNvp8oVes7PlCr1jZ84VesbLnC71iZc9X1lrlGtGtc8bW7SW9zxnDnrHR5wu9YmXPF3rFyp4v9IqVPV/oFSt7vrA0FjUlrm/95S9/eVKH5qL+1F/P61L5ulWH7hH5wch8gtP1aHACAKjc+oHh1tutE7818ZsIIRbacbJabtdif4y3xmLR3tq/Nt+eWNnzBblPlmJlzxdeWu7lN9zieP/222+fHK/z43euHp9/7+vXr5vH9JqSU/ZjzJ6vZyy53zcm98mZc18bW5ov6tY9DU5b6llo1ag1JZ+ez0l2LLnfNyb3yZlzXxvrmfueBqd7brfq1JqSzxGP8cyvj9wncp/0zH0pVvZ8YSn3stYq14hunTPeul175Jwx+3H2nE/uk6vmvjYm90l27uX61tYGp6WxVg26R9TKkmOpnbV4bK398f1xv9ZYPO7QGtsTK3u+nrmvxZL7ZC13n+B0PRqcAAAqozQ4xWI9Ftvldm1tLE4AWvvj+8uJw9yeWNnzBbnfHsueL7y03N++fXuJBqeez9koseR+35jcJ1fM/eoNTmvz9Ywl9/vG5D6R+31jZ2pw2vsYvbcmcr9vTO63x7LnC0u5j9rglP049z6nZ35/yf2+MblPRs+9XN86osHpz3/+8/t1W2zxdeybb7/97W9/qlOjP4/Z8/XMfW8suU80OF2PBicAgMpRDU5x0hfbN99889O++RbfE4vxIhbz9e1b+0P22OjzhV6xsucLvWJlzxd6xcqe7+gGp/oiUGz3HO/ZjzF7vtArVvZ8oVes7PlCr1jZ84VesbLnCyPHuvdP1G2pZyHq1HffffffFerd+6+fo36Frc9JGGG+0CtW9nyhV6zs+UKvWNnzhSvGWsshtliDra2p9twu9SqUtdjnn39+s4YFr89xY6PPF3rFyp4v9IqVPV/oFWvPfeZ/ou6IBqf5OeOj9WrP4wy95gu9YmXPF3rFyp4vXDFW9nyhV6zs+Y5qcCo1KmpQ2VdqVH1du4hcsh9bWBobfb7QK1b2fKFXrOz5wtKYP1F3PRqcAAAqRzQ41Rev5g1O8xPDkkcstEOdWxEL8/jtg9ZYLORb++P7436tsT2xsucLcp/IfZKde1z8ObrBKf6NC0GxlduxLR3vex5jz+esZyy5T+Q+uWrua7GW5ot1ytGf4BQ/ZIvt008/fX87tsz6NcrzL/eJ3CdXzX0tVs/cY4t/19ZUe27X9alsdcPAUg3z+jwl94ncJz1zX4rVM/ey1iq3j2pwqpvJi7V6lf04157T7PnkPrlq7mux5D7Jzr1c38pucPrxxx9/VotCq0aFyKXn67InVs/XpWcsuU/WcvcJTtejwQkAoHJEg1MxPxGc3w5lMR6L9VBu19bG4gSgtT8sjWXHyp4vyH0i98me3Hv9ibp7GpxKTnse49p99swXRo8l9/vG5D65Yu5Rt3o1OJXf2I0ts36Fsz7/Qe4TuU/kft9YbLEGW1tT7bldalPUqvihXGxrDU51Tl6fidwncr9vbIRY2fOVtVa5RnREg1PUpHsbnEpe2Y8z7HlOs+frGUvu943JfTJ67kd9glNsZT0VW31dq97qOpX92Nbm2xMre74weiy5TzQ4XY8GJwCASu8Gp3qLfWXh3XORvydW9nxB7hO5T7Jz79XgVLb57bLFvpJT9mPMnq9nLLnfNyb3yZlz3xPryD9RF5/YVLb6zxHMtyPr157nJOyJJff7xuQ+OXPue2JlzxdiizXY2ppqz+26hpV/l/7kU13DjniMZ3595D6R++Sl5d7jT9TFdaF6i32P1Kvs1yh7vp6x5H7f2AixsucLLy33IxucyvXrUq/m+2uRywivS9gTS+73jZ05d3+i7no0OAEAVHo3OM1PDEseZQFe51bEYr3XR7guxcqeL8h9IvdJdu5x8efIBqfyyU3z38iNbel43/MYez5nPWPJfSL3yVVzX4u1NF+sU47+BKdWc0Bm/Rrl+Zf7RO6Tq+a+Fqtn7rHFv2trqj23S62KurWlhnl9npL7RO6TnrkvxeqZe1lrldtHNDjV6hpVf12UPLIf59pzmj2f3CdXzX0tltwn2bmX61vZDU5xPatc04qaFJ/mFF+3alSIXHq+Lnti9XxdesaS+2Qtd5/gdD0anAAAKs/d4BSL9BAL+fL1XPbY6POFXrGy5wu9YmXPF3rFyp4vLI29efPm0Aan+kJQLft4z35ewhVjZc8XesXKni/0ipU9X+gVK3u+kBnryE9wKu75E5slnxGekzBCrOz5Qq9Y2fOFXrGy5wu9YmXPF3rF2jtfbLEGW1tT7bkdzUytrdSzpRoWsh/jnrHR5wu9YmXPF3rFyp4v9IqVPV/oFSt7vh6f4FQ855orLI2NPl/oFSt7vtArVvZ8oVes7PlCr1jZ84WlsXJ9K7vBKdRb+XTf+RZN5aVOZT+20ecLV4yVPV/oFWvtPj7B6Xo0OAEAVJ67wSl+EyHEQjsW4OV2LfbHeGssFvOt/Wvz7YmVPV+Q+2QpVvZ84aXlXn7DLY73Ixqc5ls5xuuv58d79mPMnq9nLLnfNyb3yZlzXxtbmi/q1lENTvVWN2rG1qt+rY1lx5L7fWNyn5w597WxnrnHFmuwtTXVntt1fbrnE5xKPkc8xjO/PnKfyH3SM/elWNnzhaXcy1qrXCM6osEpPg2lbPeuubIfZ8/55D65au5rY3KfZOderm8d0eC0ReSS/dh6Po9yv2/szLn7BKfr0eAEAFA5ssHpHiWPWGiHOreiLNZbY3EC0Nof3x/3a43tiZU9X5D7RO6T7NyPbnDaouS05zH2fM56xpL7RO6Tq+a+FmtpvlinHP0JTvco+Zz5+Zf7RO6Ttdc4e76e75m1WD1zjy3+XVtT7bndqlNrSj5en6fkPpH7pGfuS7F65l7WWuX2EQ1OW5Q8sh/n2nOaPZ/cJ1fNfS2W3CfZuWc3OH3wwQfNOrTmV7/61U85xuOOr+fisbX2x/eX52Rubb49sbLn65n73lhyn2hwuh4NTgAAlewGp3/9139tngC2/PKXv3y/gAeOc+SfqNtyMcjxDuwRteaIBifrFaCHoxqcrMGALGWtVa4RZTc4qVdAluw/UffJJ5+8++ijj5r1qOXDDz989x//8R/vG0sin/i3JXts9PlCr1jZ84VesbLnC0tj/kTd9WhwAgCoZDc4ffbZZ+9evXrVPBGsffzxx++++OKLn/KIhXaocytiYR6/fdAai4V8a398f9yvNbYnVvZ8Qe4TuU+ycy+/4RZfZzc4xcWgPcf7nsfY8znrGUvuE7lPrpr7Wqyl+WKdckSD0971ypmff7lP5D65au5rsXrmflSD0941mNfnKblP5D7pmftSrJ65l7VWuZ3d4LS3XmU/zrXnNHs+uU+umvtaLLlPsnMv17eyGpxat+uGj/p62lzP12VPrJ6vS89Ycp+s5e4TnK5HgxMAQCW7wWl+u15Mx9exlRPE2tu3b9/bOlZ+e6dlaSw7VvZ8Qe4TuU/25B4ntfFvHIPZDU717flJcR17bs9jXLvPnvnC6LHkft+Y3CdXzf2IBqf57Xq9UmLO8wg9n5OeseR+35jcJ3K/byy2qCt1zblVj7berutXEVsrn+D1mch9Ivf7xkaIlT1fiHVPqR/ZDU717fk54xmuEWXP1zOW3O8bk/tk9NzLOVrPBqfIvzSS1KLpJLTGolmltT8sja3NtydW9nxh9FgvMff4t/5/tSjXUMrt+L7We16D03locAIAqGz9geHW2/ML7nG7PjkFjleOv54NTqGVC8BWsXbYul6Zu/X98/VKKw+ArUptqWvOrXq09fa8foXY18oHoKWuIz0bnIJ6BWwRdWOEBqfsBpcjml96zdczltyfjsW/5f1a0+B0PRqcAAAqsdgti9r5Ijfjdr2YBp5X7wYngCxb1ytzt77fegU4Ul1zbtWjrbfVLyBT7wYngK38ibrJUqzs+XrmvhZL7pO13DU4XY8GJwCASr3APcLnn3++uHgH+jn6WA9LJ9YAj4ja0mO90ooN8CjnW8CZRE1p1Zos6hXwqCPrVH1dq3yCUzSYzEVDSmt/2DM2+nzhirGy5wu9YsX+peuwGpyuR4MTAMD/X1xUOvrCVW1pwQ0c6+gfqrU43oEMUUt61jBNAkCm3msw9Qt4RNSQVm05gnoF7HV0raqvZ5UGp4g5Fw0m8b2tsWg8ae2P74/7bR3LjiX3+8bOkHuoj49Cg9P1aHACAF68elHbkx8cQj/PdZwXjndgr3KhrlVbeojYrbwA7qF+AWcT522tmnKkVh4Atxz9y7r1WsqfqJv0zH0tltwna7nPG5yikam8xzU4nZMGJwDgRYuFb1nEPpelxTfwuBGO8ZpGJ+Be5QJdq5b0pnYBW41Sw9QvYIuoF61acrSoVa18ANa06kmmWMuVWNHc9ObNm/fNJzCipTV/3eBUzk/qxqbCOcN5aHACAF6sUX5oGFx4h1xxfMdx1TreRuCYB5ZE/RppjVJTt4B7jFjDIqdWrgDFc9cuTU7AFnFu1qolmer1k09wmvTMfS2W3O9TGpzmn9xUNzntmZfno8EJAHhxYjFcFq+jWTqJAO5TTsZbx9eIHPNA7Qz1S90CloxewzQPAEtGqV/qFHCvHr/UV5/7RXNTNIqURqfa27dv32uNxac+tfaHpbG1+fbEyp4vjB7rpeW+Jt63cb/6vR23f/jhh59uLzVbMSYNTgDAi3KGHxz6ZBfYLo7tMxzfS+qLRsDLc7b6Za0C1M5Uw9QvYG60GubcELil1y/vzutRq3kk7GlIWWtwyW5+6Tlfz1hyvy22mK9+X9ef3BRfay4+Hw1OAMCLccYfHrYeB/DU2Y7tJX7gBi/P2euXH8DByxY1INYvrfowOvULCKOuxdQoYE2v9de9tSj7z41F3KXYe2Jlz9cz97VYcl/37bffNt/Xc0t5MC4NTgDAZvH3iuNE6kxai9czKL9FALS1jpuzaz1O4Hpax/8ZtR4b8DK0asKZtB4T8LK0asMoznjtDeijVTOOsNTsMhfft9QkstSQEt+/NP/afHtiZc/XM/e9sV5a7nPxffP3c/3JTeV2fMpT6/6MTYMTALDZfDHIcTzX8PI47gEAjmfNBYxMjQKeW91M8v3337//c18229HbP//5zyc/i9oqGoTr93H8fzr/M3VxO97TrfszPg1OAMBmLrL047mGl8dxDwBwPGsuYGRqFPDc6gan+KSbpU+7iU/cWfo0nhH+VFr2fD1zX4t11dxja+2/JRqWWo1M8/9PowGqdX/OQ4MTALCZiyz9eK7h5XHcAwAcz5oLGJkaBTy3utmlNDhFU8pcNKvE97bGovmltT++vzS5zK3NtydW9nw9c98b68y572lwivfm/P/N1v+jEbN1f85FgxMAsFnpfD+b+YL2LFqPBfgvrWPm7FqPE7ie1vF/Rq3HBrwMrZpwJq3HBLwsrdowila+AEWrbmSrm0GigSR+JhCNKXPR4NLaH7LHRp8v9IqVPV/oFWvtPlsbnL799tvm+3dOc9N1aHACADbrdRKV6Yw5A+sc18BZqV/A2aljwNmpY8BZ9apf8wanUP+MoIimlPjkndZYNLK09sf3x/1aYxF3qRllT6zs+XrmvhbrqrlvaXCKfFvv3VocL9EE1bo/56TBCQDY7IwXgVy4gutxXANnpX4BZ6eOAWenjgFn1at+1c0u0dz09u3bn5pgatGsElpj0fzS2h+Wxtbm2xMre74weqwz5P5og1PMU79f47iYHxvxqWPff/998/6clwYnAGAzf6Kur9ZjAb58X4tax8wVtB4vcB1Xq1+txwhc21XqWOuxAS/D6HWslTNA0aob2aKBpPw8YK3B6QzNNL3m6xnr7LnvbXCKhqWvv/76yXu1/Lyq3hff07o/56fBCQB4MWLx/Pnnnz9Z6I4s8m09DmASJ8NnO7aXlJP81uMErifqVzhr/Yq81Sx42UoNO1sdU7+AYtS1mBoFrIka0aod2epa5E/UTXrmvhbrqrmvNTjFe3DeyNRq+Ft6HFyDBicA4MWJxfOoF+Fj8b20uAfWxbEz8vHd4pgHilK/Rq9h6hbQcoYapn4BS6I+tOpGb5FHKz+AuR5rrromlU9wisaUuWhwae0Pe8ZGny9cMVb2fGEt1tK6fKnB6dtvv22+T+f8X3p9GpwAgBerXIRvLYR7ikW3hTfkG/EHbZFLHO9+uAasiRoxyjollNrVyhVgbrQapn4B94p60aojPahVwBax1mrVkkx1XSoNTmWdV4uGlfje1lhpZJmL74/7bR3LjiX3+8aOyD3+rd/TRavBKeZqvUfnoglqfl+uR4MTADCUL7744t1vfvObd7/4xS/uEt8b92nNda9YTN+7SM4S8UIrHyBfOYF+jh+0Od6BR5X61buGRe1auugIcI/nWoNZfwGPiPrRqi1HUKuAvY6uVXV9Kn+irqztakc0vyzNtydW9nw9c98b6wy5x7/1+7mYNzjFPPP35vzP0r1+/frd999//+R+XJcGJwBgKFuam4q4T2uuPeYfddr6G861N2/evP+eYn57LhbkJVYsuv/5z3++X7TbbLZ+Wxx7cRI9/0FbHKP17bn58VyLE+n6dsw9P95tNpstY4vfmt26XqnrUyjrlXntKtQvm812xBbnPrEGm9enW7fn6to1P/+q61fhnMtms23Z4gf4pX7Mf6gadebW7SWtc8a6VrlGZLPZtm5RN/7yl788qUNr6hpU1LXps88+e/fRRx81r7/XPvzww3f/8R//8b5JJUSDS/l6Lnts9PlCr1jZ84VesVpr9iK2+Dfe319//XXzPVzvi++J753Pw3VpcAIAhtI6abpHa649YjFcL5DnC+ZHb9eL7fg6Ll7V8YtY5C8t9OMkYOk3HOKkobW//GZEa2xPrOz5gtwncp9k515+4yy+3tMg0Po6xAWh+nacXC/FndvzGHs+Zz1jyX0i98lVc1+LtTRfWTtsXa/M3fr+er2SXb9Gef7lPpH75Kq5r8XqmXv5YUVdc27Vo6236/o1jzvn9XlK7hO5T3rmvhSrZ+7z6zS3zhlv3a7dOmecx65lP8615zR7PrlPrpr7Wiy5T7JzL+dptxqc6rp0q2bd09xU1L9w3PN12ROr5+vSM9aZc18TW/yf2Hq/zvct5cu1aXACAIbSOmG6R2uuPWLxXC+Sb534rd3+5JNPNp0Y/vrXv373hz/84afFfyzQ4+u5tbE4oWjtj+8vJyJze2Jlzxfkfnsse77w0nKPTz4pP6jPbHD63e9+9+7Vq1fNY7vl3uN96TGu3WfPfNmvd8iOJff7xuQ+uWLuUbeyG5yOWq9479w3JveJ3O8bO3PuscUabG1NtfV2fNLA3jXYEY/Re2si9/vG5H57LHu+sJR7WWuVa0SZDU5HnTPueZx7n9Mzv7/kft+Y3Cej516ub2U2OLVq0ZrIr+RYHt9cPLbW/rA0tjbfnljZ84XRY42Se9yn/J96r9jW/j8tYv7W/bk+DU4AwFDKCdKf//zn94vZ2OLrsv+3v/3tf+/9r+2bb755v7811x6ZDU5bLlwV8RG/5YQhTg7K17Wl/SF7bPT5Qq9Y2fOFXrGy5wu9YmXPd1SD05bmgKIc79mPMXu+0CtW9nyhV6zs+UKvWNnzhV6xsucLI8eK3/TPbnB6ZL0ywnMSRpgv9IqVPV/oFSt7vtArVvZ84Yqx1u4TW6zB1tZUW28/sgYL2Y8xe2z0+UKvWNnzhV6xsucLvWJlzxd6xdpzn7LWKteIMhucjqpXex5n6DVf6BUre77QK1b2fOGKsbLnC71iZc83UoNT5Fi+nlsaK49j61h2LLnfN/ZIrPJ/6j3ifrHV78uW+P+5dX9eBg1OAMBQ4uTo008/fb+QjX8///zz919HY1PZXzc8Fa259shscJrneK/Io5wIzPMLcWIQv6nTGosTitb++P6lE4o9sbLnC3KfyH2SnXtc/Dmiwal1LN8j8tjzGHs+Zz1jyX0i98lVc1+LtTRfrFOyG5xatekekc+Zn3+5T+Q+uWrua7F65h5b/Lu2ptp6u1Wf7hF5eH2ekvtE7pOeuS/F6pl7WWuV25kNTq1adI/II/txrj2n2fPJfXLV3NdiyX2SnXu5vnVEg1PrF4/nW1yrL7n0fF32xOr5uvSMdebcWyJ2vA9jK+/J1nu2XNfl5dLgBAAMpT6Jiq/LJzZFo9N333337scff/zpZKvWmmuPERqcYjEfi/9QTixqa2NxQtHaH5bGsmNlzxfkPpH7ZE/uR32CU+tYvkfktOcxrt1nz3xh9Fhyv29M7pMr5h51a5QGp8in53PSM5bc7xuT+0Tu943FFmuwtTXV1tut+nSPkpPXZyL3idzvGxshVvZ8Za1VrhGN0OAUeWU/zrDnOc2er2csuU/WXpPs1zh7vp6xRs/9qE9wKtfl45p8XYtiK39JoSiPKXIsX8/tGRt9vnDFWNnzFeX/1DXxCYrlfRhbvDffvHnz5P0Z3xPXQlr352XR4AQADCVOjuJkKbb4um5wiuamaHKqT6SK1lx7HNHgVB7D/CSwPM6yld+IiZPUcgIwP3kNcdLQ2h+Wxtbm2xMre74g94ncJ9m5H9ngVP+GW2z3Hu/ZjzF7vp6x5H7fmNwnZ859T6wj/kRd1KJYX5VtvtbqWb/2PCdhTyy53zcm98mZc98TK3u+EFuswdbWVFtv1/WqrMXi3LHs23vOtfcxnvn1kftE7pOXlvuRf6KurlNly6hX2a9R9nw9Y8n9vrERYmXPF15a7kc1OMX196hHpTYVsc33xyf0lE/piZzK7Vo8ttb++P6439ax7Fhyv2/skVjl/9SWuLYxb2SKbf7ejLla9+dl0uAE/P/Yu2MdOY4s3/8ydQcCRPByoCXvS/ENlk8gk3ecxf6968hbXovAcr2VJWMlbwZoGcJw/B6HuMDIlEVrHqD/+2vNYUSHTkRmRp2Mjsz6JvBBV2Z0xTlZVRmdGXW6CgDC6eJKE0I9dHFkkzq6vfYTnLy+1rBCBxNd4JRPXuUXgfZGoq3nlIdO2msn7nah4bXpgsLbrt+vXVD0xIruT8g9IfckOncd83sWOOmnjVu2vnS89+zjyMdsZCxyT8g9OWvurVi1/nSeovOX6AIno/MtLfpaYK3vMX7N8viTe0LuyVlzb8UambsW/WydU21dz8clW6xgYGkM4/l5iNwTck9G5l6LNTJ3O9ey9T0KnDQ2lWPSTHNE0f2Re3LW3FuxyD2Jzt3mt6ILnLRo/t0Wm9sqFxufZOTz0hNr5PMyMtaRcxf9jfX+bmrJ12s54XpR4AQAAMJZ4ZBOUnUSqwkinYjax4hqm9p0WyfAebsujvI31+y2Cgbstl1Y5fJYXv+1XLTkuWtbfgK9dOHXWs/z02IFTtovLTbxXlKeyls/PdFts/cno2JF9yejYkX3J6NiRfcntTb9V9BeBU4mL3Da63iPflzkjLGi+5NRsaL7k1GxovuTUbGi+5PIWHt9gpPJz7se43wluj8ZFSu6PxkVK7o/GRUruj8ZFSu6PxkVq7c/LToHa51TbV23MUnXWvZmnMatNWOYRO9jT9vs/cmoWNH9yahY0f3JqFjR/cmoWNH97f0JThqrygIn5oji2mbvT0bFiu5PRsWK7k9GxYruT2ptNr+1R4GTzWHrp5Zyu1FuQEutOEnb89deTovd1t9h7/64bhQ4AQCAcPbGW16lr5NWO6HVNqv414lu3m4XSHYBpSWf5NHtfLELqzyW138tFy36aUYUONk+aBLLJrK02KdTKVflZ/tR0na1e23aX297q7+eWNH9Cbkntec4+nmUa8vd/sNNx/teBU62rD3eo/cxur+Rsch9XRu5J0fOvdVW60/j1h4FTvn4pOKmxxq/Wm3Rsch9XRu5J0fOvdU2MnctOgdrnVNtXc/HMPup8evSa67efTzy80PuCbknI3OvxYruT2q527mWzRHtUeCUL2vPuaL3c2R/5J6cNfdWG7kn0bnb/FZ0gZOKMK0QU2OWjUVabG7b2FhpOdp6Tvvmbdfv635em/ZbvLaeWNH9jcy9FWv23GsUI3/dSf5a1KJ1m78FShQ4AQCAcBEFTlvlsbz+a7lo0U8zosDJJqz009p14bj2DcNWm/bX267ft8el1BMruj8h9+W26P7k2nK/vb3drcDJPrkp/4/cS4/32j6OfMxmiUXu69rIPTlj7nsVOBkbs/RG217jV+9jMjIWua9rI/eE3Ne1adE5WOucauu6xiMt+bi1dgzbYx95bSXkvq6N3JfbovuTWu57FzjltGie6NJzrp797H1Mj/z6Ivd1beSezJ67zW9FFzjZ+GSL/QOMlrLASflZjrZ/Je2bt11qba3+emJF9yezxxqdu/3dXKJPSsxfc3oN6tPI8m1aNOfh3R8QCpwAAEC4SwqcvvjiiwcXSms8f/78QSyv/1ouWvTTjChwEk1U2WSV5JNXylOUu93O1bZLdNvs/cmoWNH9yahY0f3JqFjR/e1Z4KTjWOy4NkvHe/Q+Rvcno2JF9yejYkX3J6NiRfcno2JF9yczx9r7K+ryr9jU+ujxS7Y+JjJDfzIqVnR/MipWdH8yKlZ0f3LGWK37aNE5WOucauu6ffJJuWg8WxrDJHofo9tm709GxYruT0bFiu5PRsWK7k9Gxeq5z95fUWe2nnNJ5H7KqP5kVKzo/mRUrOj+5IyxovuTUbGi+9uzwGktm2NXjna7VGuz/djaFh2L3Ne1LcWyv5s1msMoC5m0Xr4G9XdYi9cHYChwAgAA4S4pcHr79u3d06dP3Ysmz5dffnl/n6MVOIkmq/LF2sscS/n+lWoXFPn+l3piRfcn5J6QexKduyZ/9ipwKpeyqDFf8uO9Zx9HPmYjY5F7Qu7JWXNvxar1p/OUPQqc8qUs1Iwev2Z5/Mk9IffkrLm3Yo3MXYt+ts6ptq7n41X+CU62rTWG8fw8RO4JuScjc6/FGpm7nWvZenSBUz4mbTnnit7P1mMa3R+5J2fNvRWL3JPo3G1+K7LA6Xe/+92DcalF/3BsuYx8XnpijXxeRsaaPXej1+mav5cWW0vZB5CjwAkAAIS7pMCp1p73dWl7Hqs8Yd6rwGkL5aZcxXLNtdq0v952qbVFx4ruT8g9IfekJ/c9P8Gph3Lq2cfWfXr6k9ljkfu6NnJPzpi7xq09Cpx6KJ+Rj8nIWOS+ro3cE3Jf12bXXq1zqq3r3vi0huXE85OQe0Lu69pmiBXdn51r2RxRdIFTD+UVvZ/S85hG9zcyFrmvayP3ZPbc9/gEpz/84Q93T548cceinP45+euvv/60T8rRbpd62mbvT84Y65L+7O9mqfw7WqPfs/vYNQNQQ4ETAAAIp8mgd+/e3Z/czs47YfZOsk1rsqr0+eefuxeBLc+ePbu/SLULhPLiVZS3t11qba3+emJF9yfknpB7Ep17q8BpSev4v+R4j97H6P5GxiL3dW3knhw5955Y+demeGORGXW+cuTHn9zXtZF7cuTce2JF9yd27bVljCp/t1zf65qrdx+P/PyQe0LuybXlvvQVdUv2umaM3s+R/Y2MRe7r2maIFd2fXFvuNr/17bffumOOueS8S2OijYeKpZj6J+KS5ei1ad+87fp93W9rW3Qscl/XthTLXic5/X7+ehLv3N7maY1dMwA1FDgBAIBw9skCOsHVya+26YRWdNtOlHXbToCX2vO+Lm3PY3knzPlJ9iVevXq16r9ejD7aV1+3pxzyHEv5/pVqFxT5/pd6YkX3J+SekHsSnbsumu3CWV9f4h27PS453nv2ceRjNjIWuSfknpw191asWn/516Z4Y1GP0ePXLI8/uSfknpw191askbnbtZc3FvW6ZAzj+XmI3BNyT0bmXos1Mvf8XEvUtzf29DjKHFF0f+SenDX3VixyT6Jzt/mtpQKnS2jerIyX52BGPi89sUY+LyNjzZy7iuPy15L+Gf7m5ubBNq3r7255X7tmAGoocAIAAOEocKqzuKLHSIser9LPP//sbpfottn7k1GxovuTUbGi+5NRsaL7k1qbFrt49o7RaHbMaxLIy0d69iP6cZEzxoruT0bFiu5PRsWK7k9GxYruT6Jj2aSyN+ZEyc9XoscviX5MZogV3Z+MihXdn4yKFd2fjIoV3Z+MitXbnxZdl3njTjS9IWfXhF4uJnofe9pm709GxYruT0bFiu5PRsWK7k9GxYruT/I38HVO5I0xUZgjmjtWdH8yKlZ0fzIqVnR/MipWdH9Sa9OicWPPAiexMUpjowpSNNcO5Ow9F/tb5hUytT4drKTF2w4YCpwAAEA4XWTpZLZWVOQVIC21531d2p7H8k6Y85PtaPpvBZ3AG53gAxjLjj/vGN0DxzuASKPGMH0lC+MXgEgaT3Qd5o05e1Ghk75OxcsHADx2/iNbvtqpl8ZFi+flAwA1GjciP53cY3PoKnDKC0Bz+Vx8yebmS/lcfSmfuy/1xIrub2TurViz5G70+vC+gi5fl1oM471fA+QocAIAAOEocKpTgZO3HcB5jZgUB4BojF0AzoLxDMDsGKcAzMrm0K3ASXPsJc256/e8Ns3Ne9v1+zaHX2r11xMrur+RuffG2iN3/SzfRzF/+ctf3NdPSf9I5d0/571fA+QocAIAAOEocKqjwAm4PkxWAzgixi4AZ8F4BmB2jFMAZqb5chU36VOjNL9e0vy7t12i22bvT0bFiu5PWrHs/ZaS3mcpXzPl3zW9J1L7BLCS934NkKPACQAAhFOBk6rxdXKrE2ArLtJ6edtOjpfaa31d2u6dMOcn33vQCT6Ax+cdn3vwYgPApbzxJpoXFwAu4Y01I3i5AMAa3pgSzYsLAGt4Y0o0zaHbJziV8+hic+5em+bmve02R++1ad5evLaeWNH9jcy9FWuG3PU1iflrRa9JFcLl27Suf4Yv71vjvV8D5ChwAgAA4VTgpJNbnfjqZFo/89vetpHt+W3vhDk/AQcAAAAAAAAA4Bqp6EXFTbe3t5/m1nP5nHupp232/uSMsZbukxc4qWDJK2Qqi+70HlH+vssa3vs1QI4CJwAAEI6vqAMAAAAAAAAA4NjevHnzqcBJc+wlzblrrt1rs8KYkn7f5vC3tEXHIvd1baL3TfQ7Ur5GvE8T0++V77us4b1fA+QocAIAAOEocKrT903bRwh79mjPty21e2iPb8+3LbV7aN/enm/Tbe/43EsZ33ON7fm2pXYP7dvb822Xtnto396eb1tqz3ljTTT992XPPuWO2J5vW2r30L69Pd92abuH9u3t+baldk+t3RtrRrD/Jje9+Zs92vNtl7Z7aN/enm+7tN1D+2/b822Xtnt62r0xZQ+1+LnHaM+3XdruoX17e77t0nYP7b9tz7dd2u65tN0bU/bAV9QlI3NvxRqRu35f21Tk5r0uat6/f/+gny2892uAHAVOAAAgHAVOdboo9bYDOK+RE04AEIWxC8BZMJ4BmB3jFIDZ6avGWFhGLHpvqXy/BshR4AQAAMJR4FRHgRNwfZisBnBEjF0AzoLxDMDsGKcAzM7m0j35XHzJ5uZL+Vx9KZ+7L/XEiu5vZO6tWFH9aZty1n3Ee/7X0Kem6j2hvG9gDxQ4AQCAcBQ41S19rDCAcbxjdA/l16IAwKW8sSaaFxcALuWNN3vz8gCAtbxxJRrXjAB6eWPKXso5dJPPxZdsbr6Uz9WX8rn7Uk+s6P5G5t6KdUl/lmf+/Oo+km9b64cffnDjAXugwAkAAIRTgZM+tlYnyTop1k+dONvJc357bXvtdy9tH13gBAAAAAAAAADAkZRz6KZWZCM9bbP3J0eLpXW9F/LmzRv3ub2E+sxjAXujwAkAAIRTgdP79+8fFBLlty8tSrq0Pb9NgRMAAAAAAAAAAHXeJ0jhGLznMwLFTXgMFDgBAIBwfEVdHV9RB8zDO0b34sUHgEt4Y00kLyYAXMobb/bm5QEAa3njyh682ACwxBtPgFHsPRhgJAqcAABAOAqc6lTg5G0HcF5MOAE4IsYuAGfBeAZgdoxTAICjsfdfgNEocAIAAOEocKqjwAm4PkxWAzgixi4AZ8F4BmB2jFMAjkLjFY7Hey4vYe+tAI+BAicAABCOAqc65fD+/ftPfv75ZwCD2fHnHaN74HgHEGnEGPbmzZv7cyfGLwCRbm9v76/DvHFnL4rHOAZgCzv/ke+//94dW6JwzgXgEho3vv32W3d8AfZi76sAj4UCJwAAEI4CpzqLK3qM9Fj98ssvv6HJf/Habm5u3O1Sa2v11xMruj8h94Tck+jc7Zjb+1g3dsznsUvR+xjd38hY5L6ujdyTI+feE0vjiOw9hunNNjtfsbhlLnLkx5/c17WRexL9PLbaZogV3Z/YtZc37kSzogHF0+Lls8c+Hvn5IfeE3JNryz0/1xJdz3ljTBQbp2SWOaLo/kbGIvd1bTPEiu5Pri13Gy8ocMJI+XsbwGOhwAkAAITTBZb+y00FRSowyn/Wbi+157cj27WU+Xsn71u9evXq7smTJ3efffbZJi9evLh7+/bt/cVC7YJBeeeTYDntm7c9L/Aq9cSK7k/IPSH3JDp3mwjSbcX0jt+tLj3ee/Zx5GM2Mha5J+SenDX3Vqxaf/bGl25749FWjzF+zfL4k3tC7slZc2/FGpm7XXt541GPS8cwnp+HyD0h92Rk7rVYI3PPz7VEfXvjz1ZHmiOK7o/ck7Pm3opF7kl07ja/NarAScXj2jf7xDkcR9SnEeb/CAU8JgqcAABAOE0G6eRZFz128Zbf1k+t67Yu4Ea357dtkt1oMis/cV/6jury+6x//PHH+5/Pnj1zJ6fWePr06X3eytET3TZ7fzIqVnR/MipWdH8yKlZ0f1Jrs/+K0/GusaA8nvP1Un6sqx+7/RjHe/TjImeMFd2fjIoV3Z+MihXdn4yKFd2fRMbSxKTOs7aer4iNWWJj2GznK9H9yahY0f3JqFjR/cmoWNH9yahY0f3JqFi9/dm1Vzk2tdZtm+fSMUw5Re9jT9vs/cmoWNH9yahY0f3JqFjR/cmoWNH92bmWzREtXTOW67atxBzRb7fL7LGi+5NRsaL7k1GxovuTUbGi+5Nam81v/fDDD78Zh2rKsSmf2/JoTNT8uY2JOC7v9bCFXnNev8BjoMAJAACEszfedAFkJ7+aFBLd1ja7ONJF2pr2vK9L2/NYNslult4wXLvuTUptofxsP0rarnavTfvrbW/11xMruj8h96QWK7o/ubbc7T/cdLyrENM7fmvy9vy2dwxvEb2P0f2NjEXu69rIPTly7q22Wn8at9YUOK0dz7wxaYuRj0l0LHJf10buyZFzb7WNzN2uvWrnVFvXvXFpiz328cjPD7kn5J6MzL0WK7o/qeVu51o2R7R0zbi0brwxaIvo/RzZH7knZ8291UbuSXTuNr+1VOCUj0tbxzAVONl4iGPTayl/brfSa87rF3gMFDgBAIBwFDjt+4Zhq63ngrgnVnR/Qu7LbdH9ybXlfnt7e4oCp5GP2SyxyH1dG7knZ8z97AVOrf5GxiL3dW3knpD7uja79qqdU21d98alLfbYR15bCbmvayP35bbo/qSW+6wFTtH72fuYHvn1Re7r2sg9mT13m9+iwAlr5c/tFnq9ef0Bj4UCJwAAEI4Cp4eTV/p+ai36qfXXr18/WJcPHz7cffz48dO6clXu+lmqbZfottn7k1GxovuTUbGi+5NRsaL727PAScexLbqtbWuO9+h9jO5PRsWK7k9GxYruT0bFiu5PRsWK7k9mjrX2K+rWjmc2DuXLd999d7/tMcYv2fqYyAz9yahY0f3JqFjR/cmoWNH9yRljte6jRedgtXOqres2Fhk7F3v58uXF11zSs4/RbbP3J6NiRfcno2JF9yejYkX3J6Ni9dyn/Iq66AInG6dsiRivevZTRvUno2JF9yejYkX3J2eMFd2fjIoV3R8FTthK74fkz+8a9h4KMBMKnAAAQDgKnPzJK5usWjN5ledYyvevZPtbyve/1BMruj8h94Tck+jcNfmzV4GTFQXo2NaiY33tZPXWfRz5mI2MRe4JuSdnzb0Vq9afzlP2KHAyP/300/2Ypdt7jV+zPP7knpB7ctbcW7FG5q5FP2vnVFvXbSwSG7O0rC0Y4Pl5iNwTck9G5l6LNTJ3O9ey9T0KnOy60awZr6L3s/WYRvdH7slZc2/FIvckOneb3xpV4KTxkWW/Jf/bs6f8+V1Sey0Dj40CJwAAEE4n5JoE0kmwXbzpp9bL27qAW9Ne6+vSdi157tEFTlJOVq19w9DyLLXatL/edqm1RceK7k/IPSH3pCf3EV9Rp2Nbi471S4/3GR6zWWKR+7o2ck/OmLvGrb0LnGx82mv8kqM+/kLuCY97Qu7r2rToHKx2TrV13cYi0dgkWtYWOCknnp+E3BNyX9c2Q6zo/uxcy+aIogucNAb1FDhF76f0PKbR/Y2MRe7r2sg9mT330Z/gZAVVtp7Tfmme3WtT/t52m6P32mwfvbaeWNH97ZG7Fm97NOWWP8c1tX0AZkCBEwAACKfJIF0A6aRdFwL6md/2to1sz2+XFw8jC5zKZe3klXL3tkutrdVfT6zo/oTcE3JPonPfu8DJjm9NSOfr5ZIf79H7GN3fyFjkvq6N3JMj594Ty742JbrASW+0lWPTY4xfPY+J9MQi93Vt5J4cOfeeWNH9iRadg9XOqbau21ikMUznXjaW5QVO5TJjwUBPrOj+hNwTck+uLXc717I5oj0KnGzZcs0YvZ8j+xsZi9zXtc0QK7o/ubbcH6vASQU6JcvRa9O+edv1+7qf19bqrydWdH975K7FHuu95c+xR3l69wNmQYETAAAIZ2+86eTcToh18i66bRcAuq0LhTXteV+XtuexyouHWT7BKc+xlO9fyfa3lO9/qSdWdH9C7gm5J9G524SMbkcXOOmY1pL/R+6a471nH0c+ZiNjkXtC7slZc2/FqvWn85Q9CpyMVxwQPX7N8viTe0LuyVlzb8UambsW/aydU21d1zhkY5XGra1jGM/PQ+SekHsyMvdarJG527mWrUcXOJl8jFozXkXvZ+sxje6P3JOz5t6KRe5JdO42vzWywOnm5uY+n5Ly97ZLdNvs/UlPLC3587sX/V3T85g/zzn9LfLuB8yEAicAABCOAqfLC5xaFzzRbbP3J6NiRfcno2JF9yejYkX3J7U2XcTvVeCkJS9ukr2O9+jHRc4YK7o/GRUruj8ZFSu6PxkVK7o/iYy11yc4GY1VWjR2Pcb5SnR/MipWdH8yKlZ0fzIqVnR/MipWdH8yKlZvf1p0DlY7p9q6rnFIX61ZLhqn1oxhyil6H3vaZu9PRsWK7k9GxYruT0bFiu5PRsWK7m/vT3Ayj33OJbW22fuTUbGi+5NRsaL7k1GxovuTUbGi+5Nam81v8RV1SS1WdH975K7F2x6p/JvmqeUHzIQCJwAAEI4Cp8sLnJSf7UdJ29XutWl/ve2t/npiRfcn5J7UYkX3J9eWez4hE1ngZMd1vugYX3O8R+9jdH8jY5H7ujZyT46ce6ut1p/GregCp3L8skLNxxi/Wm3Rsch9XRu5J0fOvdU2MnctOgernVNtXbexyGz9BKc99vHIzw+5J+SejMy9Fiu6P6nlbudaNkcUWeCksSlftpxzRe/nyP7IPTlr7q02ck+ic7f5rZEFTvpaPOVUUo62fyXtm7ddam2t/npiRfcn0bG02GO9B4qbcCYUOAEAgHAUOP12sn2rPMdSvn8l299Svv+lnljR/Qm5J+SeROe+V4HTJXr2ceRjNjIWuSfknpw191asWn86T4kucLrEkR9/ck/IPTlr7q1YI3O3a6/aOdXWdW9c2oLn5yFyT8g9GZl7LdbI3O1cy9YjC5wuEb2frcc0uj9yT86aeysWuSfRuc9U4KT8ve1Sa9N+yda26Fiz5G7nyXtQ//nz+u7du998TZ1+x7svMCMKnAAAQDgKnP6/u88//9ydlFrjyy+/vM8bQLw9vqKO4x3AKJqIjCxwYvwCMJJde9XOqbauM4YBiGbnWjZHFFXgxHgFIBpfUffbtlqs6P72yN3Ok6Mpl/w51XNcPs/6W+fdF5gVBU4AACCcJoN0AaQTaF0I6KdO4KW8vba99ruXtpcXD1EFTq9evbp78uSJOznV8vz587u3b99+yjnPzSj3x77w2uNCjtwTck+ic88nZKIKnHS8/8//+T/dY7rFjveefRz5mI2MRe4JuSet5zi6v5GvmVasWn/2qQJRBU6Xnq8c+fEn94Tck7Pm3oo1Mne79qqdU21d1xj27Nkzd5xqsTGM5+chck/IPRmZey3WyNztXMvWowqcLr1mjN7P1mMa3R+5J2fNvRWL3JPo3G1+a/QnOCmfkvL3tktP2+z9SXQsO0+OpOcvfz5VFFc+x7XXKzAzCpwAAEA4TQZpEshO0HWinN/Wybxd8Nntke357fLiIarAqbau/vNYWuyCNKcLRtnaZv+946m1RceK7k/IPSH3pCd3jU/6qWMwqsBJ9J+++Xo+CSR57FLPPrbu09OfzB6L3Ne1kXty1twjC5xq6/n5isUs85CRj8nIWOS+ro3cE3Jf16ZF40o+5iyNR1vX8/HLaPHyEZ6fhNwTcl/XNkOs6P5E5z02fkQVOMnSNeMR5oii+xsZi9zXtZF7Mnvudo02usBJRVclm2f32jQ37223OfqtbdGxZsldS/434VJlcZP390m5ePcFZkeBEwAACGdvvOnkXCfu2qYTZjtptpN83daFwpr2vK9L2/NY5cXD1jcMt66XE+5azy9OAezPjr+RBU7i5QIAW+ncYev5Smnp98vzFS8PANjKxpZ8zFkaj7aul+OXaJuXDwB48nFkZIGTMF4B2ELjxuivqNMce0lz7ppr99p6ioRa/fXEiu5vj9zL9yh66e+IiuLy59H726S/b979gSOgwAkAAISjwKm+nk+UAXhcowucACDK1vOV0tLvc74CYE/5mLM0Hm1dZ/wCEGl0gRMAbBVV4LT1q3+fPn169/XXX9/Pt2v+XT890W2z99fqs3Wf8j2KHjoPbv0dMhQ34egocAIAAOEocKqvM+EOzIMCJwBHtfV8pbT0+5yvANhTPuYsjUdb1xm/AESiwAnA7KIKnJ48eeIWMrW8ePHiPod8Lr5kc/OlfK6+lM/dl3piRfe3R+7lexRb6dO1Wn+DRO32yV/AkVHgBAAAwlHgVF9nwh2YBwVOAI5q6/lKaen3OV8BsKd8zFkaj7auM34BiESBE4DZRRU4eQVMa2iOXXPuYnPuOc3Ne9ul1tbqrydWdH8SHat8j2IL/a1q/f0RtXOejLOgwAkAAISjwKm+zoUEMA8KnAAc1dbzldLS73O+AmBP+ZizNB5tXWf8AhCJAicAs5uhwKlW7CO1Ns3Ty9a26Fiz5F6+R7FW+XdKyuf55uaGc2ScCgVOAAAgnAqcNFGjk3mduOc/a7eX2vPbke3lxcPWNwy3rnMxAcyDAicAR7X1fKW09PucrwDYUz7mLI1HW9cZvwBEosAJwOyiC5y+++67+/lyLbpt23/66ad/bP11sTbloDl2+2fjkubhve35PyOXrOjHa+uJFd3fHrlr8ba3rClu4m8NzogCJwAAEE4FTjrB1sm8nbjnt/VT67qtC4XR7fnt8uJhdIGT1gGMZcff6AInLxcA2MrGk3zMWTr/KC39vsVh/AIQTWNKPuYsjUdb1y1GqcwDAGrysWN0gZOXDwDUaNyILHCy4qaXL19+KmySDx8+3G/PtxnNsWv+XT89PW2z9yfRsbSUfxNa9P5G+Vzqk5rybRQ34awocAIAAOH4irr6ul18Wiwterw8P//886bt8re//c3dLq379cSaoT+p7XN0rOj8pHa/2Z9HGRUruj/55Zdf7o/BkQVOreM9eh+j+5PZj7Oetms8zkY9j1Jr68lPevqLbot+zUjPc6IxbOv5Smnp99eer+zxmNTaZulvhtdpdH7SE6unbZbjqKctOj+JjtXTNvI1IxpX8jFnaTzaup6PX6Y2hskMj5nwOl5ui85PemLN0J+c8TUzy/No14syssCpdc4lPOfLbb25zxAruj/pec3M/pxE5ye1tln6a+2zxqvIAqePHz/ef1JTXsD0+vXr+7HpzZs3D7Ybm3PXXLtulzQ3723X79sc/pa26Fiz5K4l/5vQoj7K57F8bvU73n2BM6DACQAAhNMFliZmdHKuE3dt00m1nVjbSb5uWwHSUnve16Xteazy4kF55xcDrQu/Net/+MMf7p48eeJeAOZevHhx9/bt20955DmW8v0r2f6W8v0v9cSK7k/IPSH3JDp3Tf7sVeD06tWrruO9Zx9HPmYjY5F7Qu7JWXNvxar1p/MUO8/Kx6Cl85FS2d57vnLkx5/cE3JPzpp7K9bI3O3aq3VO1bPeew7G8/MQuSfknozMvRZrZO52rmXr0QVOveNV9H62HtPo/sg9OWvurVjknkTnbvNbkQVOWlTkZIs+0UmFTVpU6GTFTlr0e7qPchn5vPTEGvm89MbS4m0vqTg2fw71qU3l81qLD5wFBU4AACAcBU5p/dmzZw8mqVp+//vff8pNuYqt51pt2l9vu9TaomNF9yfknpB70pP77e3tbgVOayaqzdrjfYbHbJZY5L6ujdyTM+aucWuPAqc9zlfO+PgLuSfknpD7uja79mqdU/Ws956DCc9PQu4Jua9rmyFWdH92rmVzRNEFTntcM/bsp/Q8ptH9jYxF7uvayD2ZPXeb34oucLJPcNJPLVbUpJ82Pukr66zASflhPXvPoqTF254ri5u8vzl6bXj3Bc6EAicAABCOAqe0bhd+a1luylVsPad98rZLra3VX0+s6P6E3BNyT6Jz37PAyTumWyyn6H2M7m9kLHJf10buyZFz74mlCc09Cpy8MarF8jny40/u69rIPTly7j2xovsTu/ZqnVP1rHvjVIvls8c+Hvn5IfeE3JNry93OtWyOKLrAyRuTWiyv6P0c2d/IWOS+rm2GWNH9ybXlvkeBkwqXRLdV4GRFTPppt+33+ASn2NztPNmj6399UlPtuTP6m+XdHzgbCpwAAEA4CpzSul34rWV55DmW8v0rjbrwiu5PyD0h9yQ6d03+zFLgZDn17OPIx2xkLHJPyD05a+6tWLX+dJ4yQ4GT5XPkx5/cE3JPzpp7K9bI3O3aq3VO1bPujVMtlg/Pz0PknpB7MjL3WqyRudu5lq0/doGT5RG9n63HNLo/ck/OmnsrFrkn0bnb/FZkgZPky8uXLz9tV0FTvtgnPWl/laPY/ue0b952qbW1+uuJFd2f9MaqvQa0eNv1d6n1t8VQ3IRrQoETAAAIp8kgTdzoRH925cXDngVO9tG++cWhbmvRd5pr3S6ClJvdLkW3zd6fjIoV3Z+MihXdn4yKFd2f1Nr0H097Fzjlix3b0cd79OMiZ4wV3Z+MihXdn4yKFd2fjIoV3Z9ExtrzE5zsqwdsyb+CYNT5SnR/MipWdH8yKlZ0fzIqVnR/MipWdH8yKlZvf1p0DtY6p+pZt7HKaMk/ZaA2hkn0Pva0zd6fjIoV3Z+MihXdn4yKFd2fjIoV3d+oT3DKlzXjVfR+Sq1t9v5kVKzo/mRUrOj+ZFSs6P5kVKzo/qTWZvNb0QVOW6lwRzmWxTym1mb7sbUtOtbo3LcUOOn5bf1dEbXbPCdwLShwAgAA4eyNt/y/TOxEXre1zU7mdWK/pj3v69L2PFZ58bBXgVO+aMLKtpeTV8pTlJ/tR0nb1e612YVSqdVfT6zo/oTck1qs6P7k2nLXRf+eBU4qCLCiACtqXDreo/cxur+Rsch9XRu5J0fOvdVW60/j1l4FTjm90WZfTSCjxq9WW3Qscl/XRu7JkXNvtY3MXYvOwVrnVD3rNlaJxiktrYIBy2ePfTzy80PuCbknI3OvxYruT2q527mWzRHtWeCUF5ObGeaIovsj9+SsubfayD2Jzt3mt6IKnD7//PPfjElLnj9/fj9WWo42dua0b952/b7u57Vpv8Vr64kV3d8euWvJ1/X3p/U3RdSuuYH8fsA1oMAJAACEo8AprecXfTbZrgkr21ZOXlkeeY6lfP9Koy68ovsTck/IPYnOfe8Cp9xSgZPl1LOPIx+zkbHIPSH35Ky5t2LV+tN5yqgCJ/vKAYkcv2Z5/Mk9IffkrLm3Yo3MXYt+ts6petbLsUpjWKvAyfLh+XmI3BNyT0bmXos1Mnc717L1PQqcbExaU+BkeUTvZ+sxje6P3JOz5t6KRe5JdO7RBU6vXr26e/bs2W/GpZqnT5/eff311/f5KX/99PS0zd6f9MaqvQa02O2//OUvD54nKZ87fYKX/mblfQDXggInAAAQjgKntJ5f+GmCSosmrGxbOXmlfAHsZ8RX1Ikd73ZsC8c7gEtprNmzwEmf2qQlL24Sxi8AEbToHKx1TtWzbmOVxjCNU/rZKnDycgMAsXMtmyPas8DJFq4ZAfSI/oo6b11f22njoWLd3t7ez7GXNOeuuXavTbl62/X7Noe/pS061sjcxR7Pkhb9LP/uSPm86Dkv7w9cEwqcAABAOAqc0rpNUokmqLRowsq22eTVmzdv7tctjzzHUr5/JdvfUr7/pZ5Y0f0JuSfknkTnbv/hptt7FTjZJzeV/5FbO9579nHkYzYyFrkn5J6cNfdWrFp/Ok/Zs8DJ1IoDIsavWR5/ck/IPTlr7q1YI3PXop+tc6qedY1LutaycWvtGMbz8xC5J+SejMy9Fmtk7nauZet7FDjlynmiGeaIovsj9+SsubdikXsSnbvNb40scLL5tNLI56Un1sjnpRWrRYvulz/+ej5UyJZvy58T4FpR4AQAAMJR4JTWWxNXokkrLVYIYbkpV7H1XKtN++ttl1pbdKzo/oTcE3JPenLXf5vtWeCkYzk/pnM9x/sMj9kssch9XRu5J2fMXePWiAKn8is2I8cvOerjL+SekHtC7uvatOgcrHVO1bOucUkFTeVin0ZXG8OE5ych94Tc17XNECu6PzvXsjmivQucIs65evZTeh7T6P5GxiL3dW3knsyeu81vjSxwUrGN8kGbnh973NbSkj/2ei7K56OnX+CMKHACAADhNBmkSSCddOvCzYqLtF7e1kn/mvZaX5e2a8lzH1XgZP+Vp0Xb7XeUl+VqeZbsQslTa2v11xMruj8h94Tck+jc9y5wsuM8X/7P//k//7jlH+/R+xjd38hY5L6ujdyTI+feE0sTzHsVOJXjl95YWzpfOfLjT+7r2sg9OXLuPbGi+xMtOgdrnVP1rNvYZOwTnC655urdxyM/P+SekHtybbnbuZbNEe1R4GRFTLasOeeK3s+R/Y2MRe7r2maIFd2fXFvuj1HgZPNpJeWoeXavTfvmbbc5eq/N9tFr64kV3V9v7jV6nLXY465CsvK52NoncGYUOAEAgHCaDNKJuU70dSGgn/ltb9vI9vx3tOS571ngtIblMcuFVy1WdH9C7kntOY7uT64t93xCZo8Cpy0sp559HPmYjYxF7gm5J2fNvRWr1p/OU/YqcNrC8jny40/uCbknZ829FWtk7nbt1Tqn6ln3xqkWy4fn5yFyT8g9GZl7LdbI3O1cy9b3/gSnJZZH9H62HtPo/sg9OWvurVjknkTnbvNbowuclFNJOWq/vTbtm7ddv2+PSanVX0+s6P7W5J4/Vy16jPVYa7HnoHwetvQHXAMKnAAAQDh7481O6rVNJ+J2Mm4XALptF3DW/vbt27unT5+6EzueJ0+e3N8nj+X1X8tFi36a6AKn3/3ud27eHu23chTlbbdL0W2z9yejYkX3J6NiRfcno2JF9ye1Nv0X1F4FTp9//rl7bHsuPd6jHxc5Y6zo/mRUrOj+ZFSs6P5kVKzo/iQyliY/9yhwmuV8Jbo/GRUruj8ZFSu6PxkVK7o/GRUruj8ZFau3P7v2ap1T9az3noNJ9D72tM3en4yKFd2fjIoV3Z+MihXdn4yKFd2fnWvZHFF0gdPIa0bpaZu9PxkVK7o/GRUruj8ZFSu6PxkVK7o/qbXZ/Nbor6jzchm537P3J/aYteiaXo+nPdZavL8h+jvk3R+4ZhQ4AQCAcJcUOL148cKd2GnRfaIKnEQXE2uVFx2lV69e3RdheXnnvvrqq7tvvvnmPk9RfrYfJW1Xu9em/fW2t/rriRXdn5B7UosV3Z9cW+72H2c61jVJ4B3XNd4xnus93qP3Mbq/kbHIfV0buSdHzr3VVutP45a96eaNUzXemJWbZfxqtUXHIvd1beSeHDn3VtvI3O3ayxunWvLxqlyXPa65evfxyM8PuSfknozMvRYruj+p5Z6fa810zRi9nyP7I/fkrLm32sg9ic7d5rf+8pe/uONRjTc2mbLd+wQnW89Zjl6b9s3brt/X/bw27bd4bT2xovtr5b6G3jcpH2st+bpQ3AT4KHACAADhLilw8iZ21shjef3XctGin7nyYiKSxRU9RvnEWS7PsZTvX2nURWN0f0LuCbkn0bnnEzJv3rxxj9Mo6t+LW+rZx5GP2chY5J6Qe3LW3Fuxav3l5w7euBMlzyt6/Jrl8Sf3hNyTs+beijUyd7v28sadSDoHy3OwuKU99vHIzw+5J+SejMy9Fmtk7uU8jfr2xpkordi56P1sPabR/ZF7ctbcW7HIPYnO3a7Tvv32W3d8iVDOa93e3t7nU1L+3nbpaZu9P5M/H2vpcfQKzbTYbX3iX+0aHAAFTgAAYAcUONVZXMPCwjJ+0fi097Fu7JhXTBYWFpaIxSY6vTEnSn6+wvjFwsISteg6Uddl3rizBxvLFJeFhYVl7ZK/qaxxxBtfojBHxMLCcsmia7XRBU46lytpzl3jmdemuXlvu37f5vC3tEXHuqS/fPxewz4V0Hustein2m3eEoCPAicAACb19u3bTV/Xpt/Vfby+RosocMqXfD9fv359v+3jx48PtuexvP5ruWjRz1x5gRFJ/4Ghj/cF8Lj2/vSmnBcfAC4xYgzT5LUXGwB6aewaeQ4misd4BqCXN65E0zjlxQaANbxxJZLNl6vAqfapQvlcfMnm5kv5XH0pn7sv9cSK7q+Ve42Km8rHNi920nJzc0NxE7ACBU4AAExqS3GT0X28vkZTgZPoxN0+UtUuunRbFwCaZNZtXSjk7dqPDx8+3NNtFTL99NNPn/ZRt7VNi4qdbHsey+u/louWMv/8QiOacvC2Aziv2n9nAcDMGLsAnAXjGYDZMU4BmJXNl/PJvvsuei8lf38CQB0FTgAATMoKd7by+noMKh7qoX3Q8t13393ftoIm2z8t+u+2svDJ62sN778ivIu5KBQ4AdeHyWoAR8TYBeAsGM8AzI5xCsCsap9ulIv+FKQzfYKT4uaPp8Z7fVJTvk3/iO3dF4CPAicAACZlhTtbeX0dycuXL++LmLwCJxU2adHvaLuWPfY7v8CIpgInXcjU7NGeb1tq99Ae355vW2r30L69Pd+m297xuRdNXOyxT7kjtufblto9tG9vz7dd2u6hfXt7vm2pPeeNNdEUp2efckdsz7cttXto396eb7u03UP79vZ821K7p9bujTUjlHn05m/2aM+3XdruoX17e77t0nYP7b9tz7dd2u7paffGlD3Mes2Yb7u03UP79vZ826XtHtp/255vu7Tdc2m7N6ZEqhX/5Chw8nnFTeVzVssLQB0FTgAATMoKd1ToY4sV/eTbbNmj0KeXPhXJ+7SkNVoFTvraunJR0ZPavL7WGP0JTgAAAAAAAAAAzG5NAU6tQEh62mbvT1ptok9lyh9HFbJS3ATEoMAJAIBJqWjn9evX90U8+pl/epEVOOl2WRDk9TWavjNaxUO3t7f3/82g2zqpF93Wf568f//+/rb+EyJv1z6ooEnFTHZbRU7lfooW+708ltd/LRctZf75hQYAAAAAAAAAANeGIpw2FToZPVai9x3yx5BPbgJiUeAEAMCkVLRjhUy6bQU+KnTKC5zyIij9ntfXaCpw0icj6cTePq7VTvB1W9vsvxzso16tPd9XLfbpTfaVdLaf+Tb9fh7L67+Wixb9zOUXG9GWPlYYwDjeMboXLz4AXMIbayJ5MQHgUt54szcvDwBYyxtX9uDFBoAl3ngSyYt57bzHqcb7ff1jdvl+BID1KHACAGBSeQFPXvSTFzjZYp9iJF5fo11a4NTjSAVO3nYA57V18gMAZsDYBeAsGM8AzI5xCsCsGJ9iUdwEXI4CJwAAdqKvP7uEinaWCpy0TW32NW667fW1hbcvW11S4PTFF1/c78cWz58/p8AJwLSYDAJwRIxdAM6C8QzA7BinAMyK8SmGHseo916Aa0eBEwAAO1Bxj4p8yuKhLVS4o2ImLfpaNrutoqaywEmLfYqT/gtA91dhj37e3t7eF/botr7/WWrtlrO3T1tcUuD09u3bu6dPn34qXlry5Zdf3t/nSAVOuqCp2aM937bU7qE9vj3fttTuoX17e75Nt73jcy83Nze77FPuiO35tqV2D+3b2/Ntl7Z7aN/enm9bas95Y000xenZp9wR2/NtS+0e2re359subffQvr0937bU7qm1e2PNCGUevfmbPdrzbZe2e2jf3p5vu7TdQ/tv2/Ntl7Z7etq9MWUPs14z5tsubffQvr0933Zpu4f237bn2y5t91za7o0pkbyY1857nFp0H71XUr4HAaAPBU4AAOzACpy8trWsgMc+xUmLipy0rfyKOi32+2sLe7x2FTc9doFTrT3v69L2PJYW/cx5FyIAAAAAAAAAAFyLnoKea6f3cOz9B3uPAkAcCpwAANhBZIHTVmsLe7z2yAIn/XeJYsyOAicAAAAAAAAAAB6iwKmOQibgcVDgBADADiIKnL744gu3gKlFX+02S4ETn+DkW/pYYQDjeMfoXrz4AHAJb6yJ5MUEgEt5483evDwAYC1vXNmDFxsAlnjjSaTvv//+fp4fib3vAOBxUOAEAMAOdKJ7aYHT27dv754/f+4WMnn0u19//fXqwh6vnQKnX3kXc1FU4ORtB3BeIyacACAaYxeAs2A8AzA7xikAs7I5dgCYBQVOAADsIKLAacmlhT1eOwVOv/Iu5qJQ4ARcHyarARwRYxeAs2A8AzA7xikAs7I5dgCYBQVOAADsYFSBkwp2xG5727a039zcUOD037yLuSgqcNJjY/RYsbCwjF1snPOO0T0ono53FhYWlojFzjG98SbKmzdvHpyvsLCwsEQsGr90XeaNO3vRdR/XXCwsLFsWm9MSjSHe2BJF51w6r7NrRsYrFhaWLYvGjm+//dYdX6LYfDkAzIICJwAAdmCTEl5bFBXuaHJYky1W0KOfWtdtrz2/7bXrosje+L+ETQapT/WtbYojum3xdNsKkJba874ubc9jadHPnHcxF8XyktbrJM+xlO9fyfa3lO9/qSdWdH9C7gm5J9G55+OcJpO94zSS5d4aX3v2ceRjNjIWuSfknpw191asWn/5uYM35kSxN9skevya5fEn94Tck7Pm3oo1Mne79vLGnWh5fha3xPPzELkn5J6MzL0Wa2Tu5TyN+vbGmCh5frPMEUX3R+7JWXNvxSL3JDp3u07bs8Apvy4EgFlQ4AQAwA5akxJR7MInv9DJL5S89vwiy2tvvYG1hfb9/fv397EsJ/3Uenlbeaxpr/V1abs32e1d0PV49erV3ZMnT+4+++yzVf7pn/7p7ptvvvlNjqVWm+1vKd//Uk+s6P6E3JfbovuTa8v99vb20zin3/OO3R57He+1fRz5mM0Si9zXtZF7csbcdX4VXeA0evzqfUxGxiL3dW3knpD7uja79vLGol6XjGF77COvrYTc17WR+3JbdH9Syz0/1zrKNWPPfur3ex7TI7++yH1dG7kns+du81sUOAG4NhQ4AQCwAwqc/n73/fff3/erOPqZ3/a2jWzPb9sku9Fzl1/I/cd//MeD9ZK+1k+/Y3788cdPt589e+ZOUrU8ffrUzTdX2y7RbbP3J6NiRfcno2JF9yejYkX31ypw0nGbr5fy47089jX57B3TLXa8R+9jdH8yKlZ0fzIqVnR/MipWdH8yKlZ0fzJzLJ1f6Txr6/lKPl5JPoZdcr4yw2MiM/Qno2JF9yejYkX3J6NiRfcnZ4zVuo9de2nsycencrzK121bzSXnYBK9j9Fts/cno2JF9yejYkX3J6NiRfcno2L13MfOtWyOaOmasVwvrxNze41XPfspo/qTUbGi+5NRsaL7kzPGiu5PRsWK7s/mt3744YcH41BJ409+O9cas8TeRwCAmVDgBADADihwOu5X1C29Ybhl3ZucWqPMsZTvX8n2t5Tvf6knVnR/Qu4JuSfRuefjnP47t3b8evL28ne9Y3kN5dGzjyMfs5GxyD0h9+Ssubdi1fqzc8yt5yulvN0bm9ZQPkd+/Mk9Ifek9RxH9zfyNdOKNTJ3u/ZqnVNtXffGpzWUB8/PQ+SekHsyMvdarJG5l/N5S9eMS+s5byxaQ3lE72frMY3uj9yTs+beikXuSXTuNr+1tcCp1uatq+jTiw0Aj4kCJwAAdlBOiOzBLnzyC538Qslrzy+yvPb8jf9LUOD0621vYmoN5aZcxXLNtdq0v952qbVFx4ruT8g9IfekJ/f8E5xmKHBSTj372LpPT38yeyxyX9dG7skZc7evTZmhwEn5jHxMRsYi93Vt5J6Q+7o2u/ZqnVNtXffGpzUsJ56fhNwTcl/XNkOs6P7Kr6ibocBJeUXvp/Q8ptH9jYxF7uvayD2ZPffeT3CqtXnrFDgBmBEFTgAA7IACJwqcJJ+Q+umnn+5jvXz58n79u+++e7Bui9aVm3IVyzWnffK2S62t1V9PrOj+hNwTck+ic9+7wClfdJyvOd6j9zG6v5GxyH1dG7knR869J9bar6jbMp5pXHr9+vU/RqZfF60/xvjV85hITyxyX9dG7smRc++JFd2faNE5WOucauu6xqaclo8fP97fvuSaq3cfj/z8kHtC7sm15V5+Rd0eBU75EjFeRT9H0f2NjEXu69pmiBXdn1xb7hQ4AbhWFDgBALCDvQqcdPGiC5696Hu3KXCKL3DKF5usyievPnz48Om22socS/n+lWx/S/n+l3piRfcn5J6QexKde17IGV3gpIIAKwqwosY1x3vPPo58zEbGIveE3JOz5t6KVevPzjGjC5xyeqNNY5Vu7zF+zfL4k3tC7slZc2/FGpm7Fv1snVNtXc/HLxuzvIIBbwzj+XmI3BNyT0bmXos1MvdyPm+vAie7bjQzzRFF90fuyVlzb8Ui9yQ6d5vfosAJwLWhwAkAgB2UEyJR8gshu/DJL3SW2vOLLK89f+P/EhQ4/Xq7NlmVr9vPN2/efPpd5am89dMT3TZ7fzIqVnR/MipWdH8yKlZ0f1Jryws59/gEJ+MVOEUe79GPi5wxVnR/MipWdH8yKlZ0fzIqVnR/Ehlrr09wyqkwQGOYbo8+X4nuT0bFiu5PRsWK7k9GxYruT0bFiu5PRsXq7U+LzsFa51Rb121M0nWWFo1hZYFTbQyT6H3saZu9PxkVK7o/GRUruj8ZFSu6PxkVK7q/vT/BycaqWoHTqHMuqbXN3p+MihXdn4yKFd2fjIoV3Z+MihXdn9TabH6LAicA14YCJwAAdkCB09/vL4AUS3H0UzGkvL22vfa7l7ZryXMfXeCkxSbgjZ4Ty1O3S5a716Z99La3+uuJFd2fkHtSixXdn1xb7vk4t1eBUz45na9r8Y736H2M7m9kLHJf10buyZFzb7XV+tO4tVeBk31agBU3yejxq9UWHYvc17WRe3Lk3FttI3PXonOw1jnV1nUbkzSGaczSz7LAScvWa67efTzy80PuCbknI3OvxYruT2q527mWzRHtVeBky9prxuj9HNkfuSdnzb3VRu5JdO42v0WBE4BrQ4ETAAA7oMDp7/eTQOpX7GLMbiu25WK3R7bnt7XkuY8ucMp/2u/ac6L8dLvUatP+etttv722nljR/Qm5L7dF9yfXlvvt7e2uBU72yU35f+RecrzX9nHkYzZLLHJf10buyRlz37PAyXjFAZHjV+9jMjIWua9rI/eE3Ne1adE5WOucauu6jVU2bm0Zw/bYR15bCbmvayP35bbo/qSW+94FTjkbmzRPtDReRe9n72N65NcXua9rI/dk9txtfosCJwDXhgInAAB2QIETX1EntYmrcr0siFCeotztdq62XaLbZu9PRsWK7k9GxYruT0bFiu5vzwInHcP5sWyWjvfofYzuT0bFiu5PRsWK7k9GxYruT0bFiu5PZo5lX5uyZ4GTjVO6PXr8kq2PiczQX6vPnvsIuV/WNnt/csZYrfto0TlY65xq67rGIxU0lYvGrEuuuaRnH6PbZu9PRsWK7k9GxYruT0bFiu5PRsXquY+da9kc0Z4FTlvOuSRyP2VUfzIqVnR/MipWdH9yxljR/cmoWNH9UeAE4FpR4AQAwA4ocKLASfKJq3yyylu3RRNYZY6lfP9Ktr+lfP9LPbGi+xNyT8g9ic49H+eiC5zsuM4XHeNLx3vPPo58zEbGIveE3JOz5t6KVevPzjGjC5zK8cveUNtj/Jrl8Sf3hNyTs+beijUydy362Tqn2rqusSnnfYJTbQzj+XmI3BNyT0bmXos1MvdyPi+6wOnNmzf/GIl+Xdaec0XvZ+sxje6P3JOz5t6KRe5JdO42v0WBE4BrQ4ETAAA7KCdEouiCRhdJurjRhY9+at0ukC5tzz/Z5BIUOP16W5NSPZSbchXLNddq0/5626XWFh0ruj8h94Tck57c9/6Kuq2UU88+tu7T05/MHovc17WRe3LG3DVu7VHg1EP5jHxMRsYi93Vt5J6Q+7o2u/ZqnVNtXffGpzUsJ56fhNwTcl/XNkOs6P7sXMvmiKILnHoor+j9lJ7HNLq/kbHIfV0buSez584nOAG4VhQ4AQCwgz0LnIwubsrb3rbabW8bBU6xBU6ff/65OznV8uzZs/vclKtYrjntk7ddam2t/npiRfcn5J6QexKd+14FTv/jf/wP95huseM9eh+j+xsZi9zXtZF7cuTce2Lt8RV1l5yvHPnxJ/d1beSeHDn3nljR/Ylde7XOqbau/+53v3PHqZY111y9+3jk54fcE3JPri33Pb+i7pJrxuj9HNnfyFjkvq5thljR/cm15U6BE4BrRYETAAA72LPAKaqwx2vXRREFTnEFTq9evbqfjPImqTzPnz+/e/v27W9yLOX7V7L9LeX7X+qJFd2fkHtC7kl07vk4F1ng9L//9/++e/LkiXtse/LjvWcfRz5mI2ORe0LuyVlzb8Wq9WfnmJEFTpecrxz58Sf3hNyTs+beijUyd7v2ap1TbV3/wx/+0H0OxvPzELkn5J6MzL0Wa2Tu5XxeZIHTJdeM0fvZekyj+yP35Ky5t2KRexKdu81vUeAE4NpQ4AQAwA7KCZEo+YWQXfjkFzpL7flFlteev/F/Ce27LoDUr+LkP2u3l9rz25HtNsluIgucvHX1n8fSoser9PPPP7vbJbpt9v5kVKzo/mRUrOj+ZFSs6P6k1qbFjsPIAqd37949WC8ngTS2evlIz35EPy5yxljR/cmoWNH9yahY0f3JqFjR/Ul0LI0nW89XSku/n5+vRI9fEv2YzBAruj8ZFSu6PxkVK7o/GRUruj8ZFau3Py0aV/IxZ2k82rqej1/Gy8VE72NP2+z9yahY0f3JqFjR/cmoWNH9yahY0f1JPi8WWeC0dM3IHNHlbbP3J6NiRfcno2JF9yejYkX3J7U2LRo3KHACcG0ocAIAYAe6uNCFhtd2CRXkHKXASZNAimU55bf1U+u6rTxGt+e3teS567nLL+S2XvgtrZcT7loHMJYdfyMLnMTLBQC2svEkH3OWzj9KS79vcRi/AESyMSUfc5bGo63reRxT5gEALfn4MbLASbx8AKBG4wYFTgCuDQVOAADsQBcY117gpMegFtvLc6k97+vS9jzWYxc4AXg8owucACDK1vOV0tLvc74CYE/5mLM0Hm1dZ/wCEGl0gRMAbEWBE4BrQ4ETAAA70KQqBU4UOHnrTLgD86DACcBRbT1fKS39PucrAPaUjzlL49HWdcYvAJEocAIwOwqcAFwbCpwAANiBJlUjC5ysIEcFOqLbKtyx7Xb70vbb21sKnDa+Ybh1nQl3YB4UOAE4qq3nK6Wl3+d8BcCe8jFnaTzaus74BSASBU4AZkeBE4BrQ4ETAAA70KRqVIGTCnFUmKOfVoiU31bb2nbvd/NtFDhR4ARcEwqcABzV1vOV0tLvc74CYE/5mLM0Hm1dZ/wCEIkCJwCzo8AJwLWhwAkAgB1oUjWywCmq8Cfvy2vnK+oocAKuCQVOAI5q6/lKaen3OV8BsKd8zFkaj7auM34BiESBE4DZUeAE4NpQ4AQAwA40qXrtBU6auFGM2T12gZM95gDGseNvdIGTlwsAbKXxZOv5Smnp9zlfAbAHG1vyMWdpPNq6Xo5fom1ePgDgyceP0QVOXj4AUKNxgwInANeGAicAAHagCVQ+wYlPcPLW8wl3e53kF6ZGXxdoXxlYurm5cbdLra3VX0+s6P6E3BNyT6Jzt2NOx+DIAqc8dil6H6P7GxmL3Ne1kXty5Nx7YmkcsfOsfMxZOv8oLf1+fr5icctc5MiPP7mvayP35Mi598SK7k/s2isfc5bGo63r+fhltHj57LGPR35+yD0h9+TacrdzLRs/RhY4zTJHFN3fyFjkvq5thljR/cm15W7jBQVOAK4NBU4AAOzAJiW8tq0iC3/yvrx2u0DS7Uto3/UY1GJ7eS61531d2p7H0qKfRnnnF3JbL/zK9T/84Q93T548ufvss8+aXrx4cff27dtPeeQ5lvL9K9n+lvL9L/XEiu5PyD0h9yQ693yciy5wevXqVdfx3rOPIx+zkbHIPeFxT86aeytWrT87x9x6vlIq23vPV478+JN7Qu7JWXNvxRqZu117tc6petZ7z8F4fh4i94Tck5G512KNzL2cz4sucOodr6L3s/WYRvdH7slZc2/FIvckOneb36LACcC1ocAJAIAdlBMil8gvjPILIbvwyS90ltrzvrz2/I3/S1DglNafPXvmTlZ5nj59ep+jKG+7XYpum70/GRUruj8ZFSu6PxkVK7o/qbXZf8XpeI8ucFozUW0uPd6jHxc5Y6zo/mRUrOj+ZFSs6P5kVKzo/iQyliaY9yhwmuV8Jbo/GRUruj8ZFSu6PxkVK7o/GRUruj8ZFau3P7v2ap1T9az3noNJ9D72tM3en4yKFd2fjIoV3Z+MihXdn4yKFd2fnWvZHFF0gdPIa0bpaZu9PxkVK7o/GRUruj8ZFSu6PxkVK7o/qbXZ/BYFTgCuDQVOAADsILrASRcyI+Rv/F+CAqe07k1StShPUX62HyVtV7vXpv31trf664kV3Z+Qe1KLFd2fXFvueSFndIGTd0y3WE7R+xjd38hY5L6ujdyTI+feaqv1p3FrjwInb4xqsXxGPibRsch9XRu5J0fOvdU2Mne79mqdU/Wse+NUi+Wzxz4e+fkh94Tck5G512JF9ye13O1cy+aIogucvDGpxfKK3s+R/ZF7ctbcW23knkTnbvNbFDgBuDYUOAEAsIPoAifRbbug0W1d+Oin1rV9TXvel9eev/F/CQqc0ro3QdVieeQ5lvL9K9n+lvL9L/XEiu5PyD0h9yQ693yce+wCJ8upZx9HPmYjY5F7Qu7JWXNvxar1Z+eYj13gZPkc+fEn94Tck7Pm3oo1Mne79mqdU/Wse+NUi+XD8/MQuSfknozMvRZrZO7lfN5jFzhZHtH72XpMo/sj9+SsubdikXsSnbvNb1HgBODaUOAEAMAOygmRS+QXRvmFkF345Bc6S+15X157/sb/JbTvmgRSLMtJP7Ve3lYea9prfV3abpPsZq8Cp5cvX97H+umnnz5tK9dF+QLYz55fUadj+Lvvvrs/tm2xY1sLxzuAS2ms2avA6cOHD/djlRbdtrFKC+MXgAhadA7WOqfqWc/HJzsXe/Pmzf26FsYwAGvZuZbNEe1R4FReMzJeAejBV9QBuFYUOAEAsAMKnP5+fwGkfhVHP/Pb3raR7fltLXnuexQ45ZNX+WRVuS6WR/5clZS3Pc8l7Ze3PX+eSz2xovsTck/IPYnOPR/n9ipw0k8rarR1LbXjvWcfRz5mI2ORe0LuyVlzb8Wq9WfnmHsUOBm9yabl9evX9+taIsevWR5/ck/IPTlr7q1YI3PXop+tc6qe9Xx8sqVVMGD58Pw8RO4JuScjc6/FGpl7OZ+3V4FTXkxuWuNV9H62HtPo/sg9OWvurVjknkTnbvNbFDgBuDYUOAEAsAMKnPiKOpNPTGnJJ6vKdVGelqtytPVcq037623X79vjUuqJFd2fkPtyW3R/cm25397e7lrgZNYUOFlOPfs48jGbJRa5r2sj9+SMuWvcGlXgpHFM61oix6/ex2RkLHJf10buCbmva9Oic7DWOVXPuo1NGqs+fvx4H6dV4GT57LGPvLYScl/XRu7LbdH9SS13O9eyOaI9Cpw0Jq0tcLK8ovez9zE98uuL3Ne1kXsye+42v0WBE4BrQ4ETAAA7oMCJAieTT0xpySerynVRjka55+tL2yW6bfb+ZFSs6P5kVKzo/mRUrOj+RhU42ZKv14736H2M7k9GxYruT0bFiu5PRsWK7k9GxYruT2aOpQnmvQqc9IlNtlhxk2gZNX7J1sdEZuhPRsWK7k9GxYruT0bFiu5PzhirdR8tOgdrnVP1rGtcsjHMfrYKnPKcovcxum32/mRUrOj+ZFSs6P5kVKzo/mRUrJ772LmWzRHtVeCULzY2aZlhjii6PxkVK7o/GRUruj85Y6zo/mRUrOj+KHACcK0ocAIAYAeXFDipECenCxYV45S3dXGjn1rX9oj2/I3/S1DglNbziSkt+WRVuS6WR55jKd+/ku1vKd//Uk+s6P6E3BNyT6Jzzws59yhwsk9uKv8jV0vteO/Zx5GP2chY5J6Qe3LW3Fuxav3ZOeYeBU5mTXGA5XPkx5/cE3JPzpp7K9bI3LXoZ+ucqmfdxiqNW1vGMJ6fh8g9IfdkZO61WCNzL+fz9ihwyuVjVH7bWB7R+9l6TKP7I/fkrLm3YpF7Ep27zW9R4ATg2lDgBADADsoJkbV0AaSLFtGFTXnb27alPb/tbaPA6fELnJSj2HPiiW6bvT8ZFSu6PxkVK7o/GRUruj+ptd3c3Oxa4KTCprVfN2A59exH9OMiZ4wV3Z+MihXdn4yKFd2fjIoV3Z9ExtrzE5zMmq/YtHxmeExkhljR/cmoWNH9yahY0f3JqFjR/cmoWL39adE5WOucqmddxUzeYuNZbQyT6H3saZu9PxkVK7o/GRUruj8ZFSu6PxkVK7q/EZ/gZB7znEtqbbP3J6NiRfcno2JF9yejYkX3J6NiRfcntTab36LACcC1ocAJAIAd9BY46eKkLMyJLPzJ+/La7T8/dPsSFDil9XxiSks+WVUu+m9j5SnKz/ajpO1q99q0v972Vn89saL7E3JParGi+5Nryz0f5/YocCoXO+bLJT/eo/cxur+Rsch9XRu5J0fOvdVW60/j1l4FTvmSF2qWy57jV6stOha5r2sj9+TIubfaRuauRedgrXOqnnUbr8T7BKd8WXvN1buPR35+yD0h92Rk7rVY0f1JLXc717I5oj0KnD5+/PiPEWn9OVf0fo7sj9yTs+beapv9cT9y7ja/RYETgGtDgRMAADugwOnv9xdAiqU4+qkYUt5e21773UvbteS571ngtIblYTnnuRnlbs9zSfvobc+f51JPrOj+hNwTck+ic8/HuT0KnLawnHr2ceRjNjIWuSfknpw191asWn92jrlHgdMWls+RH39yT8g9OWvurVgjc7drr9Y5Vc+6N061WD48Pw+Re0Luycjca7FG5l7O5+1R4LSF5RG9n63HNLo/ck/OmnsrFrkn0bnb/BYFTgCuDQVOAADsgAKnv99PAqlfUcz8tmJbLnZ7ZHt+2ybZTXSB0+9+9zt3ksrz5Zdf3ucLYD97fkXd559/7h7bHo53AD001uxR4MT5CoAR7NqrdU7Vs845GIAodq5lc0TRBU6MVwCi8BV1AK4VBU4AAOyAAqfjfkWd6GJurfyiz/Pq1au7J0+euJNVuefPn9+9ffv2Uw55jqV8/0q2v6V8/0s9saL7E3JPyD2Jzj0f5zRR4x3XNd4xnus93nv2ceRjNjIWuSfknpw191asWn/5OaY3TtV4Y1Zu5Pg1y+NP7gm5J2fNvRVrZO527eWNUy3euJXrHcN4fh4i94Tck5G512KNzL2cz1OBkzcu1XhjVO4Ic0TR/ZF7ctbcW7HIPYnO3ea3/vKXv7jjUY03NtXU9gUAHhMFTgAA7IACp2MXOHkXdFEsrtjrRD9LKrzQRNrWNv1HYN6P0e/rfl5bT6zo/oTck1pb9PMo15a7jjkb5968eeMep5HseLfx1cupZx9HPmazxCL3dW3knpwxd40jdo7pjTlR8vOV6PGr9zEZGYvc17WRe0Lu69rs2ssbd6Ll45gWL5899pHXVkLu69rIfbktuj+p5Z6fa4nGEm+MiXK0OaIjv77IfV0buSez527zW99++607vkTIxygAmAUFTgAA7MAuMry2FhXgiC4eVJijn/k2r732uz3tt7e39xdGXm5b2IRMrahI28oCpKX2vK9L2/NYWvQz513QRbG4xibPAIwz4lg3KqJSLPu7AACXsnM1b8yJYmMX4xeASBq/dF3mjTt70FimeFxzAdginxfTHI43vkRhjgjAJTRuUOAE4NpQ4AQAwA4uKXDShYNY0ZG22Xbb1tvu/W6+jQKnX3kXdFH0HznexwMDGM87Rvdwc3PjxgeAXt5YE42xC0A0b6wZgfEMQC9vTNkD4xSAXt6YEsXmzwFgJhQ4AQCwg0sKnMrCnMjCn7wvr13FTRQ47V/g5G0HcF57TzgBwB4YuwCcBeMZgNkxTgGYkc2fA8BMKHACAGAHFDj9/b6QRzFmR4ETgL0xWQ3giBi7AJwF4xmA2TFOAZgRBU4AZkSBEwAAO6DAiU9watHEFYDH5x2fe/HiA8AlvLEmmhcXAC7hjTUjeLkAwBremLIHLzYALPHGkyg2fw4AM6HACQCAHVDgRIETAAAAAAAAAABHZPPnADATCpwAANgBBU4UOAEAAAAAAAAAcEQ2fw4AM6HACQCAHWwtcFLhjagYp7ztbavdvrT95uaGAqf/5l3QRXn37p37ccIAxvOO0T14sQHgUt54E8mLCQCX8sabvXl5AMBa3rgSzYsLAGt4Y0oUmz8HgJlQ4AQAwA62FDjpQsEKcvRT67qtwhz9jGzPb3vtfILTr7wLuigqcPK2AzivvSecAGAPjF0AzoLxDMDsGKcAzMjmzwFgJhQ4AQCwg60FTq3CnqX23sIerz2ywOn9+/f3sSwn/dR6eVt5rGmv9XVpOwVOAPbGZDWAI2LsAnAWjGcAZsc4BWBGmj8v580B4LFR4AQAwA4ocPr73ffff3/fr+LoZ37b2zayPb89usBJNHEF4PF5x+devPgAcAlvrInmxQWAS3hjzQheLgCwhjem7MGLDQBLvPEkir2PAAAzocAJAIAdUODEV9QBAAAAAAAAAHBENn8OADOhwAkAgB1Q4ESBEwAAAAAAAAAAR2Tz5wAwEwqcAADYAQVOFDjVvHv3zv04YQDjecfoHm5ubtz4ANDLG2uiMXYBiOaNNSMwngHo5Y0pe2CcAtDLG1Oi2Pw5AMyEAicAAHawtcBJRTgz0IQKBU77Fzh52wGc194TTgCwB8YuAGfBeAZgdoxTAGZk8+cAMBMKnAAA2AGf4ESBU40KnN68eQNgAt4xuofvv//ejQ8Al/DGm0h6o82LCwCX8sacPTGeAbiEN65EUgyuGQFcwhtbItj8OQDMhAInAAB2QIHT3+8nZxRLcfRTMaS8vba99ruXto8ucFJcvT5Ej7UeKxYWlrGLjj0dg94xGk0TTXa8s7CwsEQsdo7pjTlRbOxi/GJhYYlcNH7p+tMbd/ag6z2Nl1xzsbCwbFk0Zth5kMYRb3yJonMujVN2zsV4xcLCsmXRuPHtt9+640sEO5cCgJlQ4AQAwA40MWFvPi3RhYJdLKj4pSxQWmrPC5SW2vO+vHZdFIluX0L7/v79+/t+RTHz21ZolN8e2Z7f1lLm713QbfHq1au7J0+e3H322WddXrx4cfcv//Iv9/mVuYlyt+e5pP31tufPc0lxtsaK7k/IPSH3JDr3fJyL+C+3iOP966+/3ryPIx+zkbHIPSH35Ky5t2LV+svPMb0xaYvHGr9mefxHPp/knpB7MjL3VqyRudu1lzcmbRUxhn3zzTc8PxlyT8g9GZl7LdbI3Mv5PPXtjUFbHG2OKLq/6OeI3JNZcm/FIvckOneb36LACcC1ocAJAIAdUOB0PV9Rp687KD179sydlNri6dOn9/larjltr7Vpf73tUmtr9dcTK7o/IfeE3JOe3G9vbz+Nc1ovj+d8vVQe67L38T7DYzZLLHJf10buyRlzVwF5b4HTLOOXHPXxF3JPyD0h93Vtdu3ljVEt5fgVNYb9/ve/5/nJkHtC7uvaZogV3V9+rrXmmtFbL51pjii6v5GxyH1dG7kns+du81s//PDDg3FoiTdO1WhMtPEQAGZBgRMAADugwOm4BU7Ku7zo27ruTUb1UL6Wa0775G2XWpv6qvXXahvVn5B7Qu5JdO55gZMmasrjN18v5e122zt2e3i5Ss8+Rj9mI2OR+7o2ck+OnHtPLH0FsJ1n2XiUj0m19ZLavbGoh5enzP74R/c3Mha5r2sj93VtI3O3ay/vnGrrujce9YjexyM/P+SekHtybbnbuZbNES1dMy6tizf29Ijcz+jHrdXfyFjkvq5thljR/cm15b62wCkfl7aOYRoTbTwEgFlQ4AQAwA7WFDip4MaKbnRRUt7Whc2adq1re0R7/sb/JShw8iejtrIcS/n+lWx/S/n+l/LHo1SLFd2fkHtC7kl07nkh50wFTlv3ceRjNjIWuSfknpw191asWn92jjlTgdNRH/+Rzye5J+SejMy9FWtk7nbt5Z1TbV33xqMePD8JuSfknozMvRZrZO7lfN5MBU6jnqPo/qKfI3JPZsm9FYvck+jcbX6LAicA14YCJwAAdlBOiJR0caILF12giN32tkW257e9bRQ4xRc4vXnz5j6Gfmr99evX9+tabJv89NNP99s+fvz4aZvy9djz5elpm70/GRUruj8ZFSu6PxkVK7o/qbXd3NzsUuD04cOH+2NYi25r257H+8jH7MixovuTUbGi+5NRsaL7k1GxovuTyFh7fIJTvnz33Xf32x7rfKXnPjJDrOj+ZFSs6P5kVKzo/mRUrOj+ZFSs3v606BzMO6faum5jkLFzsZcvX24aw6L3sadt9v5kVKzo/mRUrOj+ZFSs6P5kVKzo/vb8BKf8mlHL1vHKy1eiH4PZ+5NRsaL7k1GxovuTUbGi+5NRsaL7k1qbzW9R4ATg2lDgBADADtYUOOlCRLeXCnuW2vO+ltrzvrx2+88P3b4EBU6/nbyyiap88sqKIESTVlrKySvlXdJ25e+1aX+97fr9Wn+ttlqs6P6E3JNarOj+5Npyz8e5yAInKwrQsa5Fx/qW4z1yH6Mfs5GxyH1dG7knR8691VbrT+NWdIGTsTfSdPuxxq9WW/TjH90fuSfknsySe6ttZO5adA7mnVNtXbcxSPIxqywY6L3m6t3HIz8/5J6QezIy91qs6P6klruda9kcUXSBk103mojxqmc/ox+3Vn8jY5H7uraRscg9ic7d5rcocAJwbShwAgBgBxQ4/f3+Akj9Kk7+s3Z7qT2/HdmuJc89ssBJbLKqLHDSxJWWfAJe28o3DPPcjPK257mkffO2589zKX9dlGqxovsTck/IPYnOPR/nIgucjFfgtOZ437qPIx+zkbHIPSH35Ky5t2LV+rNzzL0KnGxc2nP8muXxH/l8kntC7snIx70Va2TuWvTTO6faum5jkGhMEi3leKWlNYbx/CTknpB7MjL3WqyRuZfzeZEFThp7agVOa8arUc9RdH/RzxG5J7Pk3opF7kl07ja/RYETgGtDgRMAADugwOnv95NAimU55bf1U+u6rTxGt+e3teS5jypwsiII/dQbilJOXil3ALH2+oq6/PjWsZyvc7wDiPLu3bvwAie90aYlH5MYvwDsQYvOwbxzqq3rNgZpDNO4ZGNZXhzAGAZgKzvXsjmi6AInW7hmBHApvqIOwLWiwAkAgB1Q4MRX1Jl8sqpczyestL2cvLIcS/n+lWx/S/n+l/LHo1SLFd2fkHtC7kl07vk4F1ngZBPS+X/kbjnet+7jyMdsZCxyT8g9OWvurVi1/uwcM7LAydSKA6LHr1ke/5HPJ7kn5J6MzL0Va2TuWvTTO6fauq7xx8YqjVu9YxjPT0LuCbknI3OvxRqZezmfF1ngZPIxast4Neo5iu4v+jki92SW3FuxyD2Jzt3mtyhwAnBtKHACAGAH5YRIKb84yS988gsdu7BZas/7WmrP+/La8zf+L0GBkz9xVa6LLWrzJq+Ud0n7UWvT/nrb9fv2uJRa/dXaovsTcl9ui+5Pri3329vbXQqctOTFTRJxvNf2ceRjNksscl/XRu7JGXPXuLVXgZONUxq79hy/eh+TGR5/cn+I3BNyX9emRedg3jnV1nWNPyoGKBcrDNCyZgyL3kdeWwm5r2sj9+W26P6klruda9kc0R4FTtHnXD372fuYHvn1Re7r2sg9mT13m9+iwAnAtaHACQCAHawpcNKFi12k2AVOfntte+13e9rzN/4vQYFTmrjKJ6u8dS2amNftcvJKuSvnUm27RLfN3p+MihXdn4yKFd2fjIoV3d8eBU52XOeLjvEtx7uXq8zwmMmoWNH9yahY0f3JqFjR/cmoWNH9ycyxNMEcWeBUjl9WqPlY45dsfUxkhv5kVKzo/mRUrOj+ZFSs6P7kjLFa99GiczDvnGrruo1BpvYJTmrTsvWaS3r2Mbpt9v5kVKzo/mRUrOj+ZFSs6P5kVKye+9i5ls0RRRU4aWzKl55zrsj9lFH9yahY0f3JqFjR/ckZY0X3J6NiRfdHgROAa0WBEwAAO1hT4KQLERXZ2EWJbuuCxYpv7HZku/e7+TYKnOILnC5hOZby/SvZ/pby/S/lj0epFiu6PyH3hNyT6Nw1xkUXOEXYuo8jH7ORscg9IffkrLm3YtX6s3PMqAKnCEd9/Ec+n+SekHsyMvdWrJG527WXd061dd0bj3rw/CTknpB7MjL3WqyRuZfzeXt8glOvUc9RdH/RzxG5J7Pk3opF7kl07ja/RYETgGtDgRMAADsoJ0RK+cVJfuGTX+jYhc1Se97XUnvel9eev/F/iWsvcPr888/dyagtvvzyy/t8Pdonb7v0tM3en4yKFd2fjIoV3Z+MihXdn9Tabm5uQgucHut4H/mYHTlWdH8yKlZ0fzIqVnR/MipWdH8SGSvyE5xmPF/puY/MECu6PxkVK7o/GRUruj8ZFSu6PxkVq7c/u/byzqm2rkeMYU+fPg3fx5622fuTUbGi+5NRsaL7k1GxovuTUbGi+9vjE5yYI4rtT0bFiu5PRsWK7k9GxYruT0bFiu5Pam02v0WBE4BrQ4ETAAA7oMDp73fv3r27jzE7m2Q3EQVOr169unvy5Ik7KbXGV199dfcv//Ivn57PkrbrefTatE/edv1+rb9WWy1WdH9C7kktVnR/cm255+NcRIFTxPH+9ddfh+5j9GM2Mha5r2sj9+TIubfaav1p3IoqcJpx/Gq1RT/+0f2RezLyeRwZ68i5t9pG5m7XXt451db1va+5evfxyM8PuSfknozMvRYruj+p5W7nWjZHFFHgdLQ5ouj+RsYi93VtI2ORexKdu81vUeAE4NpQ4AQAwA4ocLruT3Bqrav/PFbtdZLnWMr3r2T7W8r3v9QTK7o/IfeE3JPo3PNxLqLAyaioM18vJ4Fa42vPPo58zEbGIveE3JOz5t6KVevPzh22nq+Uln4/P1+JHr9mefzJPSH35Ky5t2KNzN2uvfIxZ2k82rqej19l3BLPz0PknpB7MjL3WqyRuZfzNBEFTmbpmrGMnYvez9ZjGt0fuSdnzb0Vi9yT6NztOo0CJwDXhgInAAB20JqUkPziJL/wyS907MJmqT3va6k978trb72BtYW98VaL7eW51J73dWl7Hquc7Fbe+YXc1gu/pXX1n8djYWEZv9hxOLLASTFZWFhYIhadq209Xykt/X5+vsL4xcLCErXYNXI+5iyNR1vX8/HLKC4LCwvL2iWfFxtZ4CQsLCwsWxad91DgBODaUOAEAMAOdHFBgRMFTt66N+EO4HGMLHACgEhbz1dKS7/P+QqAPeVjztJ4tHWd8QtApNEFTgCwFQVOAK4NBU4AAOxAk6pegZOKalRwM6ubmxsKnDa+Ybh1nQl3YB4UOAE4qq3nK6Wl3+d8BcCe8jFnaTzaus74BSASBU4AZkeBE4BrQ4ETAAA70KSqV+BkhTe1YhuvMGepPe9rqT3vy2vnE5wocAKuCQVOAI5q6/lKaen3OV8BsKd8zFkaj7auM34BiESBE4DZUeAE4NpQ4AQAwA40qXrtBU6aBFIsy0k/tV7eVh5r2mt9XdpOgRNwvShwAnBUW89XSku/z/kKgD3lY87SeLR1nfELQCQKnADMjgInANeGAicAAHagSdVrL3DSBZD6VRz9zG9720a257cpcAKuFwVOAI5q6/lKaen3OV8BsKd8zFkaj7auM34BiESBE4DZUeAE4NpQ4AQAwA40qXrtBU56DGqxvTyX2vO+Lm3PY1HgBFwvCpwAHNXW85XS0u9zvgJgT/mYszQebV1n/AIQiQInALOjwAnAtaHACQCAHWhSlQInCpy89XLCXY+3Hi8A49hxqONPx6hostlue6y9dmyvmaz2cgGArTR2bT1fKS39fnm+4uUBAFvZtWY+5iyNR1vXy/FLuOYCsIWNVTK6wInxCsAWOu+hwAnAtaHACQCAHejiQhcZ5XYV2FhxjRXh2Lbytgpz1rTX+uppv729fTCR08susCymtimO6LbF020rQFpqz/u6tD2P9ZgFTvY60c+SJtF0Eem1abvavTZNmHnbW/31xIruT8g9qcWK7k+uLXeNcTbOaRzIj89Ib968+XSsi01UezlF72N0fyNjkfu6NnJPjpx7q63WXz6W5GPO0vlHacv5ysjxq9UWHYvc17WRe3Lk3FttI3O3a698zFkaj7auK46NX0ZLmYvssY9Hfn7IPSH3ZGTutVjR/UktdzvvsfFD98/HmK1jUk4x83Xll49Vij/DHFF0f+SenDX3Vhu5J9G5a7wSCpwAXBsKnAAA2IEuMvIJEaMCG6PCm/K2ty2yPb/tbaPAKa7A6dWrV3dPnjy5++yzzzZ58eLF3du3bx/kWMr3r2T7W8r3v9QTK7o/IfeE3JPo3G0CSLcVMz9+e116vPfs48jHbGQsck/IPTlr7q1Ytf7sHHPr+Uop6nzlyI8/uSfknpw191askbnbtVc+Ri2NX611jWHPnj1zx6kWG8N4fh4i94Tck5G512KNzL2cz1NxQW0MWrNuLh2vovez9ZhG90fuyVlzb8Ui9yQ6dwqcAFwrCpwAANhBOSFi7EImvzjJL3zyCx27sFlqz/taas/78trzN/4vQYHT/9f1ZqHRfZU3gHg3NzfhBU4c7wBG0X/2RhY4MX4BGMmuvfIxamn8aq0zhgGIZudaNkcUVeDEeAUgms1vUeAE4NpQ4AQAwA4ocPr7/QWQYimOfiqGlLfXttd+99J2m2Q3UQVO3qTUFpZznptR7vY8l7SP3vb8eS71xIruT8g9IfckOvd8nFPM/Pjt5R3DW/Ts48jHbGQsck/IPTlr7q1Ytf7sHDOqwMkbk7Y48uNP7gm5J2fNvRVrZO527ZWPUUvjV2vdG5e24Pl5iNwTck9G5l6LNTL3cj4vqsDJG4O2iN7P1mMa3R+5J2fNvRWL3JPo3G1+iwInANeGAicAAHZAgdPf7yeB1K8oZn5bsS0Xuz2yPb9tk+xmlgIny0/PT6nVpv31ttt+e209saL7E3JfbovuT64t9/yrOPV7+fHbyzuGt+jZx5GP2SyxyD0Z+RyT+7q2Ubnr/Gq2AqdRj8nIWOS+ro3cE3Jf12bXXvkYtTR+tda9cWmLPfaR11ZC7uvayH25Lbo/qeVu51o2RzRLgVP0fvY+pkd+fZH7ujZyT2bP3ea3KHACcG0ocAIAYAcUOPEVdflE1Js3b+7j6KfWX79+fb/+8ePH3/yO2rSuXJW7fpZq2yW6bfb+ZFSs6P5kVKzo/mRUrOj+9ixw+vDhw/1xrEW3tW3N8R69j9H9yahY0f3JqFjR/cmoWNH9yahY0f3JzLE0wbxHgVO+fPfdd/fbHmP8kq2PiczQn4yKFd2fjIoV3Z+MihXdn5wxVus+WnQOlo9RS+NXa93GJmPnYi9fvlw1himn6H2Mbpu9PxkVK7o/GRUruj8ZFSu6PxkVq+c+dq5lc0TRBU75NaOWiPGqZz9lVH8yKlZ0fzIqVnR/csZY0f3JqFjR/VHgBOBaUeAEAMAOKHCiwMmbvNIElbbZ5JUWexOxnLzKcyzl+1ey/S3l+1/qiRXdn5B7Qu5JdO75OKeY+fHby45373hec7z37OPIx2xkLHJPyD05a+6tWLX+7BwzusDJ/PTTT/fjk27vNX7N8viTe0LuyVlzb8UambsW/czHqKXxq7VuY1c5ZuUFA1pqYxjPz0PknpB7MjL3WqyRuZfzeXsUONmYZNaMV9H72XpMo/sj9+SsubdikXsSnbvNb1HgBODaUOAEAMAONCHy888/f7qoMbogEd3WhUu5rae99rs97fknm1yCAid/sl0TVPl6/h/G3huGYrnmWm32XHpqbdGxovsTck/IPenJfcRX1OXH86XH+wyP2SyxyH1dG7knZ8x976+oU4GTfXrAXuOXHPXxF3JPyD0h93VtWnQOlo9RS+NXaz0fvzR2iZa8wKk1hiknnp+E3BNyX9c2Q6zo/vb+ijqNU7UCpyPMEUX3NzIWua9rI/dk9tz5BCcA14oCJwAAdmD/8aWLjfzixS5I8m1ee+13L233fjffRoHT2AInrWsCSxNcR3vDMLo/IfeE3JPo3PcucMonp9ce79H7GN3fyFjkvq6N3JMj594Ta6+vqNMbbVo0Rtm2xxi/eh4T6YlF7uvayD05cu49saL7Ey06B8vHqKXxq7Wej2Eap2wsywucWmPYHvt45OeH3BNyT64t972/ok5jkS1brhmj93NkfyNjkfu6thliRfcn15Y7BU4ArhUFTgAA7MAKnHTbLjp0WxckKrSpFdtYu27rwmZNe97XUnvel9euiyIKnMYWOGnyXYtNctnkVZ5jKd+/ku1vKd//Uk+s6P6E3BNyT6Jzz8c5xcyP3152rNskdP4fuWuO9559HPmYjYxF7gm5J2fNvRWr1p+dY0YXOJlacUDk+DXL40/uCbknZ829FWtk7lr0Mx+jlsav1rrGIXBn9zQAAJVWSURBVBurNE5tHcN4fh4i94Tck5G512KNzD2fz5PoAieTj1Frxqvo/Ww9ptH9kXty1txbscg9ic7d5rcocAJwbShwAgBgB/mESH5hYxcy+cWJ167bdmGz1J73tdSe9+W152/8X0L7/u7du/sYs9OS5z66wEnr+mmLTV55uQK43M3NTbXAqTyeS2o36sdu27GuJS9uEo53AJF0frVngZONURqfGL8ARNOic7B8jFoav1rrGof01ZrlosIAxjAAPexcy+aI9ipw4pwLwKVsfosCJwDXhgInAAB2QIETn+CUT1yVk1XluuhjyLXY5FWeYynfv5Ltbynf/1JPrOj+hNwTck9qz6P05J6Pc0uT1aW8Pb+dH9f5omN8zfHes4+zv1alJxa5J+SenDX3Vqxaf3aOGVngVI5fVqi51/g1y+NP7gm5J2fNvRVrZO5a9LN2TrV13cYmU/sEJ2svxzCen4fIPSH3ZGTutVgjc8/n8ySywMk+ncmWLedc0fvZekyj+yP35Ky5t2KRexKdu81vUeAE4NpQ4AQAwA7yCZH8wsYuZPKLE69dt+3CZqk972upPe/La8/f+L8EBU6/nWzfSrkqR+VdarVpf73t+n17XEo9saL7E3JfbovuT64t99vb210KnC7Rs48jH7NZYpH7ujZyT86Yu8at6AKnS4x8TEbGIvd1beSekPu6Nrv2qp1TbV33xqUt9thHXlsJua9rI/fltuj+pJa7nWvZHFFkgdMlovez9zE98uuL3Ne1kXsye+42v0WBE4BrQ4ETAAA7oMDp2AVOupiryb+WSvKLvtznn3/uTkqt8fTp0/tclbt+lmrbJbpt9v5kVKzo/mRUrOj+ZFSs6P7yAif9tGNZX0WQH9sla7djPL996fEevY/R/cmoWNH9yahY0f3JqFjR/cmoWNH9ycyxNMFs51n52FSy85Vy7CrNNn7J1sdEZuhPRsWK7k9GxYruT0bFiu5PzhirdR+79iqvqUrl2JaPW/n6ntdc0rOP0W2z9yejYkX3J6NiRfcno2JF9yejYvXcx861bI7okmvG3JHmiKL7k1GxovuTUbGi+5MzxoruT0bFiu7P5rdUiFmOR7nWXPbSOgVOAGZEgRMAADvQm04///zz/cVGfhHi3b60Pb99abt9d7e3T1scucBJ8gu5Xq9evbp78uSJOznV8vz587u3b98+yLGU71/J9reU73+pJ1Z0f0LuCbkn0blrjLNxTl8B4B2/W116vPfs48jHbGQsck/IPTlr7q1Ytf50fmVvunnj0VaPMX7N8viTe0LuyVlzb8Uambtde3njUY9LxzCen4fIPSH3ZGTutVgjc8/PtUR9e+PPVkeaI4ruj9yTs+beepxmf9yPnLvNb3377bfuuBOhti8A8JgocAIAYAc2IaKLEF0I2AWMftqFjm3z2nVbFzbR7fltrz1/4/8SFDjVWVzRY6TFHvec/gvH/hNnS5sVqXlqbdGxovsTck/IPenJXeOTfuoYjCpwarFjPo9d6tnH1n16+pPZY5H7ujZyT86au73p5o05UfLzFYtZ5iEjH5ORsch9XRu5J+S+rk2Lrsu8cSeazvPsmlCLl4/w/CTknpD7urYZYkX3J3auJTon8saYKEebI4rub2Qscl/XRu7J7LnbNRoFTgCuDQVOAADsIP+PL10I2MWAFd7Uim28wpyl9ryvpfa8L6/dLpB0+xLad308rmJZTvqp9fK28ljTXuvr0nYtZf7eBV0UfWS5HhujC1t92heAcWx88o7RPeg4V0wvFwDYysYUb7yJoq8msHMVxi8AUTR+jTwHE321CtdcALawcy3Z+59iynMuxisAW+w9Tum8rZw3B4DHRoETAAA7oMDp7/cTyepXcfQzv+1tG9me336MAidvO4Dz0qS1tx0AZsW4BeAsGM8AzIwxCsDM7H0EAJgJBU4AAOyAAie+oq6GAifg+jBpDeBoGLcAnAXjGYCZMUYBmJnNnwPATChwAgBgBxQ4UeBUowInfboVgMe191cN5Lz4AHApb7yJojfbvJgAcKmR52CKpa978vIAgDVGfEWdFxcA1uIr6gBcGwqcAADYAQVOxy1wUt75hdzSf9OpPffjjz/+ZltO/efxADwejQPl8Zyvl/Jj+ebmprmuSSYvJgBE2Hq+IvkYVY5ZJc5XAOxJ40w+NpVjVb5u22rK8ez9+/duTADosXTN6K3XcM0IYA8//PDDg3GopPEmv51bui7kvArAjChwAgBgB3pT6Oeff74vrjkSXdRQ4NR+w/DSdd4wBOahiZr8+CyP11LeXv5u+fWTTFYD2NPW85XS0u9zvgJgT/mYszQebV1n/AIQaemacWk9xzUjgD1sLXCqtXnrjFMAZkSBEwAAO9Ckqn2CU84Kb2rFNl5hzlJ73tdSe96X184nOP363OlizpT/yeJ9QlN+4be0zoQ7MA9NVufH8hq1Y5vJagAjLZ2veP+Jm49RS+ucrwDYU35NtTR+aT0fn7Sttc74BSDSJdeMJa4ZAexBBU7eWGTK8658HNK21jrjFIAZUeAEAMAONKl67QVOookgTeCoT10QiW4r3u3t7f1t5bGmPe/r0vY8Vl7gpMcmv4jbg74X3Z4jAI/DxkLvGI3E8Q5gD4xfAI5K45fGF2/cicL4BSDKiHMuxfBiA8Bae55bcU4FYEYUOAEAsINrL3AS62t2eq70mHgXcXti4h0Y7zGOddHxrtgc8wB6aQzZuyjAw/kKgAhcbwE4mpHjlmJ5OQDAkj3HKs6jAMyKAicAAHZAgdMx6LHwLuBGs+cEQDwb97xj7zHwZhuAtWYavxi7AGw1yxjG+AVgi8catxirAPTwxpMIjEcAZkaBEwAAO6DAaV72GHgXb4+NCS0gxszHudHxrhw55gHkNCbMPH5xrgJgCddaAI5qhvGLcQrAWnuNWerXiwcAs6DACQCAHViBk37mVEj0/v37e7qtbd9///39hUPertsqQFrTnve11J735bUr57MWOO110bcHJt+BPkc6znMc8wA0fmks8MaIGTFuAchpDDvKeRjjF4DSbOOX8vHyBACjcxlv/LgU4w+AI6DACQCAnahQSAVDuZ9//vnOFrvtbdOytl3L2t9dateiQqczOcpEu8cm3739AvArHeNHPs5zOua1Lxz3wHU4w/il/HXe6+0fgPPTGHCk4syc8mb8AjDruZjGKC9fAJA9zr/s2g4AZkeBEwAAg+jTk7yLB6DlP/7jP9ztAM6L4x4AAGB/nHMBmBljFIBRKG4CcCQUOAEAMIAuEpiYQA9eN8D14bgHAADYH+dcAGbGGAVgBIqbABwNBU4AAOzMPu6aiQn04HUDXB+OewAAgP1xzgVgZoxRAPZmX9kLAEdCgRMAADv605/+9OmCQRMTGC+/aDsib58AJN5xc3TefgI4H+/4Pypv/wCcnzceHIm3TwCuizc2zMLLFwDEGzO2orgJwFFR4AQAwI50oWAXDVEXH7guvG6A68NxDwAAsD/OuQDMjDEKwF4obgJwZBQ4AQCwk7y4SZiYQA9eN8D14bgHAADYH+dcAGbGGAVgL3/84x/d9zMA4AgocAIAYAf/+Z//+ZsLByYm0IPXDXB9OO4BAAD2xzkXgJkxRgHYA8VNAI6OAicAAILpIsG7eLi5ubmfnMi9e/fuN9tyZ2wfGdN7Ho4m3zfpeXzybUvtHtrj2/NtS+0e2n9t946ZM7iWvxf5tqV2D+3b2/Ntl7Z7aF/f7h37R5XvY2mmx9zjtefblto9tG9vz7dd2u6hfXt7vq3W7o0HR+Odc9n+edvNHu35tkvbPbRvb8+3Xdruof237fm2S9s9Zbs3LsykHKO27l+ppz3fdmm7h/bt7fm2S9s9tP+2Pd92abunp90bM9aguAnAGVDgBABAMO/iQS65+MD14nUDXB+OewAAgP1xzgVgZoxRACLpGye89zIA4GgocAIAINCbN2/cCwhhYgI9eN0A14fjHgAAYH+ccwGYGWMUgCgUNwE4EwqcAAAIogsF7wLCMDGBHrxugOvDcQ8AALA/zrkAzIwxCkAEipsAnA0FTgAABFgqbpLyu/Nlj+/gzs3YPjKm9zwcUW3/PF57vm2p3UN7fHu+bandQ/uv7d7xcgbX8vci37bU7qF9e3u+7dJ2D+3r271j/6jyfSzN9Jh7vPZ821K7h/bt7fm2S9s9tG9vz7fV2r3x4Gi8cy7bP2+72aM933Zpu4f27e35tkvbPbT/tj3fdmm7p2z3xoWZ5LnK1v0r9bTn2y5t99C+vT3fdmm7h/bftufbLm339LR7Y4aH4iYAZ0SBEwAAF/rjH//oXkAAAPa1ZVIHAGbC+AXg6BjHABwd4xiAo1ozflHcBOCsKHACAOBCb968cS8iAAD7YkIawFExfgE4OsYxAEfHOAbgqJbGL71f4b2PAQBnQIETAAAXoLgJAB4PE9IAjorxC8DRMY4BODrGMQBH1Rq/KG4CcHYUOAEA0Ekf8+pdRLTo4gNjec/D0Xj7BeA/7m5ubtxj5gy8/QVwHmcbv7x9BHBuZxnHvH0DcB2OMI55eQOAeGMGxU0ArgEFTgAAdPjjH//oXkQAAMapTegAwOwYvwAcHeMYgKNjHANwVLXxS+9ZeO9lAMCZUOAEAEAH7wICADAWE9IAjorxC8DRMY4BODrGMQBH5Y1fFDcBuBYUOAEAsJE+6rW8gAAAjMeENICjYvwCcHSMYwCOjnEMwFGV4xfFTQCuCQVOAABs8J//+Z8PLh4AAI+HCWkAR8X4BeDoGMcAHB3jGICjyscvvV/hvY8BAGdFgRMAACvpPyHyCwkAwONiQhrAUTF+ATg6xjEAR8c4BuCobPyiuAnANaLACQCAFShuAoD5MCEN4KgYvwAcHeMYgKNjHANwVBq/KG4CcK0ocAIAYIU3b964FxMAgMfDhDSAo2L8AnB0jGMAjo5xDMBRvX//3n0PAwCuAQVOAAAsiPr0Jl14/L//9/8w0Bk+eUv/jePtG4BfnbEA9fvvv3f3FcC5nGX84hwXuF5HH8c45wIw6zimvLx8AUC89zAA4FpQ4AQAwIJysuPm5ubB+hrqw+sb+1OR01En3vmoYWCdox7jNRq3vP0EcD7ffvutOw4cBeMVgKOfh3n71MN78xHAMajYcbZPc+IcCwAAwEeBEwAADZroKCcZykkPrS9NhDAx8fiONvFOcROwjXccHZW3fwDOS+eJ3lgwO85VABiNB944cQQRY5nmDbT8/e9//42ff/7Z3S49bb39/e1vf3O3S3Ssnv568pOeWD1t0flJrc/o3KPzk+hYPf1FPydaZilyYg4RAACgjgInAAAa/vrXv7qTDebdu3cP1r1iJ978mcdRipx4zQDbHbVAoKRxyts/AOd3pGJszlUAlI5a5BQxnv3yyy/3vLZ/+7d/qxYr/Ou//qu7XTnV8urpT7+v+3lt0bHIPRmZeysWuSet3FXk9MMPP7jjxEi1/QUAAMCvKHACAKBh6b+3fvzxxwfr+vo63ce+xq42qWI0CVr+1xj2pf/W6/mawb0pJ+XW+k9DAD57Q0mTwd7xdSRlgZO3vwAuU3sTegZ6080bG2ZibwzqE0vsTX0AY5RjxmyOei7m7csWem5ub28/FU/kNCcgXpsKNLztrfv09CejYkX3J+SeRMci90TniDq3ecxxTHl4YwwAAAASCpwAAKgoJzXKYifv05rK9dZ/XmnixCZQSt9///3d+/fv3TZ9apS3Xb+v+21tGxlrhtw1+awiovx5moEWb19GPja9sXhNJiNzr8WK7k9mz93GUo2tRy9yyv9uaLza+nei9zGs9Se8dpPoWOS+ri06Vj5mzGjmcSwvwtTjaEUXJRVue9tVACBeW+0+0tPfyFhHzr0nVnR/Qu5JrT8dc5KPFzPSGHakT6STS4sK9Pzo+cyLJczsRR0jY5H7ujZyT0bmrnkiOz98jHFMOZRjCwAAAH6LAicAACr0plg+2aCJ5nx9yR/+8Ie7Fy9e3H322Wer6Hffvn17H1sTLvmb3DlN4njb9fu6n9dmEzZe28hYM+Rub2yqT+9528OrV6/unjx54j7vnvy1wPP6ELkntVjXmHtZrKB+vGNxNpeMDdGPYa0/4bWb9MQi92SW3MsxY0ba38cuELhkjOp5Dcz+mjpr7q1Y5J7MkLtdx3htMzpSkVNevNnDitC8tp7XziyvRXJPZs+9FYvck1bu3vnhqHGslhMAAAB+iwInAAAcmtRY+nSmUtn+v/7X/3Lf/GnRm0iapMF+/v3f//3TGwOaRMqfs71seXPQ8FoA1sv/29ZoYts7HmfC2AA8Dm/MmNW3337rjh8jMEYBc9En1h2pwElGXW9F8PJfyz7BSUUVJT133naptfXcR2aIFd2fjIoV3Z+cMVZ0fzIqVus+tfPDvccxipsAAAC2ocAJAACHJie9iQfjFT+V27w3fdZQfE2ujPovtZGxZshdE1b5GwPqO3/e9uA9z2soP57Xh8g9qcW6xty9/7YV9ecdk7Pwjvs1tG/Rj2GtP+G1m/TEIvdkltxrY8astB/eGLI3b/xZQzn3vAZmf02dNfdWLHJPZsi9vI45Cu2nN8bMpvZ8rGEFTnrOS3oNqG+vTc+1t12/b6+5UnR/I2OR+7o2ck9G5l47P9S2fKzw5gO3rJeOdE4KAAAwAwqcAABwLE1AlF9XV/6+Psbae8NnDU2sjJwUGhlrhtz//Oc//+aNAfWRP3/RvOd5DeUl2he7ndP+22Owpa3Wn/TEiu5vZKwj594TK7o/mSH3VrGCjnvvuJyBd9yvoX2Ofgx7+pMZnv+e/oTck2vL/WgFTqKxbPTXPXnjzxrKVc+LnXvl9PjrefHa7Pny2qL7GxmL3Ne1kXtS6+/9+/eHLHAS7as3zszGy30NvqIuIfdkZO6tWOSetHKnwAkAAOAYKHACAKCgyZB8ssGbjFiaoFAf9ibPd999d2eLbpfbbLHf10SMJmr00xPdduRYPff5/vvv3TcGNMnlPZcR7LmVn3766f75fvny5f1667WgnCxvm4jLtdq0/952qbVFx4ruT8g9Ifdk6eumynF9Fnas58uavxPaZ57/ZIbcpScWua9ri451pK+oK40sctJ48/r163+MQL8uWl8ao/S463mx56BUa+u5j8wQK7o/OWOs6P5kVKzo/mRrrNp1zFHMej6WU45e7m/fvr178eLFp3Fuib6u85//+Z/vn0sAx1A7P6TACQAAYC4UOAEAUCi/nq78tKaSN3mhCQpNbNqbQvqpN6S0qLDF3hTSbdFib2orB01g1yZXNfHibdfv635em72h57WNjDVD7npuam8MqK/8uYxiE935UhY41V4LIx+b3li8JpORuddiXWPutf+2zalv7/h8TDrO9ffBCgasAHLN2BD9GNb6E167SU8sck9GPset/taMGTPTfnljSjSNN7mPHz/effjw4f720hjV8xqY/TV11txbscg9mSH31nXMUegxGf1pdFvUnpMtxU1G99F9e147s7wWyT2ZPfdWLHJPWrnXzg+1LR8nthY0leulI5+TAgAAPAYKnAAAyGhiYetkRFkApQIp9aVJTXvzR7ftzR9N6LbeFNJEjCZq9NPT0xbdn4yKFd3ff/3XfzXfGNBkWP58rqHXSItNcuevCT3v5br3WpBRj42MihXdn4yKFd2fjIoV3Z+MitW6z9pPY9FktncMr6XjuVy/RD42yNoCJ+1z9GMY3TZ7fzIqVnR/MipWdH8yKlbrPkf+BCej8xWNI/mYtKQcg1r0STH5+CQqcNI4pdutMUpjrR5/exOxVGuz58dri+5vZCxyX9dG7kntPkf+irqSxplyfMrXS/n4tDcv33ws3ELPW89z3bpPT38yKlZ0f0LuSXQsck8ocAIAADgGCpwAAMho0tibcDDexES5zSYnNKGZv1ltb/7kBU622H/Di/23mSZYdLukiRpvu35f99vaNjLWDLmveWOgNQH17t27B+tLk1dat+dW8jcE83VbytfCyMemNxavyWRk7rVY0f3J7LnXJqM9+THaOtZlzfG9dt0bO+xYz8cCKxDo/TvR+xjW+hNeu0l0LHJf1xYda8uYMTMVIZXjSr6e2zJeic6XbMzR+KPFipukNUbpsdfzop8lPSf2fJZq95Ge/kbGOnLuPbGi+xNyT2r9Hf0r6nI//PDDgzFnyxhVtpW29OWte38fbHzbSs9b9GtnhteikPtyW6u/kbHIfV0bX1EHAABwDBQ4AQCQKT8uv5yIWPq6Ot3f+tKE5lKBkxW55HRfTbjoDTjrK6dJHG+7fl/389pswsZrGxlrhtw1eTRjgVPttcDz+hC5J7VY15j70Quc7G+FfVWd9P6diH5OhNdu0hOL3JNZcqfAaXk9L3AyKmLSpzjp9tIY1fMamP01ddbcW7HIPZkh9zXXMUdx9AInLeV4mC/2e7pvz2tnltciuSez596KRe5JK/fa+aG25WPEpWNM6QznpAAAACNR4AQAwD94kxZbJybs6+lEE5oqZtKiN63ttt4Iar0ppEka7Off//3fD1Pg5OUP4Le2fN1Ufoy2jnVZc3yvXa8VOOnvg5a8uEkYG4D9nOEr6mR0gVNeuN8ao/Smoh5n/fTU2nruI6P6k1GxovuTUbGi+5NRsaL7k8hYfIKT31ba0pe37v19yMc4G/+8gk/Rom0zjYcyKlZ0fzIqVnR/csZY0f3JqFit+/AJTgAAAMdAgRMAAP+g//LSxIM+pUk/lyYhvEmLfGLCJkDtzSAtKnIqJ0Ht94zuq8mVUf+lNjLWDLnrOTpKgZNy4Xl9iNyTWqxrzL3237ae/BhtHeuy5vheu14rcLIxIF80HvT+nYh+ToTXbtITi9yTWXLfMmbMbESBUzlGWTFma4zSc6XnRT9Lek7s+Sxpu9q9tp7+RsY6cu6tNnJPZsh9zVdtH8VRC5w05mlRcdOaAic9b9GvnZGvRXJPyH1d25Fzr50fals+Rlw6xpTOcE4KAAAwEgVOAAD8g4qPvMmGmvLr6vQmU96fTYJupYmVkZNCI2PNkPuf//znRy1w2kL5jnxsemPxmlzXNipWdH8ye+5HLnDqoX2Ofgxbbbx217XVYpF7MkvuFDgtr3uf4LSWHuPo18AMrylyT8j9oVG5U+Dkt5W29OWte38fbHzTV3WqeMn7yk5b1Ga/r/vaa6DsU/Rce9v12hCvrac//b7u57VFxyL3ZGTurVjknrRyp8AJAADgGChwAgDgH7yJBtFkRFnMZNvz9XLS5Ysvvvg0sbnW06dP7ydiNFGjn57otiPH6rnPmq92aE1A9RQ4ff755+7z3WKvBRn12MgMsaL7k1GxovuTUbGi+5NRsY76FXWXjA3Rj2F0fzIqVnR/MipWdH8yKlZ0fzIqFl9Rt7yuQorR57LRz7OMihXdn5wxVnR/MipWdH+yNdaa65ijOGKBkwqZrKjJK3DyPtFOzyWAY+Ar6gAAAI6BAicAAP6bipO8iYa1NGFR9vn27du758+f/2aSs0a/q/vovprAHvVfaiNjzZC7Jo+W3hjQp3npOV2jLH7TtnxdXr16dffkyRP3effkrwWe14fIPanFusbca/9t6ymP4Zb8K0tryuN9Ld33krEh+jGs9Se8dpOeWOSezJL7ljFjZlvOV6Qcg1rreuwuOZfteQ3M/po6a+6tWOSezJD7muuYo/j2228fjE9L8vFpydbfL3n5aoxTQVO56OvoWwVOum/Pa2eW1yK5J7Pn3opF7kkr99r5obblY0Q5xmxdL53hnBQAAGAkCpwAAPhvmgDxJhrWur29dftt0SSGll9++eU31J94bXrD3dsutbZWfyNjzZJ7642BP/3pT+5zHMmLq5xq9J+EW7ZLdNvs/cmoWNH9yahY0f3JqFit+2hZMzF86Vi/t3Ky3cYrT/RjGN02e38yKlZ0fzIqVnR/MipW6z5rx4zZeeNIJC9mzh7P8jxLznoOSe7Lba3+RsY6a+465rzj8WhU4OSNOzPw8i0Ll9Z+gpMVWugcT7dLKtDwtrfu09Offt8KRUrRscg9GZl7byxyTzS+eueH2paPERQ4AQAAPC4KnAAA+G/6D3hvomEtfV1APjHixfBoIsObuMa+WhNIl74W1tCEWhlXOQHoVx5TnhHH96XK8cHbVwCXy4+zI9L5pjeGRPLOV0reeRaA/Zxh/JKjFzitpWIKFWHop6enLbo/GRUruj8ZFSu6PxkVK7o/GRUruj+ptak43htjtS0fIyhwAgAAeFwUOAEA8N+8SYa1NFmB8/Ce40jv3r1z4wLYn3dMzkaf2uDlDgA5b/yI5sUFgAjemDMLb77giy++cAuYWvS1nbqvCidq/wSlQgtvuwpMa0WmPf3p93U/ry06FrknI3NvxSL3pJU7n+AEAABwDBQ4AQCuniY/vEmGtWafoMVcVODkbQcA4W8KgFkwHgG4Rt6cwdu3b+8LlrxCJs/Tp0/vvv766/siCxVh6Ken1tZzH5khVnR/MipWdH9yxljR/cmoWK378AlOAAAAx0CBEwDg6lHghJEocALQwt8UALNgPAJwjbw5gyX6+sDb29v7uYWSCif0iTFem4otvO36fd3Pa4vub2Qscl/XRu7JyNz5BCcAAIBjoMAJAHD13rx5404yrKXJCpyH9xxH8+IC2J93PM7GyxsASt74Ec2LCwARvDFnFt6cwRIVOInXZsUUXpsKNLztKsIQr62nP/2+7ue1Rcci92Rk7q1Y5J60cqfACQAA4BgocAIAXL1LC5wAAAAAAMDxeXMGS1TcdHNzc19wAeCY+Io6AACAY6DACQBw1f70pz+5EwwAAAAAAOC6ePMGS/gEp4Tck5G5t2KRe9LKnU9wAgAAOAYKnAAAV40CJ4z27t27+wkuAON5xyQAAABgvHmDJVbgpMKKkgotVFDhtalAw9veuk9Pf/p9KxQpRcci92Rk7r2xyD2hwAkAAOAYKHACAFw1vp4Oo6nAydsOAAAAAHhc3rzBEvuKOhVPlFSE4W2Xnrbo/mRUrOj+ZFSs6P5kVKzo/mRUrOj+pNbGV9QBAAAcAwVOAICrRoETRqPACQAAAADm5M0bLOEr6hJyT0bm3opF7kkrdz7BCQAA4BgocAIAXC1NeniTC8DeNMEFYDzveAQAAACMN3ewRMVNKo7w6FNhvO1Sa+u5j8wQK7o/GRUruj85Y6zo/mRUrNZ9tFDgBAAAMD8KnAAAV4sCJwAAAAAAYLy5gzVUpADg2GrHdj5GUOAEAADwuChwAgBcrcivp9OEBc7Be36jeXEB7M87Hmfj5Q0AHm8MiebFBYAI3pgzA2/uAMD1osAJAABgLhQ4AQCuVlSB08yTs5jPu3fv3O0AIPxNATALxiMA18ibOwBwvShwAgAAmAsFTgCAq+VNLPTgzR9sQYETgBb+pgCYBeMRgGvkzR0AuF4UOAEAAMyFAicAwFX64x//6E4s9ODNH2xRK3DS6+jm5gZAJ++4OiJvQhw4k/z1jbmteb7K5xfAvrzjELG8+QMA14sCJwAAgLlQ4AQAuEpRX09nNGFh3r9/fz9Bkfvll1/u/v73v2Mi5XNkvOc3mvcaUU56nXhUvOFtv729vbe1rdafjIoV3Z+Qe3JtuS8d1+Y///M/3WNyJvn4oH3TYvuX+/nnn93t0tP2t7/9zd0u0bFm6a9nn3tj9fQX/Zz03Eei+5P8uESfEePZ999/78Y23nNrRr6mWm2146jnPjIy91ob4/VD0bF6+hs5Xot3PB7Nt99+6447M/DmDwBcL41Z+RixVMC0tF5S/15cAAAA+ChwAgBcpegCJ1GfXizRUr4hLz1v8svsxQuz525vDnjP1R6T7a9evbp78uTJ3WeffbbJixcv7t6+fXv3r//6r26u+iSyf/u3f3Pb9ManeG26j+7rtUXHIveE3JPo3O3Y9tpy6sM7Rh/DpeNC7TnpfdxHPsdnzF1qscg90Rs4tb+/2M4bW6JojNJ4441DLZecu8x+PJw191Ysck9myP1MYygFTgCOggInAACAuVDgBAC4St6kQo9L36BuTXqPnESPjjV77ktvDnjPtSm/Yk6TVTm15+sqsnr27Jn7OlhDry/tB4A6K2b0judSefzm60vK31dcO9bLY79Utl8yLvz+97+/H/vExsecHhNve+s+Pf3JqFjR/Qm5J6P6+/Of/0yBUyB9wlI+JrXk40+uNnZ99dVX7vizhsao6NdvdH8jY5H7ujZyT2r30ac8nmUM/eGHH34zRuXrpXKM2nLelZ+v2Xrr/l6+AK4XBU4AAABzocAJAHB1VAzjTSr06CluMk+fPr2f1NYEtk1w52rbpactuj8ZFSu6P70h2HpzoDUBpcnwfH3NZJb3/G+h/fDyHFkU1huL3BNyT6JzX/sJTpIfo61jXdYc32vXy7HDO9a30ONkj2NOj5Fsbav1J6NiRfcns8e6ttyX/v5im7LAqRyDclvHL2/c2WLUa6rV38hYR869J1Z0f0LuSa2/M42hSwVOrfWyrbSlL2+dYgMAOQqcAAAA5kKBEwDg6uirzvLJhK2TD0aTzN4bOluoD01s6437kk14e22a9Pa2t/obGWv23Jf++7n1GnisAidvP3ofl57HLPo5IPeHyD3p6c++wtI7nkv5Mdo61mXN8b12PbrAyR6Lcv+0TW3ldtFjKF5brT/Rc+Jtj4515NylFovcE72BQ4FTnNkLnLycW6/f2Y+Hs+beikXuyQy5n2kMpcAJwFFQ4AQAADAXCpwAAFdnzeSD8drFJqO9N3S2aE16j5xEj441e+5Lbw54z7m5tMDpzZs3d1r007a9fPnyfpstP/3004P7aD+0n56etuj+ZFSs6P5kVKzo/mRUrOj+JDLWkQucPnz48I8j/+7+tm3fY1zouY/MECu6PxkVK7o/GRUrur//+q//osAp0IgCp3z57rvvPm0/whgV3Z+MihXdn4yKFd2fjIoV3Z9ExuITnPy20pa+vHWKDQDkKHACAACYCwVOAICrUk5MLBWrWLu239zc3N/OC23sTZzXr1//4+2d7W9QYzw9r49R4JQXMliBk71G8tdGua6cvTxHFoX1xiL3hNyT6NyP/BV1VjBgxY/6e7JmXNBjocdQj0tO2+z52tJW60/0nHjbo2NF9yejcpeeWNeW+9InKGKbkZ/gpPFHi26vPXfxXgMjX6MjYx0591YbuScz5H6mMZQCJwBHQYETAADAXChwAgBcFU0K5xMJSxMPP/7444N1fUpI3l/+po7epLY3fPRG9Zo3fzRRrYntvE9jE95emya9ve2t/jSJLl5bdKzZc9cE0mMUOIkVw1mBk143WvLfKbdpP+wxKNXa9LjI1rboWOS+ro3ck57+zvAVdXmB05pxQY+fN/aNHEujYx05d6nFIvdk6e8vthld4PTx48f722vPXfT6KOn1ZK+dkrar3WuL7m9kLHJf10buSa0/Cpz8ttKWvrx1ig0A5ChwAgAAmAsFTgCAq1K+EbSVJpbz/vQGjhWs6KfW9eaP3gRa8+aPJrU1ga2fJU1628R3qXYf6elvZKwZcl96c6A1ARVd4KTXipb8d+x1oiI5rY96XGRUrOj+hNyTa8v96AVONi7YJwCuHReAo/n3f/93CpwCjShwsrHHiptk7Rhl43ap1tZzH5khVnR/csZY0f3JqFjR/cnWWHxFnd9W2tKXt95bbKDnBsBx1a4nKXACAACYCwVOAICrculERDnxoDdw8k/d0LoVOK1588cmq7037DWx7W2XWlurv5GxZs996c2B1gTUY32Ck5enCu70uHhttq9em+5TFuuZ6FjknpB7Ep37kb+izv6G6Li3bWvGhdpzcoTn+Iy5Sy0WuSc6j2r9/cU2Iz/BycYgncOuGaN6Xr+zHw9nzb0Vi9yTGXI/0xh6tgInnYfqudF9Sxqr9Q82XpvOD73t+n3dz2uL7m9kLHJf10buycjc7Rguj29ty8eIS8eYkhcTAAAAdRQ4AQCuxqWTEnoTuuxTb+DUCpzWvPnTmvQeOYkeHWv23G3yymuT1gSUJtHy9TWvo/w1UBY46Y1CLXrN2O+U69oP7aen1tZzH5khVnR/MipWdH8yKlZ0fzIq1s3NzWELnLTob4Oty5pxwfbdxsecHidve+s+Pf3JqFjR/Qm5J6P6+/Of/0yBUyC9QZePK+UYlNs6ftlYY/Lz3bXnLt5rQHpeb9H9jYxF7uvayD2p3UdvzFPg9Nu20pa+vPWeYgMrttd1acmeZ69Nz7W3vXWfnv70+7qf1xYdi9yTkbn3xiL3hAInAACAY6DACQBwNf76178+mETQG+Jb1vUVSGWfegPH3uTRG9R2W28CrX2DWpMy+lmqbZeetuj+ZFSs6P70huAsBU5ir5V8ydu1H94EXGvibuQkYauN3BNyX9fW05+9qeQdz6X8GG0d67Lm+F677hU42XiQL2XxY76U44Iek5IeI3u+trTV+pNRsaL7k9ljXVvuS39/sc3eBU7lGJUXY+4xRkW/RkfGOnLuPbGi+xNyT2r9nWkMPWOBk+YP7HnN6fn0tktPW3R/MipWdH8yKlZ0fzIqVnR/MipWdH9Sa/v5558pcAIAADgACpwAAFdDb7p4kwlr6U30sk97E0d925IXMC29+aOJak2klG/Wi7ar3WvThIy3vdXfyFiz577038+tCahLC5zW+PDhw/1rRT+1Hv0c9Dxm0c8BuT9E7klPfypAPWKB0xbluGCPRbl/2qa2crvoMRSvrdaf6DnxtkfHOnLuUotF7onewKHAKc7IT3Ba4p27eDm3Xr+zHw9nzb0Vi9yTGXI/0xh61k9w8tp6XjuzvBbJPZk991Ysck9auWt89Y5/bcvHiEvHmFLPmAMAAHDNKHACAFyNLZMOul2ue5MO5Zs7S8o3f2aZyImONXvuei5HFjh9/vnnv3ktrPX06dP7/dB+enraovuTUbGi+5NRsaL7k1GxovuTyFhHLHD63e9+5x7za/SOCz33kRliRfcno2JF9yejYkX391//9V8UOAXas8Dpiy++cMefNWYZo6L7k1GxovuTUbGi+5NRsaL7k8hYfIKT31ba0pe33lNsoPNQnY/adWvOnj+vTc+1t711n57+ZFSs6P6E3JPoWOSeUOAEAABwDBQ4AQCuggpgvImEtfSpS16/l7z58+WXX95PumA8FRqMLHB69erV3ZMnT9zXQcvz58/v3r59e5+zl+fIorDeWOSekHsSnXvrv+ZL+THaOtZlzfG9dr0cO/7whz90jQtfffXV3TfffHP/WOgx1OOS0zZ7vra01foTPSfe9uhY0f3JqNylJ9a15b70CYrYZs8Cp//7f//v/XmINw612BjF8ZDMnnurjdyTGXI/0xh6TQVOej697VJr02vDXnOl6P5GxiL3dW3knozMna+oAwAAOAYKnAAAV0GTjfkEws3NzaZ13d/rV8UnPW/+WOGKJqo1ueL1re1q99o0keNtb/VnkzZeW3Ss2XPXBNLIAqd8XW9MeDGVj1ihRk6vR2+71Nr0mpWtbdGxyH1dG7knPf3ZseMdW6X8mGwd67L1+G6tL40dKlQoc7X9K7dLbewbOZZGxzpy7lKLRe7J0t9fbLNngVPtfCVnY6+e15LGPG+7+lXeXpu2q91ri+5vZCxyX9dG7kmtPzvn8Y7Ho+Er6n7FuUNC7kl0LHJPWrlrfPWOf23Lx4hLx5hSz5gDAABwzShwAgBcBX0CkzeRsFZtQmUtLTbpWRpVANDqb2SsWXJvvTnQmoDSGw75+tbJLL2R4cUUL08A63jHlCc/JlvHumw9vlvrS2OH3ugsc9VkNwvL2ZYtxyvaNG7k40g5ruS2jFfSOl8xei51PgVgnLOMoUcqcNI/Jr148cL9x6UWfV3n119/fV+EoWILT62t5z4yQ6zo/mRUrOj+5IyxovuTUbFa9+ETnAAAAI6BAicAwOlpsiCfUNDtct1u19a9frdQDvYmPObQmkQqXwO5PQucAOwvPyZbx7psPb5b6z0FTgDQ8tgFTgDQ60gFTj3FTeaf/umf7gsn9Ikx+qepkootvO36fd3Pa4vub2Qscl/XRu7JyNxVROrNE2lbPkZcOsaUWnNTAAAA+C0KnAAAp6eJCm8SYS19+pPXL86rNQFFgRNwbPkx2TrWZevx3VqnwAlANAqcABzVkQqcvMKlLayYIu/TqEDD264iDPHaevrT7+t+Xlt0LHJPRubeikXuSSt3CpwAAACOgQInAMDp6evL8skDfW3ZlnXd3+sX59WagKLACTi2/JhsHeuy9fhurVPgBCAaBU4AjuqaCpxUhAFgfnxFHQAAwDFQ4AQAOD19AlM+ebB18oHJhuvTmoCiwAk4tvyYbB3rsvX4bq1T4AQgGgVOAI7qyAVOHz58uNPy8uXL+3X9zJeffvrpwe/3fALNyE/IiY5F7snI3FuxyD1p5c4nOAEAABwDBU4AgFNbmohYesNZ7V6/OLfWBBQFTsCx5cdk61iXrcd3a50CJwDRKHACcFRHLXB6/fr1P8qYfi1wsuKmvKipXFehhVhhRU4FGt721n16+pNRsaL7E3JPomORe0KBEwAAwDFQ4AQAOLU//elP7gTCWpr48PrFubUmoChwAo4tPyZbx7psPb5b6xQ4AYhGgROAozpqgdPHjx/vaVFx03fffXd/O/+dctvsRR0jY5H7ujZyT0bmzlfUAQAAHAMFTgCAU/vrX//6YOLg5ubmwfrSxMOWN3d++eWX+4lMlmMser6851FaE1B7FTjx+mFhuWxZOzGcH5OtY122Ht+t9d4CJ/0nMYBYrXOAI3nsAic9jt7jC2A/Zxm/jljgpMIlfT2dFTCpwEmf1KTFfsd+T4vata5iiq1fsWUFF15bT3+9X9lF7snsubdikXvSyl1jLAVOAAAA86PACQBwapdOPGyZaKhNhkht4mXkxNDIWLPnrudJz5fXJq0JqL0KnHpePyMfs95Y5J6QexKdu97sW/uGX35Mto512Xp8t9Z7CpyseEBjQ0m/r/Gk3K5taiu3L7XV+hPl7m2PjhXdn4zKXXpikfu6tuhYrb+5R6L9y8eRclzJbRmvRI+fFzOnx1HjVPn4CsdDMnvurTZyT2bI3c4LvOPxaI5W4GRfTZd/atOWT3DSOayn1tZzH5khVnR/MipWdH9yxljR/cmoWK378AlOAAAAx0CBEwDgtMpJCE0U5+trJiGsr7dv3969ePHiwcRlyz/90z/dffPNN/dvyIsmUex2TpMoepN/a1utP/2+7ue1zRJrhtz1hkLrzYHWBFTP60g/X716dffkyRP39eLJX0M83+vayD25ttxvb28PWeB0ybhQewx7H/fo56QnVnR/MsOxQO7JLLlT4LS8rnOlS85/o18DM7ymyD0h94dG5b50DXMkRytwsk9qyhd9VZ2KnLSo3cbCcn2G106rv5GxyH1dG7knI3OvnR+Wc4uXjjGlM5yTAgAAjESBEwDgtDRBkU8abJ100JtG1teWN3fM06dP7ydORBMvdrtUa+u5j8wQK7o/iYyl53Z0gdOWIgZjr6EZHjOZIVZ0fzIqVnR/MipWdH8SGeuoBU6MCzFt0f3JqFjR/cmoWNH9yahYtf/QP5q9C5wuOf+d4XmWUbGi+5MzxoruT0bFiu5PtsZauoY5kiN+RZ0pv4LOipzy5c2bN59+X8+d5ibyPo2ea2+7ijDEa+vpT7+v+3lt0bHIPRmZeysWuSet3ClwAgAAOAYKnAAAp7XlTR9PPolik5Nb2f1rEy8jJ4ZGxpo9d00gjS5w8l4fayif2Z/vVixyT8g9ic5dxU1HLHDyjvk1tB+15+QIz/EZc5daLHJPZsm99gbW0exd4OSNP2sot57XwOyvqbPm3opF7skMuS9dwxzJkQuclnz48OG+yEk/ta7nE8D8+Io6AACAY6DACQBwWpdOOuSTDOWk5Vo2ca3JErud04S3bG2r9Sezx5oh98f4ijrv9bGG8p3hMZOeWOS+ro3ck57+jvoJTt4xv4b2uecxbN2npz8ZFSu6PyH35Npyp8Bpef2SAic9xtGvgRleU0Luy22t/kbGOmPufEWd31ba0pe3Xv59+OKLL9yxbo3nz5/fP89bi+PsOffaevobWdhH7snI3FuxyD1p5V47P9S2fIy4dIwpneGcFAAAYCQKnAAApxQxAZH3ZxOUr1+/vv9vTC32H5li/6Wp5ePHj5+22+SJJl7sdk6TLuK11e4jPf2NjDV77ktf79CagIoocNJrJH+d5K8fLflrS/nO8JhFx4ruT8g9ubbcj1zglP9d0aJ1xoVtbTPkLj2xyH1dW3QsvqJued0KnOyrmGyxcWiPMerIr6kj594TK7o/Ifek1t/SNcyRHKnA6e3bt/eFSjbGrfXVV1/dffPNN5+eZxVdlPRce9tb9+npT7+v+3lt0bHIPRmZe28sck8ocAIAADgGCpwAAKekN2XyCYObm5tN63qzPO/PJim16I2ely9f3t9+8+bNpzd+tC2f0BS7vyZe8v6MJlbEa7MJGa+t1p9+X/fz2kbGmj13TSA9RoFTXshQFjjZuv2OXlv2Gpr9+W7FIveE3JPo3I/8FXX6G2JjgcYBKxJYGhdqz8kRnuMz5i61WOSezJJ77Q2soxn5CU527mtj1h7nLrO/ps6aeysWuScz5L50DXMkRypwWkPnoZpT0PNd0vPpbZeetuj+ZFSs6P5kVKzo/mRUrOj+ZFSs6P6k1sZX1AEAABwDBU4AgFPSGyzexMFa5eR1/uaNfmpdb+r89NNPnwqc8jepjSZOMB8VGjxGgZPJ3xQs1/Xa1WKvMy9/AA/pDaUzfEWdxgGvwKkcFzQBr/0uJ+VNra3nPjJDrOj+ZFSs6P5kVKzo/mRUrNZ9+ASn5fVagZMVMR1hjIruT0bFiu5PRsWK7k9GxYruTyJj8QlOfltpS1/eem+BU+1cVM/d1uK4WYrtyD2ZPfdWLHJPWrnXCuApcAIAAJgLBU4AgFO6ZMJBt8sJBu/NG72powIne5PHlrzQye5fm3gZOTE0Mtbsuev5na3AKV/y31U+sz/frVjknpB7Ep17602lUn6Mto51WXt8r1lfKnCyccD+xrTGBXss9Bjqdk7b7Pna0lbrT/SceNujY0X3J6Nyl55Y5L6uLTpW7Q2soxlV4GSLFTfJ0hjF8ZDMnnurjdyTGXLXcUmB02/bSlv68tZ7/j7oPFSfAq3ntKTn09sutbae+8gMsaL7k1GxovuTM8aK7k9GxWrdh09wAgAAOAYKnAAAp7M0+bBEb96UferNmlaBk7E3e+zr6mwyWpMo+eS00SRKbaK81VbrrzVRPkusGXJfenOg9ZrZ+xOctGjd2pQvz/e6NnJPri13vaF05AInHf9abF1a44L2wx6Lcv+0TW3ldtFjKF5brT/Rc+Jtj4515NylFovck5HPcas/CpyW18tPcBIteXF/a4zqeQ3M/po6a+6tWOSezJC7xi0KnH7bVtrSl7fe8/fBCpz0nJf0GtBz7bXpufa26/ftNVeK7m9kLHJf10buycjca+eHS3OMW9dLZzgnBQAAGIkCJwDA6WhiMZ8s0FcXbVnX/cs+9WaNfTWHPqGp/JoOY19XZwVOmjgRTbzY7VKtrec+MkOs6P4kMtbS1zu0JqD2LnCy15C9tpTvDI+ZzBAruj8ZFSu6PxkVK7o/iYx15AInO+ZtPDCtcUGPA4B+fEXd8rpX4KQxyQqZGKOA8XQuQYHTb9tKW/ry1nsLnGrnojpXVfGE16bn1duuIgzx2nr60+/rfl5bdCxyT0bm3opF7kkrdwqcAAAAjoECJwDA6ejNFW/SYC1v8sTe2FHftth/sNubOrZo3X7f7l+beBk5MTQy1uy5awJp1gIn0W0tKpRTPrM/361Y5J6QexKde+tNpVJ+jLaOdVl7fK9ZrxU46fjPFxsLlsaF2nNyhOf4jLlLLRa5J7PkXnsD62hGFDiVY5SNSXucu8z+mjpr7q1Y5J7MkPvSNcyRnLHASf84pecOwDHxFXUAAADHQIETAOB08skDvaGcr+v2UrvXp715s5VNXGuyxG7nNOEtW9tq/cnssWbI/bG/om4L5TvDYyY9sch9XRu5Jz39Hf0r6rbSPvc8hq379PQno2JF9yfknlxb7hQ4La97n+C0lh7j6NfADK8pIffltlZ/I2OdMfela5gj4ROcfqXn2ttuz7nX1tPfyMI+ck9G5t6KRe5JK/fa+SEFTgAAAHOhwAkAcCqayPAmDNbSJzR5/X7xxRfuGzgtz549+zR5ookXu53TpIt4bbX7SE9/I2PNnvvSV9TpdaBJqDXKrzjUtnzdfP755+7rpMVeQzM8ZtGxovsTck+uLfetBU5r6fj2tue8430N3Zdx4aHo/mT2WOS+ri061hm+ok77seV8RcoxqLWu/i85/72219SRc++JFd2fkHtS62/pGuZIvv322wfj05J8fFqy9fdLXr5LrMBJf1tKet5UnOa1qQDe2966T09/+n3dz2uLjkXuycjce2ORe0KBEwAAwDFQ4AQAOBW9yZ1PFPz4448P1stilLJd9/f6ffv27d3z58/dN3I8+l3dx+6vSeq8P2OT1V6bJrxH/adadKzZc7fJK69NLv2aQ8+rV6/unjx54r5ePPlraPbnuxWL3BNyT6Jzb/3XfMk7Ph/LJeNC7Tk5wnN8xtylFovck1lyr72BdQTaJ2882cM333zTff7b8xqY/TV11txbscg9mSH3pWuYI1GBkzfuzMDLd4k9NwCOq3Y9qeM7HyMocAIAAHhcFDgBAE5la2FKOdFwycSCJkO8SRLRJwVs2S7RbUeOFd2ftIoh9ihwMrU3MnpePzLyMRsVK7o/GRUruj8ZFSu6PxkVS8va8ds7Lmdi/1UsKrr19ldmeNxlVKzo/mRUrOj+ZFSs6P5kVKzWfbTo+LJj7Qh0/uCNGXvKxyPP7GNUdH8yKlZ0fzIqVnR/MipWdH+yRyzveDyaPa+3LuWdPwK4XhQ4AQAAzIUCJwDAaSxNOujjq/N1b9LB63cL5YBj8J4/s+eEu16Heq159AljAPp4x5THOy5nUuZY5g8gRn6cwbfmcSofVwD78o5DxPKuD5fo+pKFheX4S+34zseIcizeul5amp8CAADAQxQ4AQBO409/+pM7WbCWilq8fnF99i5w8rYDgPDmJYBZMB4BuEbe9eESfRpv7ROCe77esPUVhiO/LpHck9lzb8Ui96SVuz4lzys2osAJAABgLhQ4AQBO469//euDSQJ9oke+/uOPPz5YLycZ9FH5Xr+4PnsWOOnrXrztACBLE+AAMArjEYBr5F0fLlFxk76204onciq0EK9NBRre9tZ9evqTUbGi+xNyT6JjkXtCgRMAAMAxUOAEADiNSycZmFSA2bvASa89AI/DOy5novFHBbcAUNrz/MTDeARgLz/88IM77szAuz5c0ipwmr2oY2Qscl/XRu7JyNx//vlnCpwAAAAOgAInAMApREw4eP3iOu35BqIm9L3tAKCJdW9MAgCjr10ZVehU+0oYALjUt99+6447M/DyXcJX1CXknozMvRWL3JNW7nyCEwAAwDFQ4AQAOAVNYHgTBWZpgkGfquP1i+vUeuPw3bt3D9b1WsqpPV/XVyXm6/rP3vz+AB6Pjklve035+/nxXR77paX22iQ8AHh07quxIx+TWsoxx9TGJs6NAeyp/AQnjTv5eqkco7acd5XXY1pv3d/Ld4l9gpPO50oqwvC2S62t5z4yQ6zo/mRUrOj+5IyxovuTUbFa9+ETnAAAAI6BAicAwCnoTZh8gmDrBEPtP8JwnVoTUJoMz9e3vtY0ma/Xa80e7fm2pXYP7fHt+baldg/t29ttW35Mto512Xp8t9aXxg7l5o1HAFCjcSMfR8pxJbdlvBJ94qQXEwAi6LwsH3O2jFFlW2lLX956T7GBFThpXqGkwgl9YozXpmILb7t+X/fz2qL7GxmL3Ne1kXsyMnc+wQkAAOAYKHACAJzCpRMMTCgg15qAurTAiTcMgceVH5OtY122Ht+tdQqcAESjwAnAUZ2xwImvqPsVuScjc2/FIveklXurwEnjhPE+Fa5c16eCr8V8JAAAwDYUOAEADk+TAfmEpCYUtq57/eJ6la+RHAVOwLHlx2TrWJetx3drnQInANEocAJwVEcrcHr79u3dixcv7j777LNVnjx5cvfP//zP9wUYAI6h9hV1AAAAmAsFTgCAw9MbMPmE5NKEpf6bKl/XR8l7/eJ6la+ZHAVOwLHlx2TrWJetx3drnQInANEocAJwVEcrcNpS3GR0H9235xNoRn5CTnQsck9G5t6KRe5JK/faJzgBAABgLhQ4AQAOTx/pnE9IblWbLMH1ak2aU+AEHFt+TLaOddl6fLfWtxY4aXIdAHL5GCGjC5y8nABgK40nRytw8gqY1rBCCxVU6HZJBRre9tZ9evrT71uhSCk6FrknI3PvjUXuCQVOAAAAx0CBEwDg8PaYwMR1K18jOQqcgGPLj8nWsS5bj+/W+pYCJ/1d0qJJ9pK+OsHbLq22v/3tb+723v562nryk9r9eu4j0bnP0J9Ex+p5zUQ/J72519qO/JrRUp6zjixw0uLlJa396XkdRbf15Ce1+x35dRTdn0TH6nnNRD8nvbnX2q7xNdPa519++eVqCpxUTKEiDP309LRF9yejYkX3J6NiRfcno2JF9yejYkX3J7U2jWnMDwIAAMyPAicAwKFp8iGfjCwnJ8s3lEuaxPD6xXUrX0e5PQucvDcAAKyjN8u846qUH5OtY122Ht+t9S0FTtqX2v7o75b+w9hr02S9t13/pSxeW09/+v3a38/oWEfOvRWL3BNyT1qxNM49doFTvm5meXxasWZ/bs+aey0WuT90bbnbOc6RC5xev359Pyb+9NNP9+sfPny4X7dF6/a7um/PYzjyOYmORe7JyNxbscg9aeXunWsBAABgPhQ4AQAO7fb29sFk5M3NzYP1H3/88cF62a77e/3iurUmzfcqcNJEv02olfQGpu7ntSkfb7t+X/fz2qL7GxmL3Ne1XVvudvx4x1YpPyZbx7psPb5b68q91ibab8tR+6O/TzYBn9NkvXhtmuT3trfu09OfjIoV3Z/MHovc17VdW+4zFDh5eckMj8/I/kbGOnLuPbGi+xNyT2bIXec3Ry9wsoKmvMDp48eP97et+Elfo691PXZ6LOxxLNXaeu4jM8SK7k9GxYruT84YK7o/GRWrdR8+wQkAAOAYKHACAByaJg7zycitav8JhuvWmjRfKlJYWi/fMDSa6BevTZNtW/9r0d5E8Np6+uv9L8hry70Vi9yT6Nw1EX0tBU56DLztUmvTYypeW3R/I2OR+7o2ck+OnLv3ptsMBU6tnFttMzwX0f0JuSfknpB7cvQCJ80/qJhJi1fgpHYtKnTSup0Pa991u6TH0Nuu39f9vLbo/kbGIvd1beSejMydT3ACAAA4BgqcAACH1pqc1O18XW8ul+1MXsCTv05KexY46RPGNEkHYBsdl2crcKLg8VdHzr0Vi9wTck9asWb4BKd83czy+LRizf7cnjX3Wixyf+jacrdznKMWOGlZ+oo6+13RfXsew5HPSXQsck9G5t6KRe5JK3cKnAAAAI6BAicAwGFp0iKfiNxK/13p9Qu0Js33LHCioOFXR869FYvck+jcNRF9xk9w0mNR0mPgbZdaW899ZIZY0f3JGWNF9yejYkX3J6NiRfcntbYZPsHJy0tmeHxm709GxYruT0bFiu5PRsWK7k9GxYruT2pt+oeOoxY4qZDJipq0eJ/gpEXrui16HAAcA19RBwAAcAwUOAEADktv/uYTkT/++OODdU2e5utlu+7v9Qu0Js33LHCqfSWVvSHgtWkiztveuk9PfzIqVnR/Mnsscl/XVutPx9UZC5xU6FWyx8Zr0+Pjbdfv635eW3R/I2OR+7o2ck+OnPsMn+Dk5TXL49Nqm/25PWvutVjR/Qm5J7VY0f1JT+46xzligdPLly/vx8Fy0T9N5QVO33333aftWtd97bEo+xQ9ht52PYbitfX0p9/X/by26FjknozMvRWL3JPW484nOAEAABwDBU4AgMPSpGE+EbkVExeoaU2aP0aBkybuvO1Sa9OEnnht0f2NjEXu69quLXe9yX+2AifR5HzJHjevTY+Pt711n57+9Pu6n9cWHevIuffGIvd1bdeW+wwFTvm6UW7K2WvT/ojXZvvptenx8bb3xoruj9yTnljk/tC15X7UAif7RCajxfsEJ9FtLSqKssdCj69ul/QYettb9+npT79vz2UpOha5JyNz741F7gkFTgAAAMdAgRMA4JA06ZBPROp2uW63a+tev4CUr5dcb4HTq1ev7p48efJp4nvJixcv7t6+fXufj03OlXmKJvW87Zq0E6+tpz/9vu7ntUXHOnLurVjknkTnrr8JZytw0qcQ6rEo6THwtktPW3R/MipWdH8yKlZ0fzIqVnR/MipWdH8yKtaeX1Gnc5Rnz5655yMenc/88z//832uALDFkb+irofGb+13Oaabnrbo/mRUrOj+ZFSs6P5kVKzo/mRUrOj+pNbGV9QBAAAcAwVOAIBD0pvf+STkVvr0J69fQFqT5r0FTluKm8zTp0/vJ9p6JueiJ/tkVKzo/uSMsaL7k1Gxovs72ic4bS0moODxmLm3YpF7Qu5JK9aen+DUc46icUk5zPL4tGLN/tyeNfdaLHJ/6NpyP+onOH3xxRfuWNjy/Pnz+/v2PIYjn5PoWOSejMy9FYvck1bufIITAADAMVDgBAA4JH2VVz4Jqf8E3bKu+3v9AtKaNO8tcPImvdewyTlNwul2SZN63nb9vk0GlqL7GxmL3Ne1XVvu+iqlIxU49RQT/P73v//0uNljVNLj421v3aenPxkVK7o/mT0Wua9ru7bc9yxw8sacNSy3GR6fkf2NjHXk3HtiRfcn5J7MkLuuw49Y4KRCcxUseWOhR4Xs//Iv/3K/zz2PYes+Pf3JqFjR/Qm5J9GxyD2hwAkAAOAYKHACABySPoEpn4SMmLQETPl6yY0ucFI+moBTEUeZp2jizttuk3ReW09/+n3dz2uLjnXk3FuxyD2Jzl1j+pEKnLxjfQ09ZnoM7PEr1dr0mIrXFt3fyFjkvq6N3JMj577nV9R5480ayquVc6tthuciuj8h94TcE3JPjlrgtET7pH3z9jn6MYzub2Qscl/XRu7JyNz5ijoAAIBjoMAJAHA4mnDIJyB7JjC9fgFTvmZyEQVOKtDTop+27cOHD/fbtHz8+PHTdk3aAWjTcXkNBU7KXxPyWwvAbNLea+vpb2Tx2pFzb8Ui94Tck1asEZ/glC/ffffdp+21cxTlMMvj04o1+3N71txrscj9oWvL/ahfUbfE9str63kMRz4n0bHIPRmZeysWuSet3PkEJwAAgGOgwAkAcDiarMgnILfSm0Fev4BpTZpfWuCUv0loBU56E1HLy5cvP/2eUT49k3ojJx2jYx0591Ysck+ic9dE9BELnPLxQLe97XkxgR4bPQb66am19dxHZogV3Z+cMVZ0fzIqVnR/MipWdH9Saxv5CU4//fTT/fij261zFMtthsdn9v5kVKzo/mRUrOj+ZFSs6P5kVKzo/qTWpq+OP2uBk/ZN+w3gmPgEJwAAgGOgwAkAcDj66Pd8AnLrhOX79+/dfgFTvmZyEZ/g9Pr16/s3C8sCp/zTEowViagYRLdLmojztrfu09Offl/389qiYx05995Y5L6urRZL4/oRC5zsmLdPddPY0Com0L6OfC56+hsZi9zXtZF7cuTcR3yCk1GBkxVXLp2jzPL4tNpmf27PmnstVnR/Qu5JLVZ0f9KTu33SEZ/g9Cs9ht52PYbitfX0p9/X/by26FjknozMvRWL3JNW7nyCEwAAwDFQ4AQAOJzHmLDEdSlfM7k9Cpwk/8SW/E1ETcxp4k4/PT1t0f3JqFjR/cmoWNH9yahY0f1JZCy9yX/EAifjFTh5xQTKX/u7dZJ/5JsQ0bGOnHsrFrkn5J60Yo0ocLLxJ//kOKmdoyiHWR6fVqzZn9uz5l6LRe4PXVvuZy9w0r6X9Fjo8fXa9Bh621v36elPv2/PZSk6FrknI3PvjUXuCQVOAAAAx0CBEwDgUDTZkE8+Lk1OesUoXr9Arnwd5fYqcDL2JqJ9eovyscm5Mk/RpJ63XZN24rX19Kff1/28tuhYR869FYvck+jc9bfhqAVONh7UvqIuLybQ/gO4TiO/os4KncpPkivPUbw8AaDl7F9Rp/PYkvbb2y49bdH9yahY0f3JqFjR/cmoWNH9yahY0f1JrY2vqAMAADgGCpwAAIeiryHKJx+3Tlbq6+28foFc+brJ7V3gVL6pqIm2nsm56Mk+GRUruj85Y6zo/mRUrOj+jvoJTvbJTXkRU46Cx2Pn3opF7gm5J61YIz7ByeSfKpdvL89RlMMsj08r1uzP7Vlzr8Ui94euLXf7pCO+ou5Xtcdw5HMSHYvck5G5t2KRe9LKnU9wAgAAOAYKnAAAh7LljRxPbWIEyLVeV3sUONkbhrbkxQ42OadJON0uaVLP267ft8nAUnR/I2OR+7q2a8tdxa9HLHAqj/dSWUxgj5s9RiU9Pt721n16+pNRsaL7k9ljkfu6tmvLfe8CJzs3scXGpqVzFOWm/SzHZbH939qmx8Db3hsruj9yT3piRfcn5L7cFt2f9OSufzg6a4GTxmkrdMppn22/S/aJVqXWfXr6k1GxovsTck+iY5F7QoETAADAMVDgBAA4lMeYrMT1KV83uYgCpy2Uj71BUOYpemPB2643FsRr6+lPv6/7eW3RsY6ceysWuSfRuWtsP1qBU1lMoEVFj61iAj1megzs8SvV2vSYitcW3d/IWOS+ro3ckyPnPvIr6tayfLU/drtUa+u5j8wQK7o/GRUruj8ZFSu6PxkVK7o/GRUruj8rLDhbgZOUxRIAjsc7tgEAADAXCpwAAIehicZ84rGciFwqPFG71y9QKl87ud4Cp88//9x9c7Dlyy+/vH9zAECbjssjfoLTVspfbw5uLQCzAgmvrae/kcVrR869FYvcE3JPWrH2/ASnnnOU58+f3+cwy+PTijX7c3vW3GuxyP2ha8vdigjOWOAEAAAAANgfBU4AgMP4y1/+8mDiUR85na//+OOPD9bLdv23qNcvUGpNmvcWOL169eruyZMn7puEHr1x+Pbt2/t8et6Mmv3NLTlj7q1Y5J5E5643oo5U4NRTTPD06dP7x0aPgX56am0995EZYkX3J2eMFd2fjIoV3Z+MihXdn9Ta9vwEJ52jPHv2zB17PBqPvv7660+5zfD4zN6fjIoV3Z+MihXdn4yKFd2fjIoV3Z/U2uxroyhwAgAAAAD0oMAJAHAY+uqefOJxq9ob5kCpNWneW+Bk3r9/78a0/2bW67SkNwNUDOK16c0Db3vrPj396fd1P68tOtaRc++NRe7r2mqxdFwdqcBpazHBV199dffNN9/c7+vI56Knv5GxyH1dG7knR859z09w8tbL8xUtXl6zPD6tttmf27PmXosV3Z+Qe1KLFd2f9OTOJzgBAAAAAC5BgRMA4DAumajUbSYqsVb5WsrtWeCk/2jWmwElvXngbZeetuj+ZFSs6P5kVKzo/mRUrOj+JDKW3uQ/UoFT2SbaB8vR3vzL8zbaX71B6LXp8fG2641G8dp6+tPv635eW3SsI+feikXuCbknrVgzFDjl62aWx6cVa/bn9qy512KR+0PXljsFTgAAAACAS1DgBAA4BE0y5pOOW+nTn7x+AU9r0nzvT3Dy2nreWBj5RkV0rCPn3opF7kl07vobcbYCJxU8an8BQPb8ijpv3Stw8vICgC34ijoAAAAAwCUocAIAHMLt7e2DSUdNjG5Z1/29fgFPa9J8zwInvU6t8COngg/x2vRGgbe9dZ+e/mRUrOj+ZPZY5L6urdafjis+waleAGaPk9fW09/I4rUj596KRe4JuSetWHyCU3+s2Z/bs+Zei0XuD11b7naOQ4ETAAAAAKAHBU4AgEPQJzDlk45b1SZlAU9r0vwxCpz05oG3XWptelNBvLbo/kbGIvd1bdeWu97kP2OBk/52lexx89r0+HjbW/fp6U+/r/t5bdGxjpx7byxyX9d2bbnPUODk5TXL4zOyP3JPemJF9yfkvtwW3Z/05K7rHQqcAAAAAAC9KHACAExPE4z5pKNuL63bbVv3+gVqytdQbs8CJ/Ha7A0Cr01vLHjb9caCeG09/en3dT+vLTrWkXNvxSL3JDp3/Z0441fU6bEo6THwtktPW3R/MipWdH8yKlZ0fzIqVnR/MipWdH8yKtYMX1Hn5SUzPD4yKlZ0fzIqVnR/MipWdH8yKlZ0fzIqVnR/FDgBAAAAAC5BgRMAYHp6ozufcNxKn/7k9QvUtCbN9ypw0kQ6CwtL/1IrECzlx2TrWJetx3drvecTnPK8jd4c3FoANrIYLjrWkXNvxSL3hNyTViy+oq4/1uzP7Vlzr8Ui94euLXc7x6HACQAAAADQgwInAMD09F+e+YSjPtViy7ru7/UL1LQmzfcqcAIwRn5Mto512Xp8t9a3Fjjpb5feHCzpzURvu9Taeu4jM8SK7k/OGCu6PxkVK7o/GRUruj+ptc3wCU5WmFDSube3XeOYfVrLlrZaf9ITK7q/kbGOnHtPrOj+hNyTGXJXsaZ+UuAEAAAAAOhBgRMAYHr6BKZ8wrHEBCWila+hHAVOwLHlx2TrWJetx3drvafASZ+AUFKhgz5lwWtTYYS3Xb+v+3lt0f2NjEXu69rIPTly7o/9CU6KnRcpAEAvjSkUOAEAAAAAelDgBACYmiYX88nGrZOTekPZ6xdoKV9HOQqcgGPLj8nWsS5bj+/W+tYCJ3sDsGTFD16biia87SqaEK+tpz/9vu7ntUXHOnLurVjknpB70or12AVOABCJAicAAAAAQA8KnAAAU9MbPflk41a1N4mAltakOQVOwLHlx2TrWJetx3drfUuBk95YY2FhYckXCpwAnMkZC5zyT6kCsI13TAEAAAAeCpwAAFPTV/Tkk403NzfN9XJykjdn0KN8HeUocAKOLT8mW8e6bD2+W+tbCpwAYA0KnAAc1dkKnFSgoULUsmhDNGfhbZdam+ZBxGuL7m9kLHJf13ZtuevYEe/YAgAAAEoUOAEApvYYk5NA+TrKUeAEHFt+TLaOddl6fLfWKXACEI0CJwBHdcYCJ/Haer6ydORXoEbHIvdkZO6tWLPnrmOOAicAAACsRYETAGBamuTIJxqX3hz22r1+gSXlaytHgRNwbPkx2TrWZevx3VqnwAlANAqcABzVGQuc9Ok0KuAAsI2ukyhwAgAAwFoUOAEApqX/+sonGktLE5O8WYxe5WspR4ETcGz5Mdk61mXr8d1ap8AJQDQKnAAcFZ/g9CsVd3jbR366T3Qsck9G5t6KNXvufIITAAAAtqDACQAwraU3bcr1Um1SBVjSem1R4AQcW35Mto512Xp8t9YpcAIQjQInAEd11gInzUGUVPChYhCvTQUf3vbWfXr60+9b4UkpOha5JyNz7401Q+4656DACQAAAGtR4AQAmNZjTEwCUr6WchQ4AceWH5OtY122Ht+tdQqcAESjwAnAUZ31K+pU3FFSUYe3XXraovuTUbGi+5NRsaL7k1GxovuTyFg6n6HACQAAAGtR4AQAmJImFfNJxp5JSq9fYI3y9ZSjwAk4tvyYbB3rsvX4bq1T4AQgGgVOAI7qaAVOb9++vXvx4sXdZ599top+V/fRfVXAoU+pKfsUFXx42/UJOOK19fSn39f9vLboWOSejMy9FWv23HXMUeAEAACAtShwAgBMSW+q5JOM5aSj/juytX57e+v2C6xRvt5yFDgBx5Yfk61jXbYe3611CpwARKPACcBRHa3AaUtxk/n9739/XwSigg+xopCcCj687a379PQno2JF9yfknkTHmiF3nXNQ4AQAAIC1KHACAEzpzZs3DyYZt6r9xxiwRmvSnAIn4NjyY7J1rMvW47u1ToETgGgUOAE4qqMVOHkFTGuoeOOMBSlC7sttrf5Gxpo9d53PUOAEAACAtShwAgBMaY9JSWCt8vWUo8AJOLb8mGwd67L1+G6tU+AEIBoFTgCO6loKnHRfFYJs/couK/zw2nr6G/l1Y+SejMy9FWv23PmKOgAAAGxBgRMAYDqa3MgnGJcmIEv69CevX2Ct1muMAifg2PJjsnWsy9bju7VOgROAaBQ4ATiqoxc4ffjw4U7Ly5cvH6xr+fjx46ffU7GHijr001Nr67mPzBAruj8ZFSu6PzljrOj++AQnAAAAbEGBEwBgOre3tw8mGG9ubjat6/5ev8BarUlzCpyAY8uPydaxLluP79Y6BU4AolHgBOCojlzg9Pr163+UMv1a4PTdd999up3/ntin4OjTbnS7pIIPb7t+X/fz2qL7GxmL3Ne1XVvuOuegwAkAAABrUeAEAJiOPoEpn2DcShMkXr/AWq1JcwqcgGPLj8nWsS5bj+/WOgVOAKJR4ATgqI5c4KRPaBIrarICJ/3Mf080N9FT8NG6T09/vQUp5L6ubYbce2PNkDsFTgAAANiCAicAwHRaE466vbTuTUgCW+SvqRIFTsCx5cdk61iXrcd3a50CJwDRKHACcFRHLXBSEZO+jq781Kb8K+ryQicVe6ioQz89PW3R/cmoWNH9yahY0f3JqFjR/UlkLJ3PUOAEAACAtShwAgBMRf+9lU8ubqVPf/L6BbZoTZpT4AQcW35Mto512Xp8t9YpcAIQjQInAEd1xAIn+2q61tfSWaGTbdd9VcCheY6yT1HBh7ddn4AjXltPf/p93c9ri45F7snI3FuxZs9dxxwFTgAAAFiLAicAwFRub28fTC7e3NxsWtf9vX6BLVqT5hQ4AceWH5OtY122Ht+t9a0FTproB4BcPkYIBU4AjuqIBU4//fTTffFSvuir6vICp7LwSUUgKvgQKwrJqeDD2966T09/MipWdH9C7kl0rBly1zkHBU4AAABYiwInAMBU9AlM+eTiVt5kJLBVa9KcAifg2PJjsnWsy9bju7W+pcBJf8u0aKLf8/PPP2/aLn/729/c7dLTX3RbT35Sa4vOT6Jj1fY5Oj+ptfXkJ7X7RT+P0pP7DP1JdKxffvnlwXg2ssBJ8b1F+Yq3aLteE96if1KoLbW2pVi1tlZ/tfx6+tMyMvfI/rTMkvvsr5nI/rScNffa86hF5zlH/Yo6r5DJbtuSf0WdijfOWJAi5L7c1upvZKzZc9f5jM4zyuMOAAAA8FDgBACYhiYS88nFcqJx6c1htXv9AluVr60cBU7AseXHZOtYl63Hd2t9a4FTbZLf3gjw2vSmgbd95FdM9MYi94Tck55YZ81dxU2PWeCkJV83R3i8j/w6P3LutVjk/tC15W5j2dELnNbSfXsew5HPSXQsck9G5t6KNXvurWsfAAAAoESBEwBgGn/6058eTCxuVZt8AbZqTZpT4AQcW35Mto512Xp8t9a3Fjjp0w/szYOc/taJ16Y3DbztUmtr9TcyFrmvayP3dW1nzF1fw/zYBU5eXjL74x3d38hYR869J1Z0f0LuyQy521h2tAKnL774wi1gann69On9Y6fHwh7HUq2t5z4yQ6zo/mRUrOj+5IyxovvjE5wAAACwBQVOAIBp/PWvf30wsaiPvM/Xf/zxxwfrZTuFI4jSmjSnwAk4tvyYbB3rsvX4bq33fIKT98agvRHgtelNA2976z49/cmoWNH9Cbkn5J7MnvusBU6tnFttsz/ePf0JuSfknpB7ctQCp7dv3949f/7cLWTyfPXVV3fffPPNp0/B0b7rdkmPobddv6/7eW3R/Y2MRe7r2q4td51zUOAEAACAtShwAgBMY4+JSKBH+drKUeAEHFt+TLaOddl6fLfWewqc8ryN3jAQr01vGnjb9caB3mzw2lr92RsXXlt0LHJPyD3piXXW3FUQ8NgFTvm6OcLjfeTX+ZFzr8Ui94euLXcby45W4LTEG6NNz2M48jmJjkXuycjcW7Fmz7117QMAAACUKHACAExBExr5pGLPpKTXL9CjfH3lKHACji0/JlvHumw9vlvrWwuc9BV1eoOgpDcGvO3S0xbdn4yKFd2fjIoV3Z+MihXdn4yKFd2fjIqlTy597AInLy8Z9RjIqFjR/cmoWNH9yahY0f3JqFjR/cmoWNH9Sa3NxrIzFjhp37TfALbRdRIFTgAAAFiLAicAwBT0H175pOKSchIyf2MYuFT5+spR4AQcW35Mto512Xp8t9Z7PsFJfxtL+m9pvUHotekNAm976z6tNm1Xu9cWHYvcE3Jf11aLFd2fzJC79+kgowucvLyiHwPhdZ4cOfdarOj+hNyTWqzo/qQndxvL+ASnX+kx9LbrMRSvrac//b7u57VFxyL3ZGTurViz527XPl4bAAAAUKLACQAwhdvb2weTilsnISkaQaTy9ZWjwAk4tvyYbB3rsvX4bq1HFTjpTQO9oeC16U0Db7t+395sKLX6GxmL3Ne1kftyW3R/MkPuOld+7AKnfN0oN+XstWl/xGuz/fTa9Hh723tjRfdH7klPLHJ/6NpyP3OBk8ZpeyxzeizEa9Nj6G1v3aenPxkVK7o/IfckOtYMueucgwInAAAArEWBEwBgCo8xCQnUlK+vHAVOwLHlx2TrWJetx3drfWuBU+0r6kRvDmzZLj1t0f3JqFjR/cmoWNH9yahY0f3JqFjR/UlkrBkKnJQbAFzCvqLuL3/5y/24s1Y+Pu0tH/vWahU4ab+97VJrs7Hfa4vub2Qscl/Xdm2563yGAicAAACsRYETAODR6Y3cfEKxnMBcs+71C/RqTaJT4AQcW35Mto512Xp8t9bzsePVq1d3z549u/vss89WefHixd3bt2/v87c3Asr9Er1p4G2f5VMbyD0h9yQ61llz15vnj13glK+bIzzeR36dHzn3Wixyf+jacrex7Ntvv30w5szEy3uJN0abnsdw5HMSHYvck5G5t2LNnrt9eq3XBgAAAJQocAIAPDq9gZJPKG59A0b/Ken1C/QqX2M5CpyAY8uPydaxLluP79Z6PnY8efLELWRq+f3vf3//RoLeNBB7YyGnNw287VJra/U3Mha5r2sj93VtZ8x9hk9w8vKS2R/v6P7+//buWFdy40wbsEMFC3gwGMOWrkp34LkCh8oE34AzTzaBNrMiJetMBkaBAG+2gTcRFrDCjRTpAubHe/YvdR26yEPyVPMUu58GHuiQNV31NYfFGbHeYR851plr3zNW7/5C7Rcj1F6uZbcYcEpAoyVP5Wztj7m2Pe+JEcbq3V8cNVbv/uIWx+rdX8wFBAEAYErACYAXN12c2WruX4fBXksLhNcMOLVu9AHrrP2q0npOLs312Dq/l7bra0crwLRGFgb3LDQuvWdPf3HUWL37C7VfqP1i9NqvGXDa+lS5BC6//PLLh7qWal5qG/147+kv1H6h9gu1X9xqwCnyd1Fgn9acAgCAFgEnAF7c0oLLmm03Q+hteo7VrhVwKv/qd3qjLzJma3/6yuLm1rbsT3urrfdYZ659bqze/YXaL+bGWnpP5s/af/Vbz8mluR5b5/fSdo5T+bkVGFgj9ZcFwunniiw0tvYf+RUTe8dS+4XaL/aMdau1t65zuSaW60pMr0G1pevTnqfK5aszU8MZjveZz/Mz1z43ltofu7fay7XsFgNOAAAAXJ+AEwAvKgvT9c3EpcWX1va7d++a/cJzTM+zWh1SiLXnbJ6OsGUB8Xe/+93HP/3pTw8LBFk8yH+nshBRFh2msj/tW9t6j3Xm2ufaevcXan+6bam/1pNN5tRzdGmux9r5vWZ7GnD65ptvHr7yqbzK3M/r+++//2X7p59++vjDDz88/JzPn+Od/7bsaevdXxw1Vu/+4qixevcXR43Vu784aqze/cVRY3348OFqAadyvdmq1HbUMYijxurdXxw1Vu/+4qixevcXR43Vu784aqze/cVcW7mWCTgBAACwh4ATAC8qi9L1zcTc8Nyynfe3+oXnWFog3Btw2vN0hNevXz8sBPReWOjdXxw1Vu/+4qixevcXR43Vu7/oOdZZA0757+eff/4Qairbec0FnBLmWgp65fi09i+9Z6kt+1ths+g9ltov1L6ubW6s3v3FCLXnGjdawCl19T4G4Ty/OHPtc2P17i/UfjE3Vu/+Yk/t5Vom4AQAAMAeAk4AvKg8gal1U3Gt3CRt9QvPsbRAuDfg1FoYXCP1ZPFgWmPk/M/iQastCwvRaisLDq223mOdufa5sdT+2Ai1txb+59RzdGmux9r5vWZ7GnAqtgScUv/SsTvzfFP7hdov9ox1q7W3rnM9A065zpRXueZEXkvXpDMc7zOf52eufW4stT92b7WXa5mAEwAAAHsIOAHwopYWW6bbWRyut/NzvuKu1S88x/Q8rB0dcMpiQxYPysLD1FxbFhVia1vvsc5c+56xevcXar+Y6++MT3AqyqvengsT5PMD9+mor6jLPz7I64svvnjYzss1CejFV9QBAADwHAJOALyYhJNaNxTXygJMq194rqUFwucGnMrTWurFwul2vXiY8EYWA6aBjugdEomjxurdX6j94t5qP2PAqVwL6ielRF5LT0spn3n6uSLHrrV/lKc2qP1C7Re9x7rV2nONOzLglGtUtvNauiad4Xif+Tw/c+1zY6n9sXurvVzLBJwAAADYQ8AJgBeTBen6RuJ33333aDv/urPenrbn/a1+4bmWFgifE3DKV1CV19qAU+o58+LWmWufG0vtj41Qe2vhf049R5fmeqyd32u2pwGnzPFpuKnszzUgP0+/vi7HLMcgyjGs5feitT/m2pb6O3Ista9rU/u6tlusvRXk7BlwyhObyquEmyKvub+j5Lqc2vJZ8vNU+Yxb23IMWvv3jtW7P7Vf7Bmrd3+h9qfbevcXe2ov1zIBJwAAAPYQcALgxeRfiLduKK6VG6StfuG5lhYIn/sEp5guFk6368XDLA5k8SD/bZlr2/OeGGGs3v3FUWP17i+OGqt3f3HUWK2vbppTz9GluR5r5/ea7WnAafqaXhPKqw5BlQXDyM9TOT6t/Uvv2dNfHDVW7/5C7Rdqvxi99msHnIoSdMrf07Od19LfUSKfp/w8Nde25z0xwli9+4ujxurdXxw1Vu/+4qixevcXR43Vuz8BJwAAAJ5DwAmAF5Gvp6sXVvLzU9vl15btVr/Qw/R8qx0dcEqQLwsE9b98LrLgmYWCrW3Zn/ZWW++xzlz73Fi9+wu1X8yNtfSeLJSdLeC0R+rPcYjp54r8XrT25xjl2LXalvorx7vV1nsstV+o/WLPWLdae+s6d42A0/TJcfn7yNxT5VLDGY73mc/zM9c+N5baH7u32su1TMAJAACAPQScAHgRuenZupm4Vv5Veatf6GFpgfDogFPqOfPi1plrnxtL7Y+NUHtr4X9OPUeX5nqsnd9rtutrxyeffPLLfF/r9evXD58/xzv/bdnT1ru/OGqs3v3FUWP17i+OGqt3f3HUWL37i6PGaj2prmfAqX7VT45baiu1HXUM4qixevcXR43Vu784aqze/cVRY/XuL44aq3d/MddWrmUCTgAAAOwh4ATAi8ij6eubiLnRuWU772/1Cz0sLRBeI+C09HSELA4Ay1oL/3PqObo012Pt/F6zXV873r59+/HNmze/XAOe8tvf/vbjn/70p4eQV4JhWSDMz1M5Fq39S+9Zasv+tLfaeo+l9gu1r2ubG6t3fzFC7a0g5zWe4LRF6up9DMJ5fnHm2ufG6t1fqP1ibqze/cWe2su1TMAJAACAPQScAHgReQJT62ZisbQIE/mKu1a/0MPSAuE1Ak5lX3nVT0dIPVk8mNYYWSTI4kGrLQsL0WorCw6ttt5jnbn2ubHU/tgItbcW/ufUc3Rprsfa+b1m+6lrR4IKpcb8Gffzzz8/qrtYOnZnnm9qv1D7xZ6xbrX21nWuV8Bpz1PlPv3004caznC8z3yen7n2ubHU/ti91V6uZQJOAAAA7CHgBMDhsnBb30BcWnCZ2271C71Mz7laj4DTFllsyOJBWXiYmmvLokJsbes91plr3zNW7/5C7Rdz/eWpfrcWcPrxxx8fPi9AtJ5U1yvgtPWpcr/+9a8//v73v2/WCbCkXMsEnAAAANhDwAmAw+VfdLZuJK6Vpz+1+oVelhYI9wac9jwdIYuNCW9kMWAa6IjeIZE4aqze/YXaL+6t9lsMOHmC0/9R+2Nqv5gb61ZrzzXuWgGn1vbf//73R2PlVW8XZzjeZz7Pz1z73Fhqf+zeai/XMgEnAAAA9hBwAuBwWYiubyDmX3HW21sXXKC36TlX2xtwytMRXr161QwyteSrX96/f/9Qz5kXt85c+9xYan9shNpbC/9z6jm6NNdj7fxes70n4JTPPJVjkGPXasvvRWt/fn05rlNL/R05ltrXtan96bbe/cUItbeCnEcHnFp19T4G4Ty/OHPtc229+wu1P93Wu7/YU3u5lgk4AQAAsIeAEwCH27rAMt3Owm+rX+hles7V9gacirmAXm70J9DQkq+qau2PubY974kRxurdXxw1Vu/+4qixevcXR42V19o/G+o5uTTXY+v8XtreGnDKZ83iYEsWFLfsjz1tvfuLo8bq3V8cNVbv/uKosXr3F0eN1bu/6DnWCAGnVl1x1DGIEcbq3V8cNVbv/uKosXr3F0eN1bu/OGqs3v0JOAEAAPAcAk4AHCqLtvXNw62LLdlu9Qs9Tc+72rUCTpH5AezTmlMt9ZxcmuuxdX4vbe95glNdd5GnIkSrLYuJrf15YkIWFVttS/3lPXlvq633WGq/UPvFnrFutfYEAl464FRvF2c43mc+z89c+9xYan/s3mov17K//vWvj645T12T8tTn7Iv65zWmv/6p7S1/rwQAAOBYAk4AHCo3O+sblbmBuGW7XgCGa5med7VrBpyA66vn5NJcj63ze2m71xOcspjY2h972nr3F0eN1bu/OGqs3v3FUWP17i+OGqt3f3HUWFmAf+mAUwlBTKXm1v5S+9a2uf5iz1i9+ztyrDPXvmes3v2F2i9GqL08wWlrwKnenrZNbemrtS3gBAAAMC4BJwAO9dRCzHR7au5fj0JPS+ehgBOcWz0nl+Z6bJ3fS9t7nuCUP/OmsjiYhcZWWxYTW/uX3rPUVhY0W229x1L7hdrXtc2N1bu/GKH28tST+no2QsAp9ZbPs6Utx7S1P+baeo/Vu79Q+4XaL9R+IeAEAADAcwg4AXAoNxs5g+l5VxNwgnOr5+TSXI+t83tpe0/Aqa67KAuErbYsNLb2JxyRhcZW21J/eU/e22rrPZbaL9R+sWesW619hIBTvV2c4Xif+Tw/c+1zY6n9sXurvVzLBJwAAADYQ8AJgMPkRmF943B6I/Gpxd+0t/qF3qbnXk3ACc6tnpNLcz22zu+l7S0Bp/Dy8vKavqaL7kcHnBJmAHiO8nWbAk4AAADsIeAEwGH+8z//89GNw9zcrLe/++67R9vT9jzOvtUv9LZ001zACc6tnpNLcz22zu+l7a0BJ4CneILTxdJYvftT+8WesdT+2L3V7glOAAAAPIeAEwCHeffu3aMbh1vN3ViF3pZumgs4wbnVc3JprsfW+b20LeAE9HZ0wCmL/lP5damj1Zb9ad/alutla//esXr3p/aLPWP17i/U/nRb7/5iT+35Cl4BJwAAAPYScALgMG40chbTc6+WG/n19tbzODf8W2MCx6jn5NJcj63ze2n7qWtHFgLrOrP4l0VAgGL6d+FcN+rryPS6UttyvYrp31eWrkl5yuqW/dG7bfT+4qixevcXR43Vu784aqze/cVRY/XuL5back0RcAIAAGAPAScADpGbhPVNw6duSk7l6U+tflsyFmwxPYeWzs9rBZyEGWC/zJ/WvGqp5+TSXI+t83tpe0vAKdelfK7ptSqWnoqw50kKS23Zn/ZWW++x1H6h9nVtc2P17i9GqD3Xuem1Lr+2vo5Mryu1LderSC31WAA9JeCU686cfH39dN/c9Wpq2r51O9fcVs0AAAC8PAEnAA6Rf8FZ3zT88OHDpu28v9XvVG5G5jVd/I5//vOfzf3x448/NvfHXNue98SRY8195t71xVxb7/56/z7GdMFw6aZ5Fjnr7a03zFsLhjlvU0dZxKztWSANC8kXvcdS+7q2I2vPazqv5tRzcmmux9b5vbSdzzzXFvl8pcZ8plwT8tWsU3/+858//uUvf2m2/fGPf2zuz6/P+1ptS/0dOZba17Wp/em23v3FCLXn78ICTsCt+Prrrx9dc0bSqhcAAIAxCDgBcIg8gal183CtLOy0+p1q/ev2oiwYTfdnX9qm+yMLTdFqm+svshDW2t97LLU/tqf21jmztED4VEihtf327duPr169+virX/1qlc8+++zj+/fvH2o58ljsGat3f3FU7TE3ltovzlD7LQacEsrMZ27J8duyP/a09e4vjhqrd39x1Fi9+4ujxurdXxw1Vu/+oudYAk7ALRFwAgAAYA8BJwAOUS+a5Oet260+W7LwkwWgskheKwtErbYsJrX2L71nT39x1Fi9+4tbrL21YFiff1N7Ak5bwk1F3pOagafdYsApT3Cq6y7KtavVlmPR2n9kSG3vWGq/UPvFnrFutfZWIFvACTgrAScAAAD2EHAC4OqyWNO6cbhWnv7U6rdlKeCUxanW/iwkxda2uf7iqLF69xf3VvsRAadWgGmN1FLqrOsr8plGXowdvfaYG0vtF2eo/RYDTnmCUzketRyHaLXluLb2x1zbUn9HjqX2dW1qX9d2i7V7ghNwSwScAAAA2EPACYCry4JMfcPww4cPm7bz/la/La1/3V5kIam1OH7k4n3vsdT+2J7aW+fM0gLhkQGnHIPUHeWY1Jba5hZIY66t91i9+wu1X6j94mwBp3xt5Zs3b5rzvuU3v/nNxy+//PLhsy4dB+fEhdrXtan9YvTaBZyAWyLgBAAAwB4CTgBcXZ7A1LpxOGe6wJInWZS+3r9///Gzzz5rLgC3vH79+uMf/vCHh8WiLCaVhaOpubY974kRxurdXxw1Vu/+Yq4tgbojA04//fTTg/ycuZFX/lvav//++4d9+TkLmqXO6UJn5DO19sdc21J/e8bq3V+MPpba17UdWXte9RxeUs/Rpbkea+b32u362rHnayvzZ1/qL595+rkix6i1f5RAqdov1H7Re6xbrb0VyBZwAs5KwAkAAIA9BJwAuKqEk+oFk62LK9mu+9sSbip+97vf/bJglIWm/FzLvrLQtKVtrr/IQlhrf++xevcX91Z7a8Fweh7W9gacvvjii4cQRl4l4BT5+YcffvhlO6+EnPJzakntUddXlM/UarOQfLFnLLVfnKH2vFr7W+o5ujTXY838XrtdXzvKfN8qxyDHLv9t2dPWu784aqze/cVRY/XuL44aq3d/cdRYvfuLo8ZqBbIFnICzEnACAABgDwEnAK4qi9Gtm4Zr5ck2dX+tBd81ygJ9Fs7zcy370jbdH3Pveaoti1Ot/b3H6t1f3Fvtra98WVogfO4TnBJmqgNO9RObSggq/812at6zCBp72kbvL44aq3d/cdRYvfuLo8ba219e9RxeUs/Rpbkea+b32u0eAadcs5auZzlGrf1L71lqy/6e11u1r2tT+7q2ubF69xcj1N4KZAs4AWcl4AQAAMAeAk4AXFXCI/XNwvzr8y3b08WV1oLvGlksyuJU/tuyp613f3HUWL37i6PG6t3fSwec6lBTwk51WxY09yyQRj5va/9Sf3vG6t1fHFV77BlL7evajqw9r3oOL6nn6NJcjzXze+32NOBUP9Utr2w/9bWVqT/HIKafK3JcW/tzjHL8Wm1L/ZXfi1Zb77HUfqH2iz1j3WrtAk7ALRFwAgAAYA8BJwCuautiynQ7X3FX91cWfBMSKa+1i8J7FpPOvBCm9oulsVoLhtPzsNY74BTZLuGm/LfsTy1HHos9Y/XuL46qPebGUvvFGWrPq7W/pZ6jS3M91szvtdvTgNM333zz6BpQvqqy/jnyKteFHDfgPvmKOuCWCDgBAACwh4ATAFeTcFJ9o/CpYEirfdpnFnizKJxXfi6hkPy8tCicBfMsjkdZQK9l4ai1f+k9e/qLo8bq3V/cYu0v/QSnyHlaXgnslf2pGXhaXvUcXlLP0aW5Hmvm99rtacCpVv/5Va4H+bk85alcF1J/uXZNP1fkWLT2HxlS2zuW2i/UfrFnrFutvRXIFnACzkrACQAAgD0EnAC4mizStG4YzpkurGTRZtpnFnizCFwWgsuTmz7//PPFReEsMGVxqiw21bKQFFvb5vqLo8bq3V/cW+0jBJzK+Trdn1pKnXV9RT7TyIuxo9cec2Op/eIMtefV2t9Sz9GluR5r5vfa7bmAU64JeZU/r+o/v+oQb+TY5DhEOVa1HNfW/phrW+rvyLHUvq5N7evabrH21t9XBJyAsxJwAgAAYA8BJwCu5qlFl6e2WwvZWeCtn3RRB5yWFoXz3iwktfo8cvG+91hqf2xP7a0nIkzPxdpzA05blLpzLPLz1FJbjkVrf359OYZTe8bq3V8cVXvMjaX2izPUnlc9h5fUc3Rprsea+b12uxVwyp9TedXzvuwvf47lv2V/+b0ox2Iqx7W1f+k9e/qLo8bq3V+o/ULtF6PXLuAE3BIBJwAAAPYQcALgarYupEy38xV30z7Lwm8r4LS0KJzFoiwmlYWjqbm2Pe+JEcbq3V8cNVbv/mKu7cOHD1cPOH3yySe/nItrvX79+pcaRzhOo/cXR43Vu784aqze/cVRYy29J696Di+p5+jSXI8183vt9jTgVH/d6lT+/Cqv8mSnSP0l7DD9XJFj1NqfEFiOU6ttqb+8J+9ttfUeS+0Xar/YM9at1t4KZAs4AWcl4AQAAMAeAk4AXEXCSfVNwq2LKtlu9Vsv/JafE2Yqi79zi8JlwSgLTfm5ln1loWlL21x/kYWw1v7eY/XuL+6t9taC4fR8rO0JOL19+/bjq1evfjkfn/Lpp59+fP/+/UMtqT3q+orymVptFpIv9oyl9osz1J5Xa39LPUeX5nqsmd9rt6cBp/LVdOVV/1lWnkhY74scgxy7/LdlT1vv/uKosXr3F0eN1bu/OGqs3v3FUWP17i+OGqsVyBZwAs5KwAkAAIA9BJwAuIositQ3CZ9aRMmiTb2dr+Fo9VsWebPoW17l6U0xtyic92ZxqLU4fuTife+x1P7YntqPCDjV260FwwQC8/r555//xY8//tjcH73bRu8vjhqrd39x1Fi9+4ujxtrbX17TeTWnnpNLcz22zu+l7WnAaY9cy3JtLNfBqVwDW/uX3rPUlv1pb7X1HkvtF2pf1zY3Vu/+YoTaW39fEXACzkrACQAAgD0EnAC4iumCy1ZZyGn121rwXSMLU9ByxFfU1dtzC4YJOQH7tObUnHpOLs312Dq/l7bra8eer63Mk91SfwIQMf1ckWtaa3/+TE1ootW21F8JWrTaeo+l9gu1X+wZ61ZrF3ACbomAEwAAAHsIOAFwFVsXUabbcwvW//Zv/9Zc+F1SFoX3LCadeSFM7RdLY7UWDKfnY+1aASfgGPWcXJrrsXV+L23X1458beWbN2+af2a1/PrXv/74+9///uEaB9wnX1EH3BIBJwAAAPYQcAKgu4ST6huETy2gTL17967Zb7x///4hsNRaAG7JAvKXX375EJZJwCVKeKaWhaPW/qX37Okvjhqrd39xi7Xn6xAFnOB+1HNyaa7H1vm9tP3UtSNBhVJj/hzNV+/VdRfl2tVqy3WutX+UQKnaL9R+0XusW629FcgWcALOSsAJAACAPQScAOgugZH6BmH+xfmW7by/1e8aWfjJ+8uiUi2LU639WUiKrW1z/cVRY/XuL+6tdgEnuC/1nFya67F1fi9t7wk4JewwVa5lrbZcA1v78+vzvlbbUn9HjqX2dW1qf7qtd38xQu2tv68IOAFnJeAEAADAHgJOAHSXJzC1bhSulUWcVr9rtP51e1EWjKb7sy9t0/2RhaZotc31F1kIa+3vPZbaH9tTe+ucWVogFHCCc6vn5NJcj63ze2l7a8Dpxx9/fLhuteRat2V/7Gnr3V8cNVbv/uKosXr3F0eN1bu/OGqs3v1Fz7EEnIBbIuAEAADAHgJOAHS3ZQElP0+3s7Db6neNLPxkAai1MHTUAlSMMFbv/uKosXr3F3NteYKYgBPcj3pOLs312Dq/l7b3PMGprrtYCoDmOtfaP0qgVO0Xar/oPdat1t4KZAs4AWcl4AQAAMAeAk4AdJWFmdZNwrXy9KdWv2uVgFPqmMqCURaapvuzryw0bWmb6y+yENba33us3v3FvdXeWjBcWiAUcIJzq+fk0lyPrfN7aXtrwCmvhJym8mSn1v7Y09a7vzhqrN79xVFj9e4vjhqrd39x1Fi9+4ujxspr+o8ABJyAsxJwAgAAYA8BJwC6SriovjmYp+Ns2c77W/2u1QqrFCXgMt2ffWmb7o8EY6LVNtdfeErBxei1CzjBfann5NJcj63ze2l7S8ApEmQAqNXXiBBwAs5KwAkAAIA9BJwA6CpPYGrdJFxrLriyVhZ/vLy2vqaLhksLhAJOcG71nFya67F1fi9tbw04ATxFwAk4KwEnAAAA9hBwAqCbhETqxZH8XG8/tbib9la/cLTpuVkTcIJzq+fk0lyPrfN7aVvACehNwAk4KwEnAAAA9hBwAqCbv/3tb80bhGvNfYUYHG1pgVDACc6tnpNLcz22zu+lbQEnoDcBJ+CsBJwAAADYQ8AJgG7++7//+9GNwQ8fPjza/u677x5tT9v/8Y9/NPuFoy0tEAo4wbnVc3JprsfW+b20LeAE9CbgBJyVgBMAAAB7CDgB0M27d+8e3RjcupCSr7hr9QtHm56bNQEnOLd6Ti7N9dg6v5e2BZyA3gScgLMScAIAAGAPAScAukg4qb4puHURJdutfuElTM/PmoATnFs9J5fmemyd30vbAk5AbwJOwFkJOAEAALCHgBMAXXz77bfNm4NrWdhlJEsLhAJOcG71nFya67F1fi9tCzgBvQk4AWcl4AQAAMAeAk4AdPGPf/zj0U3BDx8+PNq2iMKZTM/PmoATnFs9J5fmemyd30vbAk5AbwJOwFkJOAEAALCHgBMAXWxdNJlu5yvuWv3CS5ien7VrBZwyB/73f/8X2GHLnyH1nFya67F1fi9tbw045TMB1OprRAg4AWcl4AQAAMAeAk4APFsWXOobglsXULLd6hdeyvQcrV0r4PTzzz83gxt5OlpsbctT1Fr7Y66t91i9+4vRx1L7urbeY+XVWvxvqefk0lyPrfN7aXtLwCmfJa9cF1p+/PHHTfvjn//8Z3N/7Omvd9ue+mKurXd90Xusuc/cu76Ya9tTX8y9r/fvY+ypfYT+ovdYud7V1zMBJ+CsBJwAAADYQ8AJgGf79ttvH90Q3LqAMn1qBby06Tlau2bAqRXQyPz685///C/74y9/+cuDVlvek/e22v74xz829/ce68y1x9xYar8Ypfa5+dNSz8mluR5b5/fS9taAUz5TXXexdBxG+H3aO5baL9R+sWesW629BDrrfQJOwFkJOAEAALCHgBMAz7ZlcaVlbjHpJWVRh/G1fu96WDqHtwSc3r59+/HNmzcff/WrX+3y+vXrj3/4wx8eFlaz4Dk1tz96t43eXxw1Vu/+4qixevcXR4219J488eTWAk75TCUgUSufudWWY9TaH3NtS/0dOZba17WpfV3bLdZenmBXX88EnICz2hpwyjXqKK16AQAAGIOAEwDPlpuA05uPW7bXLkofJfXU9TG2LPq1fh+fY3qO1rYEnF69etUMLm3xm9/85mERNEHAqXz2ubaycNpqy+Jpa/9Sf3vG6t1fHFV77BlL7evaeo91q09wymeeyjEox28qx661f+k9e/qLo8bq3V+o/ULtF6PXLuAE3JK//vWvj645W65R07apLX21tke7PwEAAMCFgBMAzzINA+25mdjq9yUJOJ1TFv9av597TM/T2paAUyuwtEcWO1uhjrIIurUtC6ut/fn1Pcfq3V8cVXvMjaX2i1FqP0vAKU91e07w8bPPPvv45ZdfPhyH1mfLsWvtzzHK8Wu1pa+5/srvbaut91hqv1D7xZ6xbrV2X1EH3BIBJwAAAPYQcALgWbL4Ud8M/PDhw6bt/Gv0Vr8vScDp3N69eze7QLnW0k3zlwg4ZWE1C54tc2173hMjjNW7vzhqrN79xVFj9e4vjhrrLF9R1+OpbukjxwG4L/k7tIATcCsEnAAAANhDwAmAZ0mYpL4ZuNVzgyjXIOB0G54TdFq6ab434PT9999/zOvzzz9/2M7rhx9++KU9r59++unRdt6TnxPgaNV55idRjF57zI2l9otRaj/LE5zK/H6uueMwwu/T3rHUfqH2iz1j3WrtnuAE3BIBJwAAAPYQcALgWZ5z8zA/j3jzUMDptuwJOk3P29qegFP9KgGnhJtKoOmLL774/63/1x55pfa0Z2G1LJTWsggaW9vm+oujxurdX6j94t5qv8eAU65rUzl2rf359Tl2rbZyTLe29R5L7eva1P50W+/+YoTa89RTASfgVgg4AQAAsIeAEwC7TYNA0+DHUxLeaPX70gScblMWAXPOrbF003zvE5y++eabh9BSCTjV23lSUwJPeZUa8iq/tiyETmX/XFsWY1v7Y65tqb89Y/XuL0YfS+3r2nqPdZavqCvXg/qVa0HZt/apbjlG5XjU5vbHnrbe/cVRY/XuL44aq3d/cdRYvfuLo8bq3V/0HEvACbglAk4AAADsIeAEwG5ZaKlvBH733XePtj98+PBoe9qe97f6fWkCTrfpqRvhtaVf2yvgVJ7alDBTQgxpT7ghAYaogw1Z2GydqyXc0WrLe/LEh1ZbFk9b+/Pre47Vu784qvaYG0vtF6PUfqYnOGXuR37OXM8rP295qtvccRjh92nvWGq/UPvFnrFutXZfUQfcEgEnAAAA9hBwAmC3LNokxPTUDcY5c4tIL03A6TZtOU+Xfm2vgFPkVQIOCTTk1yTgUIJO5ddlYTULnlNz+6N32+j9xVFj9e4vjhqrd39x1FhL7znbE5yKOuBUXyOyf89T3XKMWvtjrq0cw61tvcdS+7o2ta9ru8XaPcEJuCUCTgAAAOwh4ATAs9Q3BVvq9vJz2W71NwIBp9s0PQeXLP3angGnEm5oPbWlPOElsgiaQOBUFjzn2srCaasti6et/Uv97Rmrd39xVO2xZyy1r2vrPdaZnuBUlGtC/pvtMv/XPtUtx2Mqx661P79+7j1LbXP9xVFj9e4v1H6h9ovRaxdwAm6JgBMAAAB7CDgB8CxZcKlvBhZP3XTMAm6rvxEION2enKf5fV3j66+/Xjx/ewacylNZEl4o+8qrbEcWO1vnaln0bLXlPQl+tNqysNran1/fc6ze/cVRtcfcWGq/GKX2swWcSrixDjJGXnVbrhutp7rNHYcRfp/2jqX2C7Vf7BnrVmv3FXXALRFwAgAAYA8BJwCeLYs39Q3BlulNw/wr9FZfI8gNzbpWzmtuYXHJtQJOz5GFVWDemb6irjypaRpuihJuWvNUt5Yci9b+mGvb854YYaze/cVRY/XuL44aq3d/cdRYvfuLo8bK10ILOAG3QsAJAACAPQScAOiiviG4xp7gyVEEnM7vOefX3/72t8Wb5lsCTp988skvgYS9fvvb3z4sbLZqzeec+6x5z8hPohi99pgbS+0Xo9R+pic4lae51a/yZLctT3XL8ZvKsWvtz3Gbe89SW/anvdXWeyy1X6h9XdvcWL37ixFq9wQn4JaUf1SyRX2NWrLl10b96/N3MQEnAACAcQk4AdBFFmTqm4Rr5D2tvl6agNM55WZ0r3Nq6ab4loDT27dvP7558+ZRMGGLvPfLL798WFjNZ5vKImhZJN3SNtdfHDVW7/5C7Rf3VvvZvqLuufKZWwGIHLvW/vz6HLtWWzmmW9t6j6X2dW1qf7qtd38xQu15+qmAE3Ar8v9u9TVnBLkGt2oFAABgHAJOAHSTf4XZulG4ZMSbiAJO55JzqOd5lL6yyLdFq645c7UmoJHFxPJ5iix0loXQLW1ZjG3tj7m23mP17i9GH0vt69p6j7XmK+rKr23N4b1ac3xJj6e6vX79+uEYleNRm9sfe9p69xdHjdW7vzhqrN79xVFj9e4vjhqrd3/Rc6y5gFPr2jSndV2ak+tlPRZAT63rzktyzQMAADgHAScAumrdLHxK/lV6q6+XlKAJ4+t9Izr9tc7R3vIvlqdjzz2BJvMjC5vT/ZF6545B3jM3t7J42trfe6wz1x5zY6n9YpTal57gVN7XmotHy1PdXr161QwurfHpp58+PNVt7jiM8Pu0dyy1X6j9Ys9Yt1r79Cvq0nfrOtPLXO0Az5VrXeu681Jc7wAAAM5DwAmArvYutrT6giNde6FwahpyyqJlQhoteTrNlv3Ru230/uKosXr3F0eN1bu/OGqspffkNQ04HT2neygLbPks+bzZnkr4IVptCWG09sdc21J/R46l9nVtal/Xdou1109wOiIc0ApjA/QwUsCpFTYFAABgXAJOAHSXRZjWzcMlFlF4STn/WufltWXc+qZ6Qg3APmUe7fkzaBSpvVwLEtwqwYbanmDE0nv29BdHjdW7v1D7hdovRq+9Djgd9feWcl0F6Oml/t+rlutqqzYAAADGJuAEwFW0biI+RciJoyVcNMINdv9yGJ6nBABa8+ts8nlKwGn6OaN81lZbQhOt/bnGJDTRalvqL++Zuz71HkvtF2q/2DPWrdZevqIuv6Z17biGueMB8Byt682R5q7NAAAAjE/ACYCryE3D1s3Ep7jZyFH2nqPXYhERthttHveQz5WAU1711/AVR3713+hj9e4vjhqrd39x1Fi9+4ujxurdXxw1Vl65NhwZzPb3cqC3I0OaLa5rAAAA5ybgBMDV7F2AcdORaxs1FOHch3VGncM9lOtAggwAtaOvff5eAvT2kgEn/6AEAADg/AScALia59y8tKDCtYwejHDuQ1vmxujztwfXAGBO65pxTb4+GujtJb4e3LUMAADgdgg4AXBVz1mM/o//+A/ornWujaZVN9yzf//3f2/OlVuUz9o6BsB9e4nroOsRtYRE1mi9F4qjr2WC4wAAALdFwAmAq2vdaFzjnha0oebch/tl/gOjcD1ij6+++qq5H44m3AQAAHB7BJwAuLq9T3GyqMK9cu7D/TL/gVG4HrGHgBMjyNflt+5NAAAAcG4CTgAcYk/IyaIK98q5D/fL/AdG4XrEHgJOvKR8TWLrfgQAAAC3QcAJgMO0bkAu+fDhw8PCCvTSOs9G5NyHx1rz5Fa1Pj9A63pxba06uF+tc6QlAafW+yFa50wvvpIOAADg9gk4AXCYr7/+unkjcs61b4DCqJz7cL/Mf2AUrkfs4QlOvAThJgAAgPsg4ATAobZ8VZ1FFe6Vcx/ul/kPjML1iD0EnDiacBMAAMD9EHAC4HCtm5ItFlW4V859uF/mPzAK1yP2EHDiKO/evWvebwAAAOB2CTgBcLi1T3H68OHDw8IK9NI6z0bk3IfHWvPkVrU+P0DrenFtrTq4X61zpCUBp9b7IVrnzB6e2gQAAHCfBJwAeBFrQk49b4DCmTj34X6Z/8AoXI/YwxOcuDbhJgAAgPsl4ATAi/j222+bNytrFlW4V859uF/mPzAK1yP2EHDimoSbAAAA7puAEwAv5qmnOPmaLq6hda6NplU33LPWPLlVrc8PEK1rxjW1auB+tc6RFl9Rx5LWObPGu3fvHv6RVOu+AgAAAPdDwAmAF9W6eQkAtecsiAEAz+fPYnrYcx55ahMAAACFgBMAL+qppzgBgEVVAHhZ/iymh63nkXATAAAANQEnAF6ckBMASyyqAsDL8mcxPWw5j4SbAAAAmBJwAmAIrRuauflZ++qrr/5lX63VXu97qr1Fe//2l6ypdZ6NqFV7sefz1/ueam/R3r+93vdUe8s9trfmyq2afvYY8fektqe93vdUe4v27e31vue2t2jf3l7vW2pvXSuurR5/zi221/ueam+55fbWedLSem/R6r/e99z2Fu3b2+t9T7W3LLW3zpnau3fvPn777bfN+wYAAADcNwEnAIbgKU4AzFmzGAYAXI8/i+nhqfPIU5sAAABYIuAEwDC+/vrr5k1OAO6bRVUAeFn+LKaHpfNIuAkAAICnCDgBMJTWjU4A7ptFVQB4Wf4spoe580i4CQAAgDUEnAAYSv1Vdbn5Wfvqq6/+ZV+t1V7ve6q9RXv/9pesqb6JPrJW7cWez1/ve6q9RXv/9nrfU+0t99jemiu3avrZY8Tfk9qe9nrfU+0t2re31/ue296ifXt7vW+pvXWtuLZ6/Dm32F7ve6q95ZbbW+dJS+u9Rav/et9z21u0b2+v9z3V3rLUPj1fvv322+a9AQAAAJgScAJgOHXICQBai2EAwHH8WUwP9XnkqU0AAABsJeAEwJDqm6AA3DeLqgDwsvxZTA/lPBJuAgAAYA8BJwCG5ClOABQWVQHgZfmzmB5yHgk3AQAAsJeAEwDDyo3Pv//979BVzqszaNUO96w1T25V6/MDtK4X19aqg/vVOkdaWu+F+J//+Z/m//sDAADAGgJOAAAAAAAAAADAsAScAAAAAAAAAACAYQk4AQAAAAAAAAAAwxJwAgAAAAAAAAAAhiXgBAAAAAAAAAAADEvACQAAAAAAAAAAGJaAEwAAAAAAAAAAMCwBJwAAAAAAAAAAYFgCTgAAAAAAAAAAwLAEnAAAAAAAAAAAgGEJOAEAAAAAAAAAAMMScAIAAAAAAAAAAIYl4AQAAAAAAAAAAAxLwAkAAAAAAAAAABiWgBMAAAAAAAAAADAsAScAAAAAAAAAAGBYAk4AAAAAAAAAAMCwBJwAAAAAAAAAAIBhCTgBAAAAAAAAAADDEnACAAAAAAAAAACGJeAEAAAAAAAAAAAMS8AJAAAAAAAAAAAYloATAAAAAAAAAAAwLAEnAAAAAAAAAABgWAJOAAAAAAAAAADAsAScAAAAAAAAAACAYQk4AQAAAAAAAAAAwxJwAgAAAAAAAAAAhiXgBAAAAAAAAAAADEvACQAAAAAAAAAAGJaAEwAAAAAAAAAAMCwBJwAAAAAAAAAAYFgCTgAAAAAAAAAAwLAEnAAAAAAAAAAAgGEJOAEAAAAAAAAAAMMScAIAAAAAAAAAAIYl4AQAAAAAAAAAAAxLwAkAAAAAAAAAABiWgBMAAAAAAAAAADAsAScAAAAAAAAAAGBYAk4AAAAAAAAAAMCwBJwAAAAAAAAAAIBhCTgBAAAAAAAAAADDEnACAAAAAAAAAACGJeAEAAAAAAAAAAAMS8AJAAAAAAAAAAAYloATAAAAAAAAAAAwLAEnAAAAAAAAAABgWAJOAAAAAAAAAADAsAScAAAAAAAAAACAYQk4AQAAAAAAAAAAwxJwAgAAAAAAAAAAhiXgBAAAAAAAAAAADEvACQAAAAAAAAAAGJaAEwAAAAAAAAAAMCwBJwAAAAAAAAAAYFgCTgAAAAAAAAAAwLAEnAAAAAAAAAAAgGEJOAEAAAAAAAAAAMMScAIAAAAAAAAAAIYl4AQAAAAAAAAAAAxLwAkAAAAAAAAAABiWgBMAAAAAAAAAADAsAScAAAAAAAAAAGBYAk4AAAAAAAAAAMCwBJwAAAAAAAAAAIBhCTgBAAAAAAAAAADDEnACAAAAAAAAAACGJeAEAAAAAAAAAAAMS8AJAAAAAAAAAAAYloATAAAAAAAAAAAwLAEnAAAAAAAAAABgWAJOAAAAAAAAAADAsAScAAAAAAAAAACAYQk4AQAAAAAAAAAAwxJwAgAAAAAAAAAAhiXgBAAAAAAAAAAADEvACQAAAAAAAAAAGJaAEwAAAAAAAAAAMCwBJwAAAAAAAAAAYFgCTgAAAAAAAAAAwLAEnAAAAAAAAAAAgGEJOAEAAAAAAAAAAMMScAIAAAAAAAAAAIYl4AQAAAAAAAAAAAxLwAkAAAAAAAAAABiWgBMAAAAAAAAAADAsAScAAAAAAAAAAGBYAk4AAAAAAAAAAMCwBJwAAAAAAAAAAIBhCTgBAAAAAAAAAADDEnACAAAAAAAAAACGJeAEAAAAAAAAAAAMS8AJAAAAAAAAAAAYloATAAAAAAAAAAAwLAEnAAAAAAAAAABgWAJOAAAAAAAAAADAsAScAAAAAAAAAACAYQk4AQAAAAAAAAAAwxJwAgAAAAAAAAAAhiXgBAAAAAAAAAAADEvACQAAAAAAAAAAGJaAEwAAAAAAAAAAMCwBJwAAAAAAAAAAYFgCTgAAAAAAAAAAwLAEnAAAAAAAAAAAgGEJOAEAAAAAAAAAAMMScAIAAAAAAAAAAIYl4AQAAAAAAAAAAAxLwAkAAAAAAAAAABiWgBMAAAAAAAAAADAsAScAAAAAAAAAAGBYAk4AAAAAAAAAAMCwBJwAAAAAAAAAAIBhCTgBAAAAAAAAAADDEnACAAAAAAAAAACGJeAEAAAAAAAAAAAMS8AJAAAAAAAAAAAYloATAAAAAAAAAAAwLAEnAAAAAAAAAABgWAJOAAAAAAAAAADAsAScAAAAAAAAAACAYQk4AQAAAAAAAAAAwxJwAgAAAAAAAAAAhiXgBAAAAAAAAAAADEvACQAAAAAAAAAAGJaAEwAAAAAAAAAAMCwBJwAAAAAAAAAAYFgCTgAAAAAAAAAAwLAEnAAAAAAAAAAAgGEJOAEAAAAAAAAAAMMScAIAAAAAAAAAAIYl4AQAAAAAAAAAAAxLwAkAAAAAAAAAABiWgBMAAAAAAAAAADAsAScAAAAAAAAAAGBYAk4AAAAAAAAAAMCwBJwAAAAAAAAAAIBhCTgBAAAAAAAAAADDEnACAAAAAAAAAACGJeAEAAAAAAAAAAAMS8AJAAAAAAAAAAAYloATAAAAAAAAAAAwLAEnAAAAAAAAAABgWAJOAAAAAAAAAADAsAScAAAAAAAAAACAYQk4AQAAAAAAAAAAwxJwAgAAAAAAAAAAhiXgBAAAAAAAAAAADEvACQAAAAAAAAAAGJaAEwAAAAAAAAAAMCwBJwAAAAAAAAAAYFgCTgAAAAAAAAAAwLAEnAAAAAAAAAAAgGEJOAEAAAAAAAAAAIP6r4//DyLvQhnR2xyFAAAAAElFTkSuQmCC;" parent="1" vertex="1">
          <mxGeometry x="-560" y="620" width="1200" height="601.53" as="geometry" />
        </mxCell>
        <mxCell id="e-5Xq3-YnTkipl-v7S59-3" value="Quay Line" style="rounded=1;whiteSpace=wrap;html=1;fillColor=none;horizontal=1;verticalAlign=bottom;fontStyle=1;fontSize=22;dashed=1;strokeColor=#0066CC;dashPattern=1 4;labelPosition=center;verticalLabelPosition=top;align=center;" parent="1" vertex="1">
          <mxGeometry x="-290" y="680" width="800" height="100" as="geometry" />
        </mxCell>
        <mxCell id="e-5Xq3-YnTkipl-v7S59-5" value="Yard" style="rounded=1;whiteSpace=wrap;html=1;fillColor=none;horizontal=1;verticalAlign=middle;fontStyle=1;fontSize=22;dashed=1;strokeColor=#FF0080;dashPattern=1 4;labelPosition=left;verticalLabelPosition=middle;align=right;" parent="1" vertex="1">
          <mxGeometry x="-400" y="790" width="1010" height="370" as="geometry" />
        </mxCell>
        <mxCell id="YEyGg82d8EVNCoPFO2St-1" value="&lt;b&gt;External&amp;nbsp;&lt;br&gt;Truck&lt;br&gt;Gateway&lt;/b&gt;" style="rounded=0;whiteSpace=wrap;html=1;fillColor=#0066CC;dashed=1;fillStyle=hatch;strokeColor=#0066CC;" vertex="1" parent="1">
          <mxGeometry x="340" y="1060" width="190" height="80" as="geometry" />
        </mxCell>
        <mxCell id="YEyGg82d8EVNCoPFO2St-2" value="Administration Area" style="rounded=0;whiteSpace=wrap;html=1;fillColor=#FF8000;dashed=1;strokeColor=#FF8000;fillStyle=hatch;fontStyle=1;fontSize=14;" vertex="1" parent="1">
          <mxGeometry x="-310" y="1169" width="650" height="41" as="geometry" />
        </mxCell>
        <mxCell id="YEyGg82d8EVNCoPFO2St-7" value="&lt;b&gt;&lt;font style=&quot;font-size: 18px;&quot;&gt;Normal Blocks&lt;br&gt;&lt;/font&gt;&lt;/b&gt;" style="rounded=0;whiteSpace=wrap;html=1;fillColor=#0050ef;strokeColor=#001DBC;fillStyle=dashed;dashed=1;fontColor=#000000;" vertex="1" parent="1">
          <mxGeometry x="-260" y="800" width="740" height="210" as="geometry" />
        </mxCell>
        <mxCell id="YEyGg82d8EVNCoPFO2St-8" value="&lt;font style=&quot;font-size: 16px;&quot;&gt;&lt;b&gt;Empty &lt;br&gt;Container&lt;br&gt;Blocks&lt;br&gt;&lt;/b&gt;&lt;/font&gt;" style="rounded=0;whiteSpace=wrap;html=1;fillStyle=dashed;dashed=1;fillColor=none;strokeColor=#6c8ebf;" vertex="1" parent="1">
          <mxGeometry x="490" y="800" width="90" height="150" as="geometry" />
        </mxCell>
        <mxCell id="YEyGg82d8EVNCoPFO2St-9" value="Empty &lt;br style=&quot;font-size: 16px;&quot;&gt;Container&lt;br style=&quot;font-size: 16px;&quot;&gt;Blocks" style="rounded=0;whiteSpace=wrap;html=1;fillStyle=dashed;dashed=1;fillColor=none;strokeColor=#6c8ebf;fontSize=16;fontStyle=1" vertex="1" parent="1">
          <mxGeometry x="-260" y="1010" width="590" height="130" as="geometry" />
        </mxCell>
        <mxCell id="YEyGg82d8EVNCoPFO2St-10" value="Empty &lt;br style=&quot;font-size: 16px;&quot;&gt;Container&lt;br style=&quot;font-size: 16px;&quot;&gt;Blocks" style="rounded=0;whiteSpace=wrap;html=1;fillStyle=dashed;dashed=1;fillColor=none;strokeColor=#6c8ebf;fontSize=16;fontStyle=1;labelPosition=center;verticalLabelPosition=middle;align=center;verticalAlign=middle;" vertex="1" parent="1">
          <mxGeometry x="-350" y="870" width="90" height="140" as="geometry" />
        </mxCell>
        <mxCell id="YEyGg82d8EVNCoPFO2St-11" value="Dangerous&lt;br style=&quot;font-size: 16px;&quot;&gt;Container&lt;br style=&quot;font-size: 16px;&quot;&gt;Blocks" style="rounded=0;whiteSpace=wrap;html=1;fillStyle=dashed;dashed=1;fillColor=#a20025;strokeColor=#6F0000;fontSize=16;fontStyle=1;labelPosition=center;verticalLabelPosition=middle;align=center;verticalAlign=middle;fontColor=#000000;labelBorderColor=none;" vertex="1" parent="1">
          <mxGeometry x="-350" y="1015" width="90" height="120" as="geometry" />
        </mxCell>
      </root>
    </mxGraphModel>
  </diagram>
</mxfile>
